<svg xmlns="http://www.w3.org/2000/svg" xmlns:xlink="http://www.w3.org/1999/xlink" xmlns:inkscape="http://www.inkscape.org/namespaces/inkscape" version="1.1" width="720" height="540" viewBox="0 0 720 540">
<defs>
<clipPath id="clip_0">
<path transform="matrix(1,0,0,-1,0,540)" d="M0 0H720V540H0Z"/>
</clipPath>
</defs>
<g inkscape:groupmode="layer" inkscape:label="&#x80CC;&#x666F;">
<path transform="matrix(1,0,0,-1,0,540)" d="M0 0H720V540H0Z" fill="#ffffff"/>
</g>
<g clip-path="url(#clip_0)">
<path transform="matrix(1,0,0,-1,21.7741,265.6321)" d="M0 0V-59.175H86.625V-77.625H-19.35V88.875H83.7V70.425H0V18.225H78.975V0ZM113.355-77.625V41.625H132.03V24.75H133.155C136.755 30.75 142.042 35.587 149.018 39.263 155.992 42.938 163.005 44.775 170.055 44.775 183.255 44.775 193.605 40.688 201.105 32.513 208.605 24.337 212.355 12.825 212.355-2.025V-77.625H193.68V-4.725C193.68 4.875 190.98 12.675 185.58 18.675 180.18 24.675 173.43 27.675 165.33 27.675 155.43 27.675 147.405 24.487 141.255 18.112 135.105 11.737 132.03 3.375 132.03-6.975V-77.625ZM292.5-128.025C270-128.025 253.125-119.7 241.875-103.05L257.175-92.25C261.075-98.25 266.137-102.788 272.362-105.863 278.587-108.938 285.3-110.475 292.5-110.475 303.3-110.475 311.812-107.175 318.038-100.575 324.262-93.975 327.375-83.925 327.375-70.425V-58.275H326.025C321.975-64.725 316.8-69.712 310.5-73.238 304.2-76.762 297.075-78.525 289.125-78.525 279.525-78.525 270.788-75.863 262.913-70.538 255.038-65.212 248.887-57.75 244.462-48.15 240.038-38.55 237.825-27.675 237.825-15.525 237.825-3.675 240.038 6.825 244.462 15.975 248.887 25.125 255 32.212 262.8 37.237 270.6 42.262 279.375 44.775 289.125 44.775 296.325 44.775 303.15 42.975 309.6 39.375 316.05 35.775 321.525 30.825 326.025 24.525H327.375V41.4H346.05V-70.425C346.05-89.175 341.325-103.462 331.875-113.288 322.425-123.113 309.3-128.025 292.5-128.025M293.85-60.075C304.05-60.075 312.3-56.137 318.6-48.262 324.9-40.387 328.05-29.925 328.05-16.875 328.05-8.325 326.55-.788 323.55 5.737 320.55 12.263 316.387 17.325 311.062 20.925 305.737 24.525 299.7 26.325 292.95 26.325 286.05 26.325 279.862 24.525 274.387 20.925 268.913 17.325 264.637 12.263 261.562 5.737 258.487-.788 256.95-8.325 256.95-16.875 256.95-25.425 258.525-32.962 261.675-39.488 264.825-46.012 269.212-51.075 274.837-54.675 280.462-58.275 286.8-60.075 293.85-60.075M378.435 88.875H397.11V-52.875C397.11-59.025 400.185-62.1 406.335-62.1H411.96V-79.65H402.06C386.31-79.65 378.435-72.375 378.435-57.825ZM458.76 79.2C458.76 75.3 457.56 72.225 455.16 69.975 452.76 67.725 449.61 66.6 445.71 66.6 441.81 66.6 438.773 67.725 436.598 69.975 434.422 72.225 433.335 75.3 433.335 79.2 433.335 83.1 434.46 86.212 436.71 88.537 438.96 90.862 441.96 92.025 445.71 92.025 449.61 92.025 452.76 90.862 455.16 88.537 457.56 86.212 458.76 83.1 458.76 79.2M455.385-77.625H436.71003V41.625H455.385ZM528.975-80.775C517.725-80.775 508.05-78.413 499.95-73.688 491.85-68.962 485.625-62.7 481.275-54.9L496.35-44.325C499.95-50.625 504.6-55.425 510.3-58.725 516-62.025 522.45-63.675 529.65-63.675 537.15-63.675 543.075-62.175 547.425-59.175 551.775-56.175 553.95-52.125 553.95-47.025 553.95-41.925 551.737-37.725 547.312-34.425 542.887-31.125 535.725-28.35 525.825-26.1 512.025-22.95 501.675-18.375 494.775-12.375 487.875-6.375 484.425 1.2 484.425 10.35 484.425 20.7 488.362 29.025 496.237 35.325 504.112 41.625 514.725 44.775 528.075 44.775 547.425 44.775 562.575 36.525 573.525 20.025L558.675 9.45C554.775 15.45 550.2 19.987 544.95 23.062 539.7 26.138 534 27.675 527.85 27.675 520.35 27.675 514.425 26.212 510.075 23.288 505.725 20.362 503.55 16.35 503.55 11.25 503.55 6.9 505.987 2.962 510.862-.562 515.737-4.087 522.9-6.975 532.35-9.225 545.7-12.225 555.825-16.65 562.725-22.5 569.625-28.35 573.075-35.55 573.075-44.1 573.075-55.5 569.137-64.462 561.262-70.988 553.387-77.512 542.625-80.775 528.975-80.775M596.475-77.625V88.875H615.15V24.75H616.275C619.875 30.75 625.162 35.587 632.137 39.263 639.112 42.938 646.125 44.775 653.175 44.775 666.375 44.775 676.725 40.688 684.225 32.513 691.725 24.337 695.475 12.825 695.475-2.025V-77.625H676.8V-4.725C676.8 4.875 674.1 12.675 668.7 18.675 663.3 24.675 656.55 27.675 648.45 27.675 638.55 27.675 630.525 24.487 624.375 18.112 618.225 11.737 615.15 3.375 615.15-6.975V-77.625Z" fill="#2698ba"/>
</g>
</svg>
