<?xml version="1.0" encoding="UTF-8"?>
<svg id="_图层_1" data-name="图层 1" xmlns="http://www.w3.org/2000/svg" xmlns:xlink="http://www.w3.org/1999/xlink" viewBox="0 0 720 540">
  <defs>
    <style>
      .cls-1 {
        fill: #fff;
      }

      .cls-2 {
        clip-path: url(#clippath);
      }

      .cls-3 {
        fill: none;
      }

      .cls-4 {
        fill: red;
      }
    </style>
    <clipPath id="clippath">
      <rect class="cls-3" width="720" height="540"/>
    </clipPath>
  </defs>
  <rect class="cls-1" width="720" height="540"/>
  <g class="cls-2">
    <path class="cls-4" d="m465,170.92c7.6,28.63,17.23,54.03,28.88,76.2,11.65,22.17,26.1,41.87,43.32,59.1,16.98-17.48,31.1-37.18,42.38-59.1,11.27-21.91,20.46-47.32,27.55-76.2h-142.14Zm226.12,258.05c-33.19-11.91-62.33-24.51-87.41-37.81-25.08-13.3-47.12-27.93-66.13-43.89-18.5,15.71-40.16,30.34-64.99,43.89-24.83,13.55-53.84,26.92-87.03,40.1l-14.06-31.16c31.67-11.4,59.29-23.12,82.85-35.15,23.56-12.03,43.83-25.02,60.81-38.95-18.75-19.76-34.65-42.25-47.69-67.46-13.05-25.21-24.01-54.41-32.87-87.6h-60.05v-28.12h157.72c-1.27-4.05-6.08-16.6-14.44-37.62l-6.46-16.34,30.78-6.46c.25.51,4.43,10.77,12.54,30.78,1.77,4.31,3.61,8.99,5.51,14.06,1.9,5.07,3.99,10.26,6.27,15.58h133.39v28.12h-61.19c-8.11,33.19-18.49,62.39-31.16,87.6-12.67,25.21-28.5,47.82-47.51,67.84,17.73,14.19,38.38,27.05,61.95,38.57,23.56,11.53,50.8,22.36,81.71,32.49l-12.54,31.54ZM171.61,284.93h100.71v-97.67h-100.71v97.67Zm-128.83,0h99.57v-97.67H42.78v97.67ZM171.61,83.13v74.49h130.35v156.58h-130.35v117.05h-29.26v-117.05H13.13v-156.58h129.21v-74.49h29.26Z"/>
  </g>
</svg>