<?xml version="1.0" encoding="UTF-8" standalone="no"?>
<svg
   xmlns:dc="http://purl.org/dc/elements/1.1/"
   xmlns:cc="http://creativecommons.org/ns#"
   xmlns:rdf="http://www.w3.org/1999/02/22-rdf-syntax-ns#"
   xmlns:svg="http://www.w3.org/2000/svg"
   xmlns="http://www.w3.org/2000/svg"
   viewBox="0 0 1007.84 755.84003"
   height="755.84003"
   width="1007.84"
   xml:space="preserve"
   id="svg2"
   version="1.1"><metadata
     id="metadata8"><rdf:RDF><cc:Work
         rdf:about=""><dc:format>image/svg+xml</dc:format><dc:type
           rdf:resource="http://purl.org/dc/dcmitype/StillImage" /></cc:Work></rdf:RDF></metadata><defs
     id="defs6"><clipPath
       id="clipPath20"
       clipPathUnits="userSpaceOnUse"><path
         id="path18"
         d="M 0,0 H 755.88 V 566.88 H 0 Z" /></clipPath></defs><g
     transform="matrix(1.3333333,0,0,-1.3333333,0,755.84)"
     id="g10"><path
       id="path12"
       style="fill:#ffffff;fill-opacity:0;fill-rule:nonzero;stroke:none"
       d="M 0,0.005 H 755.875 V 566.881 H 0 Z" /><g
       id="g14"><g
         clip-path="url(#clipPath20)"
         id="g16"><g
           transform="translate(362.1559,463.7542)"
           id="g22"><path
             id="path24"
             style="fill:#ff0000;fill-opacity:1;fill-rule:nonzero;stroke:none"
             d="m 0,0 v -43.877 h -43.478 c 4.787,-7.18 8.642,-13.828 11.568,-19.944 l -47.467,-12.365 c -4.521,9.307 -10.77,20.077 -18.747,32.309 h -18.748 c -8.509,-14.625 -16.487,-27.124 -23.933,-37.495 H -14.36 v -206.22 c 0,-15.158 -1.795,-26.592 -5.385,-34.304 -3.589,-7.712 -9.639,-13.097 -18.149,-16.155 -8.509,-3.058 -20.874,-4.587 -37.095,-4.587 h -44.675 l -7.18,34.304 h 33.905 c 7.712,0 13.362,0.665 16.952,1.994 3.59,1.33 6.117,3.922 7.579,7.778 1.463,3.856 2.194,10.039 2.194,18.548 v 153.968 h -166.333 v 44.674 h 88.152 l -45.073,20.742 c 2.925,3.723 7.047,9.307 12.365,16.753 h -39.09 l 11.568,-17.949 -41.883,-15.158 c -2.393,4.787 -8.775,15.822 -19.146,33.107 h -15.556 c -14.892,-21.805 -29.252,-40.42 -43.079,-55.843 l -33.107,38.292 c 12.498,12.233 23.932,26.194 34.303,41.883 10.371,15.689 19.014,31.245 25.927,46.669 l 52.254,-8.377 C -248.103,12.099 -251.294,5.85 -254.485,0 h 78.978 v -41.484 c 14.891,21.54 26.858,44.143 35.899,67.81 l 52.652,-8.775 C -90.147,9.573 -92.673,3.723 -94.535,0 Z m -281.609,-70.602 c 16.487,-13.562 30.714,-25.794 42.68,-36.697 l -34.304,-34.702 c -16.221,15.689 -30.315,28.32 -42.281,37.893 z m 3.59,-275.626 h -53.45 v 205.423 h 53.45 z m 25.129,198.642 H -95.332 V -298.762 H -252.89 Z m 110.49,-37.095 h -61.826 v -19.146 h 61.826 z m -61.827,-76.186 h 61.826 v 21.141 h -61.826 z M 253.688,20.742 V -43.079 H 386.914 V -234.94 H 253.688 V -347.823 H 195.451 V -234.94 H 63.023 V -43.079 H 195.451 V 20.742 Z M 117.271,-181.889 h 78.18 v 84.961 h -78.18 z m 136.417,0 h 78.978 v 84.961 h -78.978 z" /></g></g></g></g></svg>