<?xml version="1.0" encoding="UTF-8"?>
<svg id="_图层_1" data-name="图层 1" xmlns="http://www.w3.org/2000/svg" xmlns:xlink="http://www.w3.org/1999/xlink" viewBox="0 0 720 540">
  <defs>
    <style>
      .cls-1 {
        fill: #fff;
      }

      .cls-2 {
        fill: #012169;
      }

      .cls-3 {
        clip-path: url(#clippath);
      }

      .cls-4 {
        fill: none;
      }
    </style>
    <clipPath id="clippath">
      <rect class="cls-4" width="720" height="540"/>
    </clipPath>
  </defs>
  <rect class="cls-1" width="720" height="540"/>
  <g class="cls-3">
    <path class="cls-2" d="m606.54,293.9v-29.4l106.14-.17v92.98c-16.29,12.99-33.1,22.76-50.42,29.31-17.32,6.55-35.1,9.83-53.33,9.83-24.61,0-46.97-5.27-67.08-15.81-20.11-10.54-35.29-25.78-45.55-45.72-10.26-19.94-15.38-42.22-15.38-66.83s5.1-47.15,15.3-68.28c10.2-21.14,24.87-36.83,44.01-47.09,19.14-10.26,41.19-15.38,66.15-15.38,18.12,0,34.5,2.93,49.14,8.8,14.64,5.87,26.12,14.04,34.44,24.53s14.64,24.16,18.97,41.02l-29.91,8.2c-3.76-12.76-8.43-22.79-14.02-30.08-5.58-7.29-13.56-13.13-23.93-17.52-10.37-4.39-21.88-6.58-34.53-6.58-15.16,0-28.26,2.31-39.31,6.92-11.05,4.61-19.97,10.68-26.75,18.2-6.78,7.52-12.05,15.78-15.81,24.78-6.38,15.5-9.57,32.3-9.57,50.42,0,22.33,3.85,41.02,11.54,56.06,7.69,15.04,18.89,26.21,33.59,33.5,14.7,7.29,30.31,10.94,46.83,10.94,14.36,0,28.37-2.76,42.05-8.29,13.67-5.53,24.04-11.42,31.11-17.69v-46.66h-73.67Zm-370.43,98.28v-250.57h34.01l131.61,196.73v-196.73h31.79v250.57h-34.01l-131.61-196.9v196.9h-31.79Zm-232.49,0v-250.57h181.17v29.57H36.77v76.74h138.61v29.4H36.77v85.29h153.83v29.57H3.61Z"/>
  </g>
</svg>