<?xml version="1.0" encoding="UTF-8" standalone="no"?>
<svg
   xmlns:dc="http://purl.org/dc/elements/1.1/"
   xmlns:cc="http://creativecommons.org/ns#"
   xmlns:rdf="http://www.w3.org/1999/02/22-rdf-syntax-ns#"
   xmlns:svg="http://www.w3.org/2000/svg"
   xmlns="http://www.w3.org/2000/svg"
   viewBox="0 0 1007.84 755.84003"
   height="755.84003"
   width="1007.84"
   xml:space="preserve"
   id="svg2"
   version="1.1"><metadata
     id="metadata8"><rdf:RDF><cc:Work
         rdf:about=""><dc:format>image/svg+xml</dc:format><dc:type
           rdf:resource="http://purl.org/dc/dcmitype/StillImage" /></cc:Work></rdf:RDF></metadata><defs
     id="defs6"><clipPath
       id="clipPath20"
       clipPathUnits="userSpaceOnUse"><path
         id="path18"
         d="M 0,0 H 755.88 V 566.88 H 0 Z" /></clipPath></defs><g
     transform="matrix(1.3333333,0,0,-1.3333333,0,755.84)"
     id="g10"><path
       id="path12"
       style="fill:#ffffff;fill-opacity:0;fill-rule:nonzero;stroke:none"
       d="M 0,0.005 H 755.875 V 566.881 H 0 Z" /><g
       id="g14"><g
         clip-path="url(#clipPath20)"
         id="g16"><g
           transform="translate(218.857,196.1057)"
           id="g22"><path
             id="path24"
             style="fill:#ff0000;fill-opacity:1;fill-rule:nonzero;stroke:none"
             d="m 0,0 v -31.113 c 0,-11.966 -1.662,-21.074 -4.986,-27.323 -3.324,-6.249 -8.842,-10.637 -16.554,-13.163 -7.711,-2.526 -18.747,-3.789 -33.107,-3.789 h -35.899 l -7.18,31.91 c -30.58,-11.169 -62.624,-21.938 -96.13,-32.309 l -15.556,37.893 13.163,3.989 c 45.206,13.03 77.25,22.869 96.13,29.517 l 14.36,-31.511 h 14.758 c 14.094,0 21.141,6.249 21.141,18.747 v 15.158 l -131.232,-5.186 -7.578,36.298 c 27.39,6.116 59.699,15.158 96.928,27.124 l -74.99,-3.191 -7.18,30.714 c 28.454,7.18 51.855,16.088 70.203,26.725 h -91.742 l 6.382,45.073 h -21.141 v 34.703 h 26.326 l 1.995,14.359 -30.714,29.518 c 9.307,7.711 18.282,17.018 26.924,27.921 8.643,10.903 16.022,21.939 22.138,33.107 l 45.871,-5.584 -5.983,-11.568 h 111.687 v -31.511 h -131.232 c -4.255,-5.85 -7.579,-10.105 -9.972,-12.764 h 127.642 l -2.394,-43.478 H -7.18 l -15.556,25.129 c 9.307,10.105 17.551,21.473 24.73,34.104 7.18,12.632 14.227,27.324 21.141,44.077 l 44.276,-5.984 -3.191,-7.977 -5.984,-13.961 h 89.35 v -40.287 h -17.551 c -3.989,-12.764 -8.709,-24.132 -14.16,-34.104 -5.452,-9.972 -12.033,-19.346 -19.745,-28.121 14.094,-8.51 32.841,-17.019 56.242,-25.528 L 133.226,96.928 c -28.719,11.7 -52.253,24.199 -70.602,37.495 C 47.201,124.052 29.118,113.947 8.376,104.108 l -22.337,36.697 c 17.817,7.977 32.841,15.689 45.074,23.135 -6.914,7.711 -12.897,16.354 -17.95,25.927 l -11.966,-13.562 -4.388,7.18 v -27.922 h -26.725 l -1.197,-18.348 h 12.366 V 110.49 h -13.961 l -0.399,-6.382 h -41.085 l 0.399,6.382 H -96.13 L -63.422,95.332 C -69.538,92.407 -79.51,88.02 -93.338,82.169 l 85.759,5.585 c 21.54,8.775 41.351,17.683 59.433,26.725 L 82.967,88.551 C 64.353,78.978 38.359,68.208 4.986,56.242 -28.387,44.276 -58.768,34.968 -86.158,28.32 L 44.675,35.899 C 35.367,42.813 30.049,46.669 28.719,47.467 L 57.838,72.995 87.355,51.057 c 6.914,-5.319 14.492,-10.97 22.736,-16.953 8.243,-5.983 16.62,-12.299 25.129,-18.947 l -26.326,-27.921 c -5.318,4.52 -12.099,9.839 -20.343,15.955 z m 63.023,189.468 c 9.041,9.839 16.354,21.805 21.938,35.899 H 40.287 c 6.382,-14.359 13.961,-26.326 22.736,-35.899 m -184.681,16.354 h -17.95 l -3.191,-20.742 h 33.905 l -18.349,10.77 z m 53.45,-20.742 1.595,20.742 h -32.309 l 19.146,-11.169 -5.584,-9.573 z m -78.58,-24.331 -3.59,-23.534 h 40.287 l -7.977,3.989 c -9.042,4.254 -13.961,6.515 -14.759,6.78 l 5.983,12.765 z m 56.242,-23.534 h 18.748 l 1.994,23.534 H -106.9 c 7.446,-3.723 15.424,-7.978 23.933,-12.765 z M 33.506,-2.393 c 5.584,-2.128 13.562,-4.92 23.933,-8.377 10.371,-3.457 19.013,-6.382 25.927,-8.775 28.985,-9.307 49.993,-16.487 63.023,-21.54 L 129.636,-74.989 C 95.598,-62.225 57.705,-49.461 15.955,-36.697 Z M 396.487,288.39 V 224.569 H 529.713 V 32.708 H 396.487 V -80.175 H 338.25 V 32.708 H 205.822 V 224.569 H 338.25 V 288.39 Z M 260.07,85.759 h 78.18 v 84.961 h -78.18 z m 136.417,0 h 78.978 v 84.961 h -78.978 z" /></g></g></g></g></svg>