<?xml version="1.0" encoding="UTF-8" standalone="no"?>
<svg
   xmlns:dc="http://purl.org/dc/elements/1.1/"
   xmlns:cc="http://creativecommons.org/ns#"
   xmlns:rdf="http://www.w3.org/1999/02/22-rdf-syntax-ns#"
   xmlns:svg="http://www.w3.org/2000/svg"
   xmlns="http://www.w3.org/2000/svg"
   viewBox="0 0 1007.84 755.84003"
   height="755.84003"
   width="1007.84"
   xml:space="preserve"
   id="svg2"
   version="1.1"><metadata
     id="metadata8"><rdf:RDF><cc:Work
         rdf:about=""><dc:format>image/svg+xml</dc:format><dc:type
           rdf:resource="http://purl.org/dc/dcmitype/StillImage" /></cc:Work></rdf:RDF></metadata><defs
     id="defs6"><clipPath
       id="clipPath20"
       clipPathUnits="userSpaceOnUse"><path
         id="path18"
         d="M 0,0 H 755.88 V 566.88 H 0 Z" /></clipPath></defs><g
     transform="matrix(1.3333333,0,0,-1.3333333,0,755.84)"
     id="g10"><path
       id="path12"
       style="fill:#ffffff;fill-opacity:0;fill-rule:nonzero;stroke:none"
       d="M 0,0.005 H 755.875 V 566.881 H 0 Z" /><g
       id="g14"><g
         clip-path="url(#clipPath20)"
         id="g16"><g
           transform="translate(64.19,277.3657)"
           id="g22"><path
             id="path24"
             style="fill:#2698ba;fill-opacity:1;fill-rule:nonzero;stroke:none"
             d="m 0,0 v -60.84 h 132.12 v -54.72 H -60.12 v 280.8 H 127.8 V 110.88 H 0 V 54.72 h 120.96 l 0,-54.72 z m 227.52,-115.56 h -57.6 v 280.8 h 52.92 L 343.44,-7.2 h 1.8 v 172.44 h 57.96 v -280.8 H 353.16 L 229.68,56.88 h -2.16 z m 353.52,229.68 c -23.28,0 -41.76,-7.74 -55.44,-23.22 -13.68,-15.48 -20.52,-37.5 -20.52,-66.06 0,-29.04 6.54,-51.18 19.62,-66.42 13.08,-15.24 31.14,-22.86 54.18,-22.86 10.8,0 20.4,1.68 28.8,5.04 8.4,3.36 16.32,8.76 23.76,16.2 V -8.28 H 578.16 V 46.44 H 688.32 V -70.2 c -27.36,-33.6 -63.84,-50.4 -109.44,-50.4 -27.12,0 -50.88,5.82 -71.28,17.46 -20.4,11.64 -36.18,28.44 -47.34,50.4 -11.16,21.96 -16.74,47.82 -16.74,77.58 0,30 5.7,55.92 17.1,77.76 11.4,21.84 27.48,38.58 48.24,50.22 20.76,11.64 44.82,17.46 72.18,17.46 24.48,0 45.48,-4.8 63,-14.4 17.52,-9.6 31.08,-23.52 40.68,-41.76 L 637.2,81.72 c -5.76,9.84 -13.68,17.7 -23.76,23.58 -10.08,5.88 -20.88,8.82 -32.4,8.82" /></g></g></g></g></svg>