<?xml version="1.0" encoding="UTF-8"?>
<svg id="_图层_1" data-name="图层 1" xmlns="http://www.w3.org/2000/svg" xmlns:xlink="http://www.w3.org/1999/xlink" viewBox="0 0 566.88 566.88">
  <defs>
    <style>
      .cls-1 {
        fill: #fff;
      }

      .cls-2 {
        clip-path: url(#clippath);
      }

      .cls-3 {
        fill: none;
      }

      .cls-4 {
        fill: red;
      }
    </style>
    <clipPath id="clippath">
      <rect class="cls-3" y="0" width="566.88" height="566.88"/>
    </clipPath>
  </defs>
  <rect class="cls-1" width="566.88" height="566.88"/>
  <g class="cls-2">
    <path class="cls-4" d="m367.57,206.15c5.98,22.54,13.56,42.53,22.74,59.98,9.17,17.45,20.54,32.96,34.1,46.52,13.36-13.76,24.48-29.27,33.36-46.52,8.88-17.25,16.1-37.25,21.69-59.98h-111.89Zm178,203.13c-26.13-9.37-49.06-19.3-68.81-29.77-19.74-10.47-37.1-21.99-52.05-34.55-14.56,12.37-31.61,23.88-51.16,34.55-19.54,10.67-42.38,21.19-68.51,31.56l-11.07-24.53c24.93-8.97,46.67-18.2,65.22-27.67,18.55-9.47,34.5-19.69,47.87-30.66-14.76-15.56-27.27-33.26-37.55-53.1-10.27-19.84-18.9-42.83-25.88-68.96h-47.27v-22.14h124.15c-1-3.19-4.79-13.06-11.37-29.62l-5.09-12.86,24.23-5.09c.2.4,3.49,8.48,9.87,24.23,1.4,3.39,2.84,7.08,4.34,11.07,1.5,3.99,3.14,8.08,4.94,12.27h105.01v22.14h-48.16c-6.38,26.13-14.56,49.11-24.53,68.96-9.97,19.85-22.44,37.64-37.4,53.4,13.96,11.17,30.22,21.29,48.76,30.36,18.55,9.07,39.99,17.6,64.32,25.58l-9.87,24.83Zm-408.95-113.38h79.28v-76.88h-79.28v76.88Zm-101.42,0h78.38v-76.88H35.2v76.88Zm101.42-158.85v58.64h102.61v123.25h-102.61v92.14h-23.04v-92.14H11.87v-123.25h101.71v-58.64h23.04Z"/>
  </g>
</svg>