<svg xmlns="http://www.w3.org/2000/svg" xmlns:xlink="http://www.w3.org/1999/xlink" xmlns:inkscape="http://www.inkscape.org/namespaces/inkscape" version="1.1" width="566.88" height="566.88" viewBox="0 0 566.88 566.88">
<defs>
<clipPath id="clip_0">
<path transform="matrix(1,0,0,-1,0,566.88)" d="M0 0H566.88V566.88H0Z"/>
</clipPath>
</defs>
<g inkscape:groupmode="layer" inkscape:label="&#x80CC;&#x666F;">
<path transform="matrix(1,0,0,-1,0,566.88)" d="M0 .005H566.875V566.881H0Z" fill="#ffffff"/>
</g>
<g clip-path="url(#clip_0)">
<path transform="matrix(1,0,0,-1,56.0359,181.31729)" d="M0 0C-10.77-16.155-21.639-30.315-32.608-42.481L-47.866-27.224C-38.691-17.65-29.168-5.534-19.296 9.124-9.424 23.783-1.895 36.896 3.291 48.464L25.429 44.276C21.839 36.298 17.451 28.121 12.266 19.745H87.953V0H41.583L55.943-23.035 37.993-32.309C35.799-28.121 30.514-19.745 22.138-7.18L17.351 0ZM215.096 19.745V0H162.145C166.931-6.98 171.818-14.659 176.804-23.035L158.854-31.711C155.663-25.728 149.081-15.157 139.109 0H119.365C111.387-13.761 104.008-25.329 97.227-34.703L78.081-24.232C95.831-.299 109.592 23.833 119.365 48.165L140.605 43.677C137.015 35.101 133.425 27.124 129.835 19.745ZM-1.197-26.625 5.086-32.608C8.476-35.999 12.465-39.938 17.052-44.425 21.639-48.913 26.725-53.949 32.309-59.533L17.65-74.79C7.878-63.821-3.091-52.652-15.257-41.284ZM44.874-59.832V-39.489H197.745V-190.864C197.745-200.637 196.698-207.966 194.604-212.852 192.509-217.739 188.72-221.129 183.236-223.024 177.751-224.918 169.624-225.866 158.854-225.866H125.348L120.861-204.625H154.067C161.048-204.625 166.034-204.077 169.025-202.98 172.017-201.883 173.862-200.038 174.56-197.446 175.258-194.853 175.607-190.565 175.607-184.582V-59.832ZM-4.787-226.763H-26.626002V-70.003009H-4.787ZM30.813-85.859H139.408V-193.856H30.813ZM119.963-104.706H50.558V-130.733H119.963ZM50.558-175.607H119.963V-149.28099H50.558ZM395.49 44.276V-14.36H498.101V-137.614H395.49V-229.755H372.454V-137.614H270.74V-14.36H372.454V44.276ZM294.074-114.578H372.454V-37.694H294.074ZM395.49-114.578H474.767V-37.694H395.49Z" fill="#ff0000"/>
</g>
</svg>
