<svg xmlns="http://www.w3.org/2000/svg" xmlns:xlink="http://www.w3.org/1999/xlink" xmlns:inkscape="http://www.inkscape.org/namespaces/inkscape" version="1.1" width="566.88" height="566.88" viewBox="0 0 566.88 566.88">
<defs>
<clipPath id="clip_0">
<path transform="matrix(1,0,0,-1,0,566.88)" d="M0 0H566.88V566.88H0Z"/>
</clipPath>
</defs>
<g inkscape:groupmode="layer" inkscape:label="&#x80CC;&#x666F;">
<path transform="matrix(1,0,0,-1,0,566.88)" d="M0 .005H566.875V566.881H0Z" fill="#ffffff"/>
</g>
<g clip-path="url(#clip_0)">
<path transform="matrix(1,0,0,-1,25.3741,266.27873)" d="M0 0 5.385 35.301H-15.855V48.464H7.479L12.266 80.474C7.479 75.089 3.091 70.502-.897 66.713L-14.36 78.38C-6.382 85.56 1.247 94.036 8.526 103.809 15.806 113.581 21.938 123.054 26.924 132.229L43.977 125.946C42.182 122.157 39.489 117.47 35.899 111.886H131.331V96.629H25.429C21.839 92.042 18.049 87.355 14.061 82.568H116.373L113.98 48.464H140.306V35.301H113.082L111.587 14.061H124.151V0H110.39L110.091-5.983H92.74L93.039 0ZM122.955 69.704C130.932 78.081 138.312 87.704 145.093 98.573 151.874 109.443 157.458 120.561 161.846 131.93L180.992 127.143C178 119.365 174.51 111.786 170.521 104.407H247.704V87.056H229.456C226.265 75.887 222.376 65.915 217.788 57.14 213.201 48.364 207.617 40.287 201.036 32.908 212.802 24.93 228.658 17.152 248.602 9.573L240.525-8.376C218.586 .399 200.736 9.872 186.975 20.044 175.407 10.67 159.153 1.396 138.212-7.778L127.442 8.676C145.791 15.855 160.848 23.933 172.615 32.908 162.843 43.278 154.865 56.043 148.683 71.2 144.095 65.416 138.511 59.333 131.93 52.951ZM186.078 44.874C196.249 55.843 204.027 69.904 209.412 87.056H161.247C164.438 78.081 167.978 70.203 171.867 63.422 175.757 56.641 180.493 50.458 186.078 44.874M50.259 68.208H28.42L25.129 48.165H67.311C64.918 49.76 58.037 54.447 46.669 62.225ZM96.629 48.165 98.124 68.208H60.729C61.128 68.009 65.317 65.117 73.294 59.533L79.577 55.345 74.491 48.165ZM48.464 35.6H23.334L19.745 14.061H65.815L44.276 28.719ZM72.098 14.061H94.235L95.731 35.6H56.541C62.923 31.611 69.904 27.024 77.482 21.839ZM128.938-81.372V-110.39C128.938-118.368 127.891-124.401 125.797-128.489 123.703-132.578 120.163-135.47 115.177-137.165 110.191-138.86 103.011-139.708 93.637-139.708H67.61L64.02-120.861H86.756C94.933-120.861 100.568-119.664 103.659-117.271 106.75-114.877 108.296-110.589 108.296-104.407V-81.671L9.573-84.363 6.282-66.713C37.794-60.131 68.208-51.156 97.526-39.788L20.642-43.378 17.351-29.019C46.47-20.044 69.106-10.67 85.261-.897L96.33-13.163 84.662-18.249C80.075-20.443 73.693-23.235 65.516-26.625L134.921-23.933C150.876-16.753 165.635-9.075 179.197-.897L190.864-16.155C153.768-37.495 113.082-54.347 68.807-66.713L180.393-62.824 159.153-48.464 171.12-35.301C201.235-55.843 221.478-69.904 231.849-77.482L221.378-92.141 203.728-79.277ZM71.499-104.407C61.328-109.592 48.963-115.226 34.403-121.309 19.844-127.392 5.983-133.026-7.18-138.212L-15.257-118.767C21.839-106.002 47.666-95.233 62.225-86.457ZM165.136-86.756C173.712-90.147 179.695-92.54 183.086-93.936 211.606-105.105 233.444-113.88 248.602-120.262L241.422-138.511C217.29-127.941 189.269-116.772 157.358-105.005ZM426.901 129.237V70.602H529.513V-52.652H426.901V-144.793H403.866V-52.652H302.152V70.602H403.866V129.237ZM325.486-29.617H403.866V47.267004H325.486ZM426.901-29.617H506.178V47.267004H426.901Z" fill="#ff0000"/>
</g>
</svg>
