<?xml version="1.0" encoding="utf-8"?>
<!-- Generator: Adobe Illustrator 27.1.1, SVG Export Plug-In . SVG Version: 6.00 Build 0)  -->
<svg version="1.1"
	 id="logo_epfl_2019" xmlns:dc="http://purl.org/dc/elements/1.1/" xmlns:svg="http://www.w3.org/2000/svg" xmlns:cc="http://creativecommons.org/ns#" xmlns:rdf="http://www.w3.org/1999/02/22-rdf-syntax-ns#"
	 xmlns="http://www.w3.org/2000/svg" xmlns:xlink="http://www.w3.org/1999/xlink" x="0px" y="0px" viewBox="0 0 182.4 53"
	 style="enable-background:new 0 0 182.4 53;" xml:space="preserve">
<style type="text/css">
	.st0{fill:#FF0000;}
</style>
<title  id="title6">epfl-logo-new</title>
<path id="polygon8" class="st0" d="M0,21.6h11.4V9.8h26.9V0H0V21.6z"/>
<path id="polygon10" class="st0" d="M0,53h38.3v-9.8H11.4V31.4H0V53z"/>
<path id="rect12" class="st0" d="M11.4,21.6H36v9.8H11.4V21.6z"/>
<path id="path14" class="st0" d="M86,4.9c-1.6-1.6-3.6-2.8-5.7-3.5c-2.7-1-5.6-1.4-8.5-1.3H48.1v53h11.4V31.4h12.2
	c2.9,0.1,5.7-0.4,8.5-1.3c2.1-0.8,4.1-2,5.7-3.5c1.4-1.4,2.5-3.1,3.2-5c1.3-3.8,1.3-7.9,0-11.6C88.5,8,87.4,6.3,86,4.9z M78,18.7
	c-0.6,0.8-1.4,1.4-2.3,1.8c-1,0.4-2.1,0.7-3.3,0.9c-1.3,0.2-2.6,0.2-3.9,0.2h-9V9.8h9.1c1.3,0,2.6,0.1,3.9,0.2
	c1.1,0.1,2.2,0.4,3.3,0.9c0.9,0.4,1.7,1,2.2,1.8c0.6,0.9,0.9,1.9,0.9,3C78.9,16.8,78.6,17.8,78,18.7z"/>
<path id="polygon16" class="st0" d="M155.5,43.2V0H144v53h38.3v-9.8H155.5z"/>
<path id="polygon18" class="st0" d="M97.4,21.6h11.4V9.8h26.9V0H97.4V21.6z"/>
<path id="rect20" class="st0" d="M97.4,31.4h11.4V53H97.4V31.4z"/>
<path id="rect22" class="st0" d="M108.8,21.6h24.6v9.8h-24.6L108.8,21.6z"/>
</svg>
