<?xml version="1.0" encoding="utf-8"?>
<!-- Generator: Adobe Illustrator 27.1.1, SVG Export Plug-In . SVG Version: 6.00 Build 0)  -->
<svg version="1.1" id="Layer_1" xmlns="http://www.w3.org/2000/svg" xmlns:xlink="http://www.w3.org/1999/xlink" x="0px" y="0px"
	 viewBox="0 0 283.58 79.78" style="enable-background:new 0 0 283.58 79.78;" xml:space="preserve">
<style type="text/css">
	.st0{fill:#94070A;}
</style>
<g>
	<g>
		<g>
			<path class="st0" d="M26.29,73.99l-0.06,0.02c-0.33-0.17-0.73-0.37-1.21-0.58c-0.47-0.21-0.97-0.43-1.5-0.65l-0.02-0.06l0.1-0.22
				l0.06-0.02c0.13,0.04,0.25,0.09,0.37,0.13c0.21,0.08,0.35,0.12,0.42,0.12c0.05,0,0.1-0.03,0.16-0.08c0.1-0.1,0.33-0.54,0.68-1.33
				l0.4-0.89c0.12-0.27,0.27-0.61,0.45-1.03l0.12-0.27c0.06-0.12,0.06-0.19,0.01-0.21c-0.02-0.01-0.11-0.02-0.25-0.01
				c-0.4,0-0.74,0.01-1.02,0.02l-0.03-0.04c0.05-0.14,0.09-0.3,0.13-0.49l0.02-0.03c0.75,0.11,1.6,0.2,2.55,0.25l0.05,0.09
				c-0.07,0.14-0.18,0.34-0.32,0.61c-0.06,0.1-0.19,0.38-0.41,0.83l-0.65,1.41c-0.46,1.01-0.68,1.56-0.68,1.65
				c0,0.06,0.02,0.12,0.06,0.15c0.07,0.06,0.28,0.19,0.64,0.38l0.03,0.05L26.29,73.99z"/>
			<path class="st0" d="M37.15,74.82c-0.04,0.3-0.14,0.57-0.29,0.79c-0.29,0.42-0.71,0.68-1.26,0.77c-0.23,0.04-0.49,0.04-0.8,0
				c-0.66-0.09-1.14-0.38-1.43-0.88c-0.13-0.22-0.18-0.49-0.13-0.82c0.05-0.4,0.24-0.7,0.56-0.91c0.1-0.07,0.32-0.16,0.66-0.27
				c-0.54-0.37-0.78-0.83-0.71-1.38c0.08-0.61,0.45-1.01,1.11-1.22c0.29-0.08,0.6-0.11,0.94-0.06c0.5,0.06,0.88,0.23,1.14,0.5
				c0.25,0.25,0.34,0.55,0.3,0.9c-0.06,0.47-0.39,0.82-0.99,1.04c0.39,0.21,0.65,0.44,0.79,0.69C37.16,74.2,37.2,74.49,37.15,74.82z
				 M36.12,75.15c0.05-0.38-0.1-0.69-0.45-0.93c-0.23-0.16-0.47-0.31-0.74-0.45l-0.11-0.05c-0.45,0.23-0.7,0.56-0.76,0.99
				c-0.03,0.25-0.01,0.46,0.07,0.62c0.18,0.37,0.48,0.59,0.89,0.65c0.29,0.04,0.54-0.02,0.74-0.17
				C35.96,75.65,36.08,75.43,36.12,75.15z M36.47,72.26c0.03-0.26-0.02-0.47-0.17-0.65c-0.15-0.18-0.37-0.29-0.66-0.32
				c-0.26-0.04-0.48,0.01-0.66,0.14c-0.16,0.12-0.25,0.28-0.29,0.48c-0.02,0.2,0.04,0.39,0.21,0.58c0.09,0.1,0.23,0.21,0.41,0.32
				c0.06,0.04,0.16,0.1,0.29,0.17l0.23,0.12C36.2,72.93,36.42,72.65,36.47,72.26z"/>
			<path class="st0" d="M46.42,72.82c0.1,0.7,0.04,1.29-0.18,1.79c-0.22,0.52-0.55,0.96-1,1.31c-0.45,0.36-0.98,0.58-1.57,0.66
				l-0.38-0.21l0.08-0.17c0.09,0.01,0.2,0.01,0.33,0c0.45-0.06,0.83-0.27,1.13-0.62c0.12-0.14,0.22-0.32,0.31-0.54
				c0.14-0.35,0.21-0.84,0.19-1.47c-0.38,0.42-0.6,0.64-0.65,0.65c-0.18,0.09-0.39,0.15-0.61,0.18c-0.39,0.05-0.72-0.03-1-0.25
				c-0.3-0.24-0.49-0.6-0.55-1.08c-0.11-0.77,0.11-1.37,0.66-1.82c0.26-0.21,0.59-0.35,1.01-0.4c0.78-0.11,1.38,0.14,1.8,0.75
				C46.21,71.89,46.34,72.29,46.42,72.82z M45.22,72.57c-0.07-0.48-0.2-0.83-0.39-1.05c-0.19-0.21-0.42-0.3-0.69-0.26
				c-0.34,0.05-0.54,0.24-0.61,0.59c-0.04,0.18-0.05,0.4-0.01,0.64c0.06,0.4,0.19,0.71,0.38,0.9c0.18,0.18,0.41,0.25,0.68,0.22
				c0.35-0.04,0.56-0.21,0.63-0.5C45.25,72.97,45.25,72.79,45.22,72.57z"/>
			<path class="st0" d="M55.68,71.18c0.13,0.28,0.18,0.56,0.16,0.82c-0.04,0.51-0.26,0.95-0.68,1.31c-0.17,0.15-0.4,0.29-0.69,0.41
				c-0.61,0.26-1.17,0.26-1.67,0c-0.23-0.12-0.41-0.33-0.54-0.63c-0.16-0.37-0.16-0.73,0-1.07c0.05-0.11,0.2-0.3,0.43-0.57
				c-0.66-0.04-1.1-0.31-1.32-0.81c-0.25-0.57-0.14-1.11,0.32-1.62c0.2-0.22,0.45-0.4,0.77-0.54c0.46-0.2,0.87-0.26,1.23-0.16
				c0.34,0.09,0.58,0.29,0.72,0.61c0.19,0.44,0.09,0.9-0.31,1.4c0.44-0.02,0.79,0.04,1.03,0.18C55.36,70.65,55.54,70.87,55.68,71.18
				z M53.77,69.34c-0.11-0.24-0.27-0.39-0.49-0.47c-0.22-0.08-0.46-0.05-0.73,0.06c-0.24,0.1-0.41,0.26-0.49,0.45
				c-0.08,0.19-0.08,0.37,0.01,0.55c0.08,0.19,0.24,0.31,0.48,0.39c0.13,0.04,0.3,0.06,0.51,0.06c0.08,0,0.19,0,0.34,0l0.26-0.01
				C53.88,70.05,53.92,69.7,53.77,69.34z M54.96,71.99c-0.15-0.35-0.44-0.54-0.87-0.56c-0.28-0.02-0.57-0.01-0.87,0l-0.13,0.01
				c-0.27,0.43-0.31,0.85-0.14,1.25c0.1,0.23,0.23,0.4,0.39,0.5c0.35,0.23,0.72,0.25,1.1,0.09c0.27-0.12,0.45-0.3,0.54-0.53
				C55.08,72.5,55.07,72.25,54.96,71.99z"/>
		</g>
		<g>
			<path class="st0" d="M24.37,3.14c-4.75,2.01-9.02,4.89-12.68,8.55c-3.66,3.66-6.54,7.93-8.55,12.68C1.06,29.28,0,34.51,0,39.89
				c0,5.39,1.06,10.61,3.14,15.53c2.01,4.75,4.88,9.01,8.55,12.68c3.66,3.66,7.93,6.54,12.68,8.55c4.91,2.08,10.14,3.14,15.52,3.14
				c5.38,0,10.61-1.05,15.53-3.14c4.75-2.01,9.02-4.88,12.68-8.55c3.66-3.66,6.54-7.93,8.55-12.68c2.08-4.92,3.14-10.14,3.14-15.53
				c0-5.39-1.05-10.61-3.14-15.53c-2.01-4.75-4.88-9.02-8.55-12.68c-3.66-3.66-7.93-6.54-12.68-8.55C50.5,1.06,45.27,0,39.89,0
				C34.5,0,29.28,1.06,24.37,3.14z M24.88,75.43c-4.59-1.94-8.72-4.72-12.26-8.27c-3.55-3.54-6.33-7.67-8.27-12.26
				c-2.01-4.75-3.03-9.81-3.03-15.01c0-5.21,1.02-10.26,3.03-15.02c1.94-4.59,4.72-8.72,8.27-12.26c3.54-3.54,7.67-6.33,12.26-8.27
				c4.75-2.01,9.8-3.03,15.01-3.03c5.21,0,10.26,1.02,15.01,3.03c4.6,1.94,8.72,4.73,12.26,8.27c3.55,3.54,6.32,7.67,8.27,12.26
				c2.01,4.76,3.03,9.81,3.03,15.02c0,5.21-1.02,10.26-3.03,15.01c-1.94,4.59-4.72,8.72-8.27,12.26c-3.54,3.54-7.67,6.33-12.26,8.27
				c-4.75,2.01-9.81,3.03-15.01,3.03C34.68,78.46,29.63,77.44,24.88,75.43z"/>
		</g>
		<path class="st0" d="M28.41,12.71c-3.51,1.48-6.67,3.61-9.37,6.32c-2.71,2.71-4.84,5.86-6.33,9.37c-1.54,3.64-2.32,7.5-2.32,11.48
			c0,3.98,0.78,7.85,2.32,11.48c1.49,3.51,3.61,6.66,6.33,9.37c2.7,2.71,5.86,4.84,9.37,6.32c3.64,1.54,7.5,2.32,11.48,2.32
			c3.98,0,7.85-0.78,11.49-2.32c3.51-1.48,6.67-3.61,9.38-6.32c2.71-2.71,4.83-5.86,6.32-9.37c1.54-3.64,2.32-7.5,2.32-11.48
			c0-3.98-0.78-7.84-2.32-11.48c-1.49-3.51-3.61-6.66-6.32-9.37c-2.71-2.71-5.86-4.84-9.38-6.32c-3.64-1.54-7.5-2.32-11.49-2.32
			C35.9,10.39,32.05,11.17,28.41,12.71z M28.76,66.25c-3.41-1.44-6.47-3.5-9.1-6.13c-2.63-2.63-4.69-5.69-6.13-9.09
			c-1.49-3.53-2.25-7.27-2.25-11.14c0-3.86,0.76-7.61,2.25-11.14c1.44-3.41,3.5-6.47,6.13-9.09c2.63-2.63,5.69-4.69,9.1-6.13
			c3.53-1.5,7.27-2.25,11.13-2.25s7.61,0.75,11.14,2.25c3.41,1.44,6.46,3.5,9.09,6.13c2.63,2.62,4.69,5.68,6.13,9.09
			c1.49,3.53,2.25,7.28,2.25,11.14c0,3.87-0.75,7.61-2.25,11.14c-1.44,3.41-3.5,6.46-6.13,9.09c-2.63,2.63-5.69,4.69-9.09,6.13
			c-3.53,1.5-7.28,2.25-11.14,2.25S32.28,67.74,28.76,66.25z"/>
		<g>
			<path class="st0" d="M6.06,50.11C6.34,50,6.59,49.97,6.84,50c0.24,0.03,0.47,0.13,0.67,0.28c0.21,0.16,0.39,0.36,0.55,0.6
				c0.16,0.24,0.3,0.53,0.43,0.86l0.15,0.39l1.38-0.52c0.08-0.03,0.15-0.07,0.2-0.13c0.05-0.05,0.08-0.13,0.08-0.24
				c0-0.05,0-0.14-0.03-0.25c-0.02-0.11-0.04-0.21-0.06-0.28l0.27-0.1l1.03,2.69l-0.27,0.1c-0.03-0.06-0.07-0.15-0.13-0.25
				c-0.05-0.11-0.1-0.18-0.13-0.22c-0.07-0.08-0.14-0.12-0.21-0.13c-0.07-0.01-0.14,0.01-0.24,0.04l-3.46,1.32
				c-0.08,0.03-0.15,0.07-0.19,0.13c-0.05,0.05-0.08,0.13-0.08,0.24c0,0.07,0.01,0.17,0.03,0.29c0.02,0.12,0.03,0.2,0.05,0.26
				l-0.27,0.1l-1.03-2.71c-0.25-0.63-0.33-1.15-0.24-1.54C5.39,50.54,5.64,50.27,6.06,50.11z M6.74,51.38
				c-0.37,0.14-0.61,0.32-0.73,0.54c-0.12,0.22-0.11,0.51,0.03,0.89l0.11,0.29l2.16-0.83l-0.06-0.15c-0.14-0.37-0.34-0.62-0.59-0.76
				C7.41,51.24,7.1,51.24,6.74,51.38z"/>
			<path class="st0" d="M4.66,41.85l0.03,0.29c-0.19,0.09-0.37,0.24-0.56,0.43c-0.18,0.2-0.28,0.38-0.3,0.56
				c-0.01,0.07-0.01,0.17,0,0.3c0.01,0.13,0.02,0.24,0.03,0.32l0.09,0.75l2.01-0.23l-0.06-0.53c-0.02-0.13-0.04-0.25-0.09-0.36
				c-0.04-0.1-0.12-0.2-0.22-0.28c-0.06-0.05-0.17-0.09-0.32-0.14c-0.15-0.04-0.28-0.06-0.38-0.06l-0.03-0.29l2.17-0.25l0.04,0.29
				c-0.1,0.02-0.23,0.07-0.38,0.15c-0.15,0.08-0.25,0.14-0.3,0.21c-0.08,0.09-0.13,0.19-0.15,0.3c-0.02,0.12-0.02,0.24-0.01,0.39
				l0.06,0.54l1.51-0.18c0.16-0.02,0.28-0.04,0.37-0.07c0.09-0.04,0.15-0.09,0.2-0.16c0.04-0.06,0.06-0.15,0.06-0.26
				c0-0.11-0.01-0.25-0.03-0.43c-0.01-0.09-0.02-0.19-0.04-0.31c-0.01-0.12-0.04-0.22-0.06-0.31c-0.02-0.1-0.05-0.2-0.09-0.28
				c-0.04-0.09-0.08-0.15-0.13-0.19c-0.13-0.1-0.33-0.21-0.59-0.33c-0.26-0.12-0.46-0.19-0.59-0.22l-0.03-0.27l1.64-0.09l0.57,4.9
				L8.8,46.06c-0.01-0.07-0.04-0.16-0.06-0.28c-0.03-0.12-0.06-0.2-0.08-0.25c-0.05-0.09-0.11-0.14-0.17-0.17
				c-0.06-0.03-0.14-0.03-0.24-0.02l-3.68,0.43c-0.09,0.01-0.16,0.03-0.21,0.07c-0.05,0.04-0.1,0.11-0.13,0.21
				c-0.02,0.07-0.04,0.16-0.05,0.28c-0.01,0.12-0.02,0.21-0.02,0.27l-0.29,0.04l-0.54-4.63L4.66,41.85z"/>
			<path class="st0" d="M9.38,32.12l-0.29,2.06c-0.53,0.24-0.96,0.46-1.32,0.67c-0.36,0.2-0.81,0.46-1.35,0.78l-0.03,0.19l1.64,0.24
				c0.09,0.01,0.17,0.01,0.23-0.01c0.07-0.03,0.12-0.08,0.18-0.17c0.02-0.04,0.05-0.1,0.09-0.18c0.03-0.09,0.06-0.17,0.08-0.25
				l0.29,0.04L8.5,38.24L8.22,38.2c0.01-0.07,0.01-0.16,0.02-0.28c0.01-0.12,0-0.21-0.01-0.26c-0.02-0.09-0.06-0.16-0.12-0.21
				c-0.05-0.04-0.13-0.07-0.23-0.09L4.2,36.84c-0.09-0.01-0.16-0.01-0.22,0.01c-0.06,0.02-0.12,0.08-0.18,0.17
				c-0.05,0.07-0.09,0.16-0.12,0.26c-0.04,0.1-0.07,0.19-0.08,0.25L3.3,37.49l0.41-2.86l0.29,0.04c0,0.08-0.01,0.17-0.01,0.28
				c0,0.11,0,0.2,0.02,0.28c0.02,0.1,0.06,0.17,0.12,0.21c0.07,0.04,0.14,0.07,0.22,0.08l1.76,0.25l0.02-0.15
				c-0.15-0.21-0.32-0.47-0.53-0.75c-0.21-0.29-0.38-0.52-0.52-0.68c-0.19-0.22-0.34-0.39-0.46-0.5C4.5,33.58,4.4,33.52,4.31,33.5
				c-0.04-0.01-0.08,0.04-0.12,0.12c-0.04,0.09-0.07,0.22-0.11,0.4L3.8,33.98l0.33-2.26l0.29,0.04c-0.01,0.28,0.01,0.51,0.05,0.71
				c0.04,0.2,0.13,0.39,0.27,0.6c0.2,0.29,0.37,0.53,0.52,0.73c0.15,0.19,0.34,0.44,0.57,0.74c0.32-0.19,0.71-0.42,1.17-0.69
				c0.46-0.27,0.91-0.54,1.35-0.81c0.11-0.07,0.22-0.15,0.33-0.24c0.11-0.09,0.2-0.2,0.27-0.32c0.04-0.06,0.07-0.12,0.09-0.2
				c0.03-0.08,0.04-0.14,0.05-0.2L9.38,32.12z"/>
			<path class="st0" d="M11.37,26.91l-1.09,2.71l-0.27-0.11c0.02-0.07,0.05-0.16,0.09-0.28c0.04-0.12,0.06-0.21,0.06-0.26
				c0-0.1-0.02-0.17-0.07-0.23c-0.04-0.05-0.11-0.1-0.2-0.14l-3.46-1.38c-0.08-0.03-0.15-0.05-0.22-0.04
				C6.14,27.18,6.07,27.22,6,27.29c-0.05,0.05-0.1,0.12-0.17,0.22c-0.07,0.1-0.12,0.19-0.16,0.25l-0.27-0.1l1.08-2.71l0.27,0.11
				c-0.02,0.07-0.04,0.16-0.07,0.27c-0.03,0.11-0.05,0.2-0.05,0.28c-0.01,0.1,0.02,0.18,0.07,0.23c0.05,0.06,0.12,0.1,0.2,0.13
				l3.46,1.39c0.08,0.04,0.16,0.05,0.23,0.04c0.07-0.01,0.15-0.04,0.21-0.12c0.04-0.04,0.09-0.11,0.16-0.21
				c0.06-0.1,0.12-0.2,0.15-0.27L11.37,26.91z"/>
			<path class="st0" d="M12.21,16.24c-0.04,0.06-0.08,0.14-0.14,0.26c-0.06,0.11-0.09,0.23-0.08,0.36c0,0.12,0.06,0.24,0.17,0.36
				c0.11,0.13,0.29,0.28,0.55,0.46l3.06,2.2l-0.38,0.53l-5.21,0.29l2,1.43c0.25,0.18,0.45,0.3,0.6,0.36
				c0.15,0.06,0.29,0.07,0.4,0.04c0.08-0.02,0.19-0.08,0.3-0.17c0.12-0.1,0.21-0.17,0.27-0.24l0.24,0.17l-1.32,1.84l-0.24-0.17
				c0.05-0.08,0.1-0.18,0.15-0.3c0.05-0.12,0.08-0.23,0.08-0.33c0-0.12-0.05-0.24-0.15-0.35c-0.1-0.12-0.28-0.27-0.56-0.47
				l-2.03-1.46c-0.1-0.07-0.21-0.12-0.32-0.16c-0.11-0.04-0.23-0.04-0.33-0.02c-0.12,0.02-0.23,0.07-0.33,0.13
				c-0.11,0.06-0.21,0.14-0.31,0.24l-0.24-0.17l1.15-1.61l4.57-0.25l-1.63-1.17c-0.26-0.18-0.46-0.3-0.61-0.36
				c-0.15-0.06-0.28-0.07-0.4-0.04c-0.09,0.03-0.19,0.08-0.3,0.17c-0.12,0.09-0.21,0.16-0.27,0.22l-0.23-0.16l1.31-1.83L12.21,16.24
				z"/>
			<path class="st0" d="M21.32,11.9c-0.06,0.05-0.1,0.11-0.14,0.15c-0.04,0.04-0.08,0.11-0.13,0.18c-0.06,0.09-0.08,0.17-0.05,0.25
				c0.02,0.08,0.05,0.14,0.11,0.21l0.38,0.48c0.08,0.09,0.14,0.17,0.19,0.23c0.05,0.06,0.11,0.13,0.18,0.22
				c-0.1,0.27-0.29,0.61-0.59,1.01c-0.29,0.4-0.6,0.74-0.92,0.99c-0.3,0.24-0.61,0.42-0.94,0.54c-0.33,0.12-0.67,0.17-1.01,0.14
				c-0.34-0.02-0.67-0.12-1-0.3c-0.33-0.17-0.63-0.43-0.9-0.77c-0.25-0.32-0.44-0.66-0.55-1.01c-0.12-0.36-0.15-0.71-0.11-1.07
				c0.04-0.35,0.16-0.69,0.35-1.03c0.2-0.33,0.47-0.64,0.81-0.91c0.23-0.19,0.47-0.33,0.71-0.43c0.25-0.1,0.46-0.17,0.64-0.21
				l0.05-0.3l0.25-0.21l1.23,1.48l-0.25,0.2c-0.51-0.34-0.95-0.52-1.33-0.58c-0.38-0.05-0.72,0.05-1.04,0.3
				c-0.37,0.3-0.52,0.69-0.47,1.17c0.06,0.48,0.31,1.01,0.77,1.58c0.48,0.6,0.96,1,1.43,1.17c0.47,0.18,0.88,0.13,1.25-0.16
				c0.17-0.14,0.3-0.28,0.39-0.44c0.09-0.16,0.14-0.3,0.16-0.42l-0.67-0.83c-0.06-0.07-0.11-0.12-0.18-0.14
				c-0.06-0.03-0.15-0.03-0.25,0c-0.08,0.02-0.17,0.05-0.27,0.11c-0.1,0.05-0.19,0.1-0.25,0.13l-0.18-0.22l2.13-1.72L21.32,11.9z"/>
			<path class="st0" d="M33.57,4.03c-0.07,0.03-0.16,0.07-0.29,0.13c-0.12,0.06-0.22,0.13-0.29,0.22c-0.08,0.08-0.11,0.21-0.11,0.37
				c0,0.16,0.05,0.4,0.13,0.71l0.51,1.89c0.15,0.55,0.08,1.05-0.21,1.49c-0.29,0.44-0.74,0.74-1.36,0.91
				c-0.73,0.19-1.33,0.18-1.82-0.04c-0.48-0.22-0.8-0.62-0.96-1.21l-0.7-2.59c-0.02-0.09-0.05-0.15-0.1-0.2
				c-0.05-0.05-0.12-0.09-0.22-0.12c-0.07-0.01-0.16-0.02-0.25-0.01c-0.1,0.01-0.17,0.01-0.23,0.02l-0.08-0.28l2.66-0.71l0.08,0.28
				c-0.08,0.03-0.15,0.05-0.22,0.09c-0.08,0.03-0.15,0.07-0.23,0.12c-0.09,0.05-0.13,0.12-0.15,0.19c-0.01,0.08-0.01,0.15,0.02,0.24
				l0.68,2.55c0.14,0.5,0.34,0.84,0.63,1.01c0.29,0.17,0.64,0.2,1.07,0.09c0.41-0.11,0.71-0.32,0.88-0.64
				c0.17-0.32,0.19-0.72,0.06-1.21L32.6,5.62c-0.08-0.31-0.17-0.53-0.25-0.67c-0.08-0.14-0.18-0.23-0.28-0.28
				c-0.08-0.03-0.2-0.05-0.36-0.05c-0.17,0-0.28,0-0.35,0.01l-0.08-0.29l2.22-0.59L33.57,4.03z"/>
			<path class="st0" d="M43.51,3.66c-0.07,0-0.17,0.02-0.3,0.03c-0.13,0.02-0.25,0.07-0.35,0.14c-0.09,0.07-0.16,0.18-0.2,0.34
				c-0.04,0.16-0.06,0.4-0.07,0.71l-0.05,3.77l-0.66-0.01l-3.21-4.12L38.64,7c0,0.31,0.01,0.54,0.05,0.7
				c0.04,0.16,0.1,0.28,0.19,0.35c0.07,0.06,0.17,0.1,0.32,0.15c0.14,0.05,0.26,0.08,0.35,0.09l0,0.29l-2.26-0.03l0-0.28
				c0.1-0.01,0.2-0.03,0.33-0.05c0.13-0.03,0.23-0.07,0.31-0.12c0.1-0.07,0.16-0.18,0.2-0.32c0.04-0.14,0.06-0.39,0.06-0.73
				l0.04-2.5c0-0.13-0.01-0.24-0.05-0.35c-0.04-0.11-0.09-0.21-0.17-0.29c-0.09-0.09-0.18-0.15-0.29-0.2
				c-0.11-0.05-0.24-0.09-0.38-0.12V3.28l1.98,0.03l2.82,3.61l0.03-2c0-0.32-0.01-0.55-0.05-0.71c-0.04-0.16-0.11-0.27-0.2-0.35
				c-0.07-0.05-0.18-0.11-0.31-0.15c-0.14-0.04-0.25-0.07-0.34-0.09l0.01-0.28l2.25,0.03L43.51,3.66z"/>
			<path class="st0" d="M49.18,9.95l-2.83-0.73l0.07-0.28c0.06,0.01,0.16,0.03,0.29,0.05c0.13,0.02,0.22,0.03,0.27,0.02
				c0.1-0.01,0.17-0.04,0.22-0.1c0.05-0.05,0.08-0.12,0.11-0.21l0.94-3.61c0.02-0.08,0.02-0.16,0.01-0.23
				c-0.02-0.07-0.06-0.13-0.15-0.2c-0.05-0.04-0.13-0.08-0.23-0.14c-0.1-0.05-0.2-0.1-0.28-0.13l0.07-0.28l2.83,0.73l-0.07,0.28
				c-0.07-0.01-0.16-0.03-0.27-0.04c-0.11-0.01-0.21-0.02-0.29-0.01c-0.1,0.01-0.18,0.04-0.23,0.1c-0.05,0.06-0.08,0.13-0.1,0.21
				L48.59,9c-0.02,0.08-0.02,0.16-0.01,0.23c0.02,0.07,0.07,0.14,0.15,0.2c0.04,0.04,0.12,0.08,0.23,0.13
				c0.11,0.05,0.21,0.08,0.28,0.11L49.18,9.95z"/>
			<path class="st0" d="M59.53,9.25c-0.08-0.03-0.15-0.05-0.23-0.07c-0.08-0.02-0.16-0.02-0.25-0.02c-0.12,0-0.23,0.02-0.31,0.06
				c-0.08,0.04-0.18,0.09-0.29,0.17c-0.15,0.12-0.36,0.28-0.63,0.51c-0.28,0.22-0.59,0.47-0.94,0.76c-0.31,0.26-0.66,0.54-1.03,0.85
				c-0.37,0.3-0.73,0.61-1.07,0.88l-0.65-0.35c0.09-0.91,0.18-1.84,0.28-2.78c0.1-0.94,0.16-1.59,0.19-1.97
				c0.01-0.13,0.01-0.24-0.01-0.32c-0.02-0.08-0.06-0.18-0.13-0.29c-0.05-0.08-0.1-0.14-0.15-0.19c-0.05-0.04-0.12-0.1-0.2-0.16
				l0.14-0.26l2.52,1.33l-0.13,0.25c-0.25-0.1-0.44-0.16-0.54-0.17c-0.1-0.01-0.17,0-0.19,0.05c-0.01,0.03-0.02,0.05-0.03,0.08
				c-0.01,0.03-0.01,0.07-0.03,0.13c-0.03,0.23-0.07,0.61-0.12,1.15c-0.05,0.54-0.13,1.36-0.24,2.45c0.51-0.43,0.95-0.8,1.3-1.1
				c0.35-0.3,0.66-0.57,0.92-0.8c0.13-0.11,0.25-0.22,0.35-0.32c0.1-0.1,0.17-0.18,0.2-0.24c0.04-0.07,0.02-0.15-0.06-0.26
				c-0.08-0.1-0.25-0.24-0.51-0.4l0.14-0.26l1.89,1L59.53,9.25z"/>
			<path class="st0" d="M65.25,15.36l-0.21-0.2c0.09-0.2,0.13-0.43,0.14-0.7c0.01-0.27-0.03-0.47-0.13-0.62
				c-0.04-0.07-0.11-0.14-0.21-0.23c-0.09-0.1-0.17-0.17-0.24-0.23l-0.56-0.51l-1.37,1.5l0.39,0.37c0.1,0.09,0.2,0.16,0.3,0.21
				c0.1,0.05,0.22,0.08,0.35,0.07c0.08,0,0.19-0.04,0.32-0.11c0.14-0.07,0.25-0.13,0.34-0.2l0.21,0.19l-1.47,1.62l-0.21-0.2
				c0.06-0.08,0.12-0.21,0.18-0.36c0.06-0.16,0.09-0.28,0.09-0.36c0-0.12-0.03-0.23-0.08-0.33c-0.06-0.1-0.14-0.2-0.25-0.29
				l-0.4-0.36l-1.02,1.12c-0.11,0.12-0.18,0.22-0.23,0.3c-0.04,0.08-0.06,0.17-0.04,0.25c0.01,0.07,0.05,0.16,0.12,0.24
				c0.07,0.08,0.17,0.19,0.31,0.32c0.06,0.05,0.14,0.13,0.23,0.21c0.09,0.08,0.17,0.14,0.25,0.2c0.08,0.06,0.17,0.11,0.25,0.16
				c0.09,0.04,0.16,0.06,0.22,0.06c0.17-0.01,0.39-0.06,0.66-0.14c0.28-0.09,0.47-0.15,0.59-0.22l0.2,0.18l-1.18,1.14l-3.64-3.32
				l0.2-0.21c0.05,0.04,0.13,0.1,0.23,0.17c0.1,0.07,0.17,0.11,0.22,0.13c0.1,0.04,0.18,0.04,0.24,0.02
				c0.07-0.02,0.13-0.07,0.19-0.14l2.5-2.74c0.06-0.06,0.1-0.13,0.12-0.19c0.02-0.06,0.01-0.15-0.04-0.25
				c-0.03-0.06-0.08-0.14-0.15-0.24c-0.07-0.1-0.12-0.17-0.16-0.22l0.19-0.21l3.44,3.14L65.25,15.36z"/>
			<path class="st0" d="M67.98,25.69l-1.09-1.7c0.26-0.58,0.46-1.05,0.6-1.41c0.14-0.37,0.29-0.81,0.45-1.32l-0.1-0.16l-1.33,0.86
				c-0.08,0.05-0.13,0.1-0.17,0.16c-0.03,0.06-0.04,0.14-0.03,0.25c0.01,0.05,0.03,0.12,0.07,0.22c0.04,0.09,0.07,0.17,0.1,0.24
				l-0.24,0.16l-1.53-2.36l0.24-0.16c0.04,0.06,0.11,0.13,0.18,0.23c0.08,0.09,0.13,0.15,0.18,0.18c0.08,0.06,0.16,0.08,0.23,0.08
				c0.07,0,0.14-0.03,0.22-0.09l3.12-2.01c0.07-0.05,0.12-0.1,0.16-0.16c0.04-0.05,0.04-0.14,0.03-0.25
				c-0.02-0.09-0.05-0.18-0.09-0.28c-0.04-0.1-0.07-0.18-0.1-0.24l0.24-0.16l1.6,2.48c0.36,0.56,0.54,1.03,0.56,1.43
				c0.01,0.4-0.16,0.71-0.51,0.94c-0.31,0.2-0.62,0.27-0.92,0.22c-0.3-0.06-0.63-0.23-0.96-0.53c-0.09,0.26-0.2,0.56-0.32,0.9
				c-0.12,0.34-0.24,0.7-0.36,1.06c-0.04,0.12-0.08,0.27-0.13,0.46c-0.05,0.19-0.05,0.33-0.03,0.43c0.02,0.06,0.04,0.12,0.08,0.2
				c0.04,0.08,0.06,0.14,0.08,0.17L67.98,25.69z M69.9,21.45c0.3-0.19,0.46-0.41,0.49-0.67c0.03-0.25-0.05-0.53-0.25-0.83
				l-0.16-0.25l-1.85,1.19l0.15,0.24c0.2,0.3,0.43,0.49,0.7,0.55C69.25,21.75,69.56,21.67,69.9,21.45z"/>
			<path class="st0" d="M69.45,30c-0.1-0.3-0.16-0.6-0.17-0.89c-0.01-0.29,0-0.54,0.04-0.76l-0.33-0.16l-0.1-0.3l1.79-0.64l0.1,0.3
				c-0.15,0.13-0.3,0.27-0.45,0.44c-0.15,0.17-0.28,0.35-0.38,0.54c-0.11,0.19-0.18,0.4-0.22,0.61c-0.04,0.21-0.02,0.43,0.06,0.67
				c0.11,0.32,0.26,0.54,0.48,0.66c0.21,0.12,0.44,0.14,0.67,0.06c0.19-0.06,0.33-0.19,0.41-0.38c0.08-0.19,0.12-0.45,0.12-0.78
				c0-0.22,0-0.42,0-0.6c0-0.18,0-0.36,0.01-0.52c0.02-0.38,0.13-0.69,0.33-0.94c0.19-0.25,0.45-0.43,0.75-0.52
				c0.19-0.07,0.39-0.09,0.6-0.06c0.21,0.02,0.41,0.09,0.61,0.21c0.19,0.11,0.36,0.27,0.52,0.48c0.17,0.21,0.3,0.46,0.39,0.74
				c0.09,0.28,0.14,0.55,0.15,0.82c0.01,0.27-0.01,0.48-0.04,0.65l0.28,0.14l0.1,0.31l-1.69,0.6l-0.1-0.3
				c0.16-0.13,0.32-0.28,0.47-0.44c0.16-0.16,0.28-0.31,0.37-0.46c0.1-0.16,0.16-0.33,0.19-0.5c0.03-0.18,0.01-0.37-0.06-0.57
				c-0.08-0.25-0.23-0.43-0.42-0.55c-0.2-0.11-0.4-0.14-0.61-0.06c-0.2,0.07-0.34,0.19-0.41,0.37c-0.08,0.18-0.12,0.44-0.11,0.76
				c0,0.2,0,0.39,0,0.59c0,0.2,0,0.38-0.01,0.54c-0.01,0.38-0.11,0.7-0.28,0.96c-0.17,0.26-0.43,0.44-0.77,0.55
				c-0.21,0.07-0.44,0.09-0.68,0.06c-0.24-0.04-0.45-0.11-0.64-0.24c-0.21-0.14-0.4-0.32-0.56-0.54C69.7,30.61,69.56,30.33,69.45,30
				z"/>
			<path class="st0" d="M71.17,38.09l-0.3-2.9l0.29-0.03c0.01,0.06,0.03,0.16,0.05,0.29c0.03,0.13,0.05,0.22,0.07,0.26
				c0.04,0.09,0.1,0.15,0.17,0.17c0.06,0.03,0.14,0.04,0.23,0.03l3.71-0.38c0.08-0.01,0.16-0.03,0.22-0.07
				c0.06-0.04,0.1-0.11,0.13-0.2c0.02-0.06,0.04-0.15,0.05-0.27c0.01-0.12,0.02-0.22,0.02-0.3l0.29-0.03l0.3,2.9l-0.29,0.03
				c-0.02-0.07-0.04-0.17-0.06-0.27c-0.02-0.11-0.05-0.2-0.09-0.28c-0.04-0.09-0.1-0.15-0.17-0.17c-0.07-0.03-0.15-0.04-0.24-0.03
				l-3.7,0.38c-0.09,0.01-0.16,0.03-0.23,0.07c-0.06,0.04-0.1,0.11-0.13,0.2c-0.02,0.05-0.03,0.14-0.04,0.26
				c-0.01,0.12-0.01,0.22,0,0.3L71.17,38.09z"/>
			<path class="st0" d="M74.4,46.59l0.03-0.29c0.23-0.05,0.48-0.14,0.76-0.28c0.28-0.14,0.43-0.27,0.47-0.42
				c0.02-0.07,0.04-0.18,0.06-0.29c0.02-0.12,0.04-0.21,0.04-0.29l0.02-0.18l-4.09-0.49c-0.09-0.01-0.17,0-0.24,0.02
				c-0.07,0.03-0.13,0.08-0.18,0.17c-0.02,0.05-0.06,0.14-0.1,0.25c-0.04,0.12-0.07,0.22-0.08,0.3l-0.29-0.03l0.35-2.92l0.29,0.03
				c0,0.07,0,0.18,0,0.3c0,0.13,0,0.22,0.02,0.27c0.03,0.1,0.07,0.17,0.13,0.21c0.06,0.04,0.14,0.06,0.23,0.08l4.13,0.49l0.02-0.17
				c0.01-0.08,0.02-0.18,0.02-0.3c0.01-0.11,0.01-0.21,0.01-0.29c0-0.14-0.12-0.32-0.36-0.51c-0.23-0.2-0.46-0.35-0.67-0.45
				L75,41.52l1.5,0.18l-0.6,5.06L74.4,46.59z"/>
			<path class="st0" d="M72.69,55.69c0.02-0.09,0.04-0.17,0.04-0.24c0-0.08,0-0.16-0.01-0.23c-0.02-0.12-0.05-0.24-0.11-0.34
				c-0.06-0.11-0.13-0.23-0.2-0.34c-0.16-0.23-0.34-0.48-0.53-0.74c-0.2-0.26-0.41-0.55-0.64-0.86c-0.15-0.2-0.27-0.34-0.36-0.41
				c-0.1-0.07-0.27-0.15-0.53-0.25l-0.7-0.27c-0.08-0.03-0.16-0.05-0.24-0.04c-0.07,0.01-0.15,0.05-0.22,0.12
				c-0.03,0.04-0.08,0.11-0.16,0.22c-0.07,0.12-0.13,0.21-0.15,0.26l-0.28-0.1l1.06-2.75l0.27,0.1c-0.02,0.07-0.05,0.17-0.08,0.29
				c-0.03,0.13-0.05,0.22-0.05,0.28c0,0.1,0.03,0.18,0.08,0.23c0.05,0.05,0.12,0.1,0.21,0.13l0.87,0.33
				c0.08,0.03,0.14,0.05,0.2,0.07c0.06,0.02,0.11,0.03,0.15,0.03c0.05,0,0.12,0,0.2-0.02c0.08-0.01,0.19-0.03,0.32-0.05
				c0.38-0.06,0.74-0.11,1.08-0.17c0.34-0.06,0.67-0.12,0.97-0.17c0.15-0.03,0.29-0.07,0.4-0.12c0.11-0.05,0.2-0.11,0.28-0.17
				c0.06-0.05,0.11-0.11,0.17-0.2c0.05-0.08,0.09-0.15,0.13-0.22l0.27,0.11l-1.08,2.81l-0.27-0.1c0.09-0.26,0.14-0.45,0.15-0.54
				c0.01-0.1-0.02-0.17-0.07-0.18c-0.02-0.01-0.08-0.01-0.17-0.01c-0.09,0.01-0.23,0.02-0.42,0.04c-0.18,0.02-0.43,0.06-0.75,0.1
				c-0.32,0.05-0.7,0.12-1.13,0.2c0.53,0.71,0.9,1.19,1.11,1.46c0.22,0.27,0.35,0.42,0.42,0.44c0.08,0.03,0.16,0,0.24-0.08
				c0.08-0.08,0.16-0.22,0.25-0.43l0.27,0.1l-0.69,1.82L72.69,55.69z"/>
		</g>
		<path class="st0" d="M67.02,39.89c0,14.98-12.15,27.13-27.13,27.13c-14.99,0-27.14-12.15-27.14-27.13
			c0-14.99,12.15-27.14,27.14-27.14C54.88,12.76,67.02,24.9,67.02,39.89z M35.91,17.15c-1.18,0-2.14,0.96-2.14,2.14v2.78
			c-2.24,0.51-4.51,1.35-6.78,2.5c-2.58,1.3-5.11,2.99-7.34,4.9c-0.87,0.74-0.97,2.05-0.23,2.92c0.75,0.87,2.05,0.97,2.92,0.23
			c3.49-2.99,7.54-5.2,11.42-6.27v4.76c-2.7,0.88-5.34,2.37-7.87,4.46c-2.84,2.35-5.49,5.39-7.87,9.05
			c-0.23,0.35-0.34,0.74-0.34,1.13c0,0.68,0.34,1.34,0.95,1.74c0.96,0.62,2.24,0.35,2.86-0.61c2.15-3.31,4.51-6.04,7.03-8.11
			c2.57-2.12,5.41-3.57,7.9-4.1c1.11-0.24,1.62-1.26,1.62-1.97c0-0.11,0-0.5,0-1.08c0-3.21,0-12.25,0-12.25v-0.07
			C38.05,18.11,37.09,17.15,35.91,17.15z M41.73,19.29v0.07c0,0,0,9.04,0,12.25c0,0.58,0,0.97,0,1.08c0,0.71,0.51,1.73,1.62,1.97
			c2.49,0.53,5.33,1.98,7.89,4.1c2.52,2.08,4.88,4.8,7.03,8.11c0.62,0.96,1.91,1.23,2.87,0.61c0.61-0.4,0.94-1.06,0.94-1.74
			c0-0.39-0.11-0.78-0.33-1.13c-2.38-3.66-5.02-6.7-7.87-9.05c-2.52-2.09-5.16-3.58-7.86-4.46v-4.76c3.89,1.07,7.94,3.28,11.43,6.27
			c0.87,0.74,2.18,0.64,2.92-0.23c0.75-0.87,0.64-2.18-0.23-2.92c-2.23-1.91-4.77-3.6-7.34-4.9c-2.27-1.15-4.54-1.98-6.78-2.5v-2.78
			c0-1.18-0.96-2.14-2.14-2.14C42.69,17.15,41.73,18.11,41.73,19.29z M56.76,53.68c-0.9-2.1-1.92-4.03-3.04-5.75
			c-1.17-1.81-2.46-3.38-3.81-4.68c-1.46-1.39-3.01-2.47-4.62-3.21c-1.06-0.49-2.15-0.83-3.25-1.02v-1.26
			c0-1.18-0.96-2.15-2.15-2.15c-1.18,0-2.14,0.96-2.14,2.15v1.26c-1.1,0.19-2.19,0.53-3.24,1.02c-1.61,0.74-3.16,1.82-4.62,3.21
			c-1.35,1.29-2.64,2.87-3.81,4.68c-1.12,1.71-2.14,3.65-3.04,5.75c-0.45,1.05,0.04,2.27,1.09,2.73c1.05,0.45,2.27-0.04,2.72-1.09
			c1.62-3.8,3.67-6.93,5.91-9.06c1.61-1.54,3.29-2.54,5-2.99v3.37c0,1.16-0.85,1.61-1.25,1.85c-0.13,0.08-0.4,0.24-0.52,0.32
			c-0.8,0.52-1.71,1.31-2.56,2.41c-1.54,1.98-2.74,4.67-3.38,7.59c-0.25,1.12,0.46,2.22,1.58,2.47c1.12,0.24,2.22-0.46,2.47-1.58
			c0.51-2.32,1.43-4.43,2.6-5.92c0.59-0.76,1.81-2.05,3.21-2.05c1.41,0,2.62,1.28,3.21,2.05c1.17,1.5,2.09,3.6,2.6,5.92
			c0.24,1.12,1.35,1.83,2.46,1.58c1.12-0.24,1.83-1.34,1.59-2.47c-0.63-2.92-1.84-5.61-3.38-7.59c-0.85-1.1-1.77-1.89-2.56-2.41
			c-0.13-0.08-0.4-0.24-0.53-0.32c-0.39-0.24-1.24-0.69-1.24-1.85v-3.37c1.72,0.45,3.39,1.45,5,2.99c2.24,2.13,4.28,5.27,5.91,9.06
			c0.45,1.05,1.67,1.54,2.72,1.09C56.72,55.95,57.21,54.73,56.76,53.68z"/>
	</g>
	<g>
		<g>
			<g>
				<path d="M105.81,67.43c0,0.67-0.13,1.25-0.39,1.76c-0.26,0.51-0.62,0.94-1.08,1.27c-0.45,0.34-0.95,0.58-1.49,0.74
					c-0.54,0.16-1.12,0.23-1.73,0.23H99.7v3.85c0,0.21,0.03,0.39,0.1,0.55c0.07,0.16,0.21,0.28,0.43,0.36
					c0.11,0.04,0.3,0.08,0.57,0.11c0.27,0.04,0.53,0.06,0.76,0.06v0.64h-5.45v-0.64c0.14-0.01,0.34-0.03,0.61-0.06
					c0.27-0.03,0.46-0.07,0.56-0.11c0.18-0.08,0.3-0.19,0.38-0.34c0.08-0.15,0.12-0.34,0.12-0.57v-9.19c0-0.21-0.03-0.4-0.09-0.56
					c-0.06-0.17-0.2-0.29-0.42-0.38c-0.23-0.08-0.45-0.13-0.67-0.16c-0.22-0.03-0.41-0.06-0.57-0.07v-0.64h5.8
					c1.18,0,2.14,0.28,2.88,0.86C105.45,65.71,105.81,66.47,105.81,67.43z M103.08,69.59c0.2-0.29,0.33-0.58,0.4-0.89
					c0.07-0.31,0.1-0.58,0.1-0.83c0-0.34-0.04-0.69-0.12-1.04c-0.08-0.35-0.22-0.66-0.41-0.92c-0.21-0.28-0.48-0.5-0.82-0.65
					c-0.34-0.15-0.76-0.23-1.27-0.23H99.7v5.61h0.91c0.64,0,1.16-0.1,1.56-0.3C102.58,70.13,102.88,69.89,103.08,69.59z"/>
				<path d="M117.97,73.27l-0.24,3.75h-10.55v-0.64c0.18-0.01,0.42-0.04,0.72-0.08c0.3-0.04,0.49-0.08,0.58-0.12
					c0.19-0.09,0.32-0.21,0.4-0.35c0.08-0.14,0.11-0.33,0.11-0.55v-9.15c0-0.2-0.03-0.37-0.1-0.52c-0.06-0.15-0.2-0.28-0.41-0.37
					c-0.16-0.08-0.38-0.15-0.65-0.21c-0.27-0.06-0.49-0.09-0.65-0.11v-0.64h9.83v3.06h-0.66c-0.12-0.44-0.38-0.92-0.78-1.42
					c-0.4-0.5-0.78-0.78-1.13-0.82c-0.19-0.02-0.41-0.04-0.66-0.05c-0.26-0.01-0.55-0.02-0.88-0.02h-2v5.02h1.43
					c0.46,0,0.79-0.04,1-0.13c0.21-0.08,0.4-0.23,0.56-0.43c0.13-0.17,0.24-0.4,0.33-0.69c0.09-0.29,0.16-0.56,0.18-0.82h0.67v5
					h-0.67c-0.02-0.29-0.09-0.59-0.19-0.91c-0.1-0.32-0.21-0.55-0.32-0.7c-0.18-0.23-0.39-0.38-0.63-0.46
					c-0.23-0.07-0.54-0.11-0.93-0.11h-1.43v3.8c0,0.38,0.03,0.68,0.08,0.9c0.05,0.22,0.16,0.39,0.32,0.5
					c0.15,0.11,0.36,0.19,0.63,0.22c0.27,0.03,0.65,0.05,1.14,0.05c0.2,0,0.46,0,0.78,0c0.32,0,0.59-0.01,0.81-0.04
					c0.22-0.02,0.46-0.07,0.7-0.13c0.24-0.06,0.41-0.14,0.51-0.25c0.27-0.29,0.56-0.72,0.86-1.3c0.3-0.58,0.49-1.01,0.58-1.28
					H117.97z"/>
				<path d="M131.08,77.01h-3.57c-0.69-1.06-1.45-2.12-2.29-3.17c-0.84-1.05-1.72-2.06-2.64-3.05h-0.23v4.42
					c0,0.2,0.04,0.37,0.11,0.53c0.08,0.16,0.21,0.28,0.4,0.38c0.09,0.04,0.27,0.09,0.52,0.15c0.26,0.06,0.47,0.09,0.64,0.1v0.64
					h-5.26v-0.64c0.14-0.01,0.34-0.03,0.6-0.05c0.26-0.03,0.45-0.06,0.56-0.11c0.18-0.08,0.31-0.19,0.39-0.34
					c0.08-0.15,0.12-0.34,0.12-0.55v-9.18c0-0.2-0.03-0.38-0.11-0.53c-0.07-0.15-0.2-0.27-0.41-0.37c-0.16-0.08-0.35-0.15-0.58-0.21
					c-0.22-0.06-0.42-0.09-0.58-0.11v-0.64h5.26v0.64c-0.17,0-0.37,0.03-0.62,0.08c-0.25,0.05-0.43,0.09-0.55,0.14
					c-0.2,0.07-0.34,0.19-0.41,0.36c-0.07,0.17-0.11,0.35-0.11,0.55v4.4h0.18c0.54-0.46,1.07-0.93,1.59-1.42
					c0.52-0.5,0.99-0.99,1.42-1.48c0.47-0.55,0.82-0.98,1.04-1.31c0.22-0.33,0.33-0.62,0.33-0.87c0-0.09-0.06-0.16-0.17-0.22
					c-0.11-0.06-0.24-0.1-0.38-0.14c-0.17-0.03-0.32-0.05-0.45-0.07c-0.13-0.01-0.24-0.02-0.32-0.02v-0.64h4.77v0.64
					c-0.02,0-0.06,0-0.12,0.01c-0.06,0.01-0.13,0.01-0.21,0.02c-0.08,0-0.17,0.02-0.25,0.04c-0.08,0.02-0.19,0.04-0.32,0.06
					c-0.21,0.05-0.42,0.13-0.65,0.23c-0.22,0.1-0.41,0.24-0.55,0.39c-0.61,0.7-1.25,1.43-1.92,2.18c-0.67,0.75-1.33,1.43-1.99,2.05
					c0.91,1.03,1.66,1.91,2.26,2.65c0.6,0.74,1.23,1.53,1.9,2.37c0.26,0.32,0.51,0.58,0.77,0.77c0.26,0.19,0.48,0.34,0.66,0.43
					c0.15,0.08,0.35,0.14,0.58,0.18c0.23,0.04,0.42,0.07,0.58,0.07V77.01z"/>
				<path d="M137.46,77.01h-5.74v-0.64c0.16-0.01,0.4-0.03,0.7-0.05c0.3-0.03,0.52-0.06,0.65-0.11c0.2-0.08,0.34-0.18,0.43-0.32
					c0.09-0.13,0.14-0.32,0.14-0.56v-9.22c0-0.21-0.04-0.38-0.1-0.52c-0.07-0.14-0.22-0.26-0.47-0.36c-0.18-0.07-0.41-0.14-0.68-0.2
					c-0.27-0.06-0.5-0.1-0.67-0.11v-0.64h5.74v0.64c-0.19,0-0.41,0.03-0.67,0.07c-0.25,0.04-0.48,0.09-0.67,0.15
					c-0.23,0.07-0.38,0.19-0.46,0.35c-0.08,0.16-0.12,0.34-0.12,0.54v9.21c0,0.2,0.04,0.37,0.13,0.53c0.09,0.15,0.23,0.27,0.44,0.36
					c0.13,0.05,0.33,0.1,0.62,0.16c0.28,0.06,0.52,0.09,0.72,0.09V77.01z"/>
				<path d="M151.71,64.92c-0.17,0-0.43,0.05-0.78,0.14c-0.35,0.09-0.6,0.19-0.75,0.28c-0.22,0.15-0.36,0.43-0.44,0.86
					c-0.08,0.43-0.11,0.96-0.11,1.62v9.33h-0.79l-7.72-10.42v6.57c0,0.74,0.05,1.3,0.14,1.69c0.09,0.4,0.23,0.68,0.42,0.84
					c0.14,0.13,0.42,0.26,0.85,0.37c0.43,0.11,0.71,0.17,0.85,0.18v0.64h-5.21v-0.64c0.16-0.01,0.43-0.07,0.81-0.17
					c0.38-0.11,0.62-0.2,0.72-0.28c0.21-0.17,0.35-0.42,0.43-0.77c0.08-0.35,0.12-0.93,0.12-1.76v-6.27c0-0.28-0.05-0.55-0.14-0.83
					c-0.1-0.27-0.22-0.49-0.38-0.64c-0.21-0.2-0.51-0.37-0.87-0.51c-0.37-0.14-0.66-0.21-0.89-0.23v-0.64h3.63l7.16,9.71v-6.06
					c0-0.74-0.05-1.31-0.14-1.71c-0.09-0.4-0.23-0.66-0.41-0.79c-0.17-0.11-0.44-0.23-0.82-0.33c-0.38-0.11-0.67-0.17-0.86-0.18
					v-0.64h5.18V64.92z"/>
				<path d="M165.06,71.91c-0.15,0.02-0.34,0.05-0.58,0.08c-0.25,0.04-0.44,0.09-0.59,0.17c-0.18,0.09-0.31,0.22-0.38,0.38
					c-0.08,0.17-0.11,0.36-0.11,0.58v0.99c0,0.72,0,1.21,0.01,1.46c0.01,0.25,0.02,0.46,0.03,0.62c-0.79,0.36-1.58,0.64-2.37,0.83
					c-0.79,0.19-1.56,0.29-2.32,0.29c-0.81,0-1.59-0.15-2.34-0.46c-0.75-0.31-1.41-0.74-1.97-1.3c-0.57-0.57-1.02-1.26-1.35-2.07
					c-0.34-0.82-0.5-1.72-0.5-2.73c0-0.97,0.16-1.87,0.48-2.7c0.32-0.83,0.77-1.55,1.35-2.16c0.57-0.6,1.24-1.06,2.03-1.4
					c0.79-0.33,1.63-0.5,2.52-0.5c0.72,0,1.34,0.09,1.87,0.27c0.53,0.18,1,0.39,1.4,0.63l0.37-0.61h0.72l0.08,4.44h-0.74
					c-0.13-0.49-0.28-0.98-0.47-1.46c-0.18-0.48-0.42-0.9-0.71-1.29c-0.29-0.38-0.65-0.68-1.07-0.9c-0.42-0.23-0.92-0.34-1.5-0.34
					c-0.64,0-1.21,0.13-1.71,0.39c-0.5,0.26-0.94,0.65-1.3,1.16c-0.36,0.5-0.64,1.12-0.84,1.86c-0.2,0.74-0.3,1.57-0.3,2.49
					c0,0.81,0.1,1.57,0.29,2.29c0.19,0.72,0.48,1.33,0.85,1.86c0.37,0.53,0.83,0.95,1.39,1.26c0.56,0.31,1.19,0.46,1.89,0.46
					c0.53,0,1-0.08,1.44-0.24c0.43-0.16,0.74-0.33,0.92-0.51c0.04-0.31,0.07-0.63,0.08-0.94c0-0.32,0-0.59,0-0.81v-0.7
					c0-0.25-0.04-0.48-0.1-0.67c-0.07-0.2-0.21-0.34-0.43-0.43c-0.2-0.09-0.46-0.16-0.8-0.2c-0.34-0.04-0.6-0.07-0.79-0.08v-0.64
					h5.58V71.91z"/>
				<path d="M183.37,64.92c-0.17,0-0.42,0.04-0.74,0.11c-0.32,0.06-0.59,0.16-0.79,0.29c-0.21,0.14-0.35,0.42-0.42,0.85
					c-0.08,0.43-0.12,0.96-0.12,1.58v5.53c0,0.7-0.14,1.32-0.44,1.83c-0.29,0.52-0.68,0.95-1.16,1.28c-0.47,0.32-0.97,0.55-1.5,0.69
					c-0.52,0.14-1.02,0.21-1.5,0.21c-0.77,0-1.45-0.1-2.05-0.3c-0.6-0.2-1.1-0.47-1.5-0.81c-0.4-0.34-0.7-0.73-0.91-1.17
					c-0.2-0.44-0.3-0.9-0.3-1.38v-7.52c0-0.21-0.03-0.38-0.1-0.52c-0.07-0.14-0.21-0.27-0.42-0.39c-0.15-0.08-0.34-0.15-0.58-0.2
					c-0.23-0.05-0.42-0.08-0.58-0.09v-0.64h5.26v0.64c-0.16,0-0.37,0.03-0.62,0.08c-0.25,0.05-0.43,0.09-0.55,0.13
					c-0.2,0.07-0.33,0.19-0.4,0.36c-0.07,0.17-0.1,0.35-0.1,0.55v7.02c0,0.34,0.04,0.7,0.11,1.07c0.07,0.37,0.22,0.72,0.44,1.04
					c0.23,0.33,0.55,0.6,0.96,0.81c0.4,0.21,0.95,0.31,1.66,0.31c0.66,0,1.21-0.1,1.66-0.31c0.45-0.21,0.8-0.49,1.06-0.83
					c0.25-0.32,0.42-0.66,0.52-1.01c0.1-0.35,0.15-0.71,0.15-1.07v-5.21c0-0.66-0.05-1.21-0.14-1.63c-0.1-0.42-0.24-0.7-0.42-0.83
					c-0.21-0.15-0.5-0.27-0.86-0.35c-0.36-0.08-0.64-0.13-0.83-0.14v-0.64h5.21V64.92z"/>
				<path d="M197.69,64.92c-0.17,0-0.43,0.05-0.78,0.14c-0.35,0.09-0.6,0.19-0.75,0.28c-0.21,0.15-0.36,0.43-0.44,0.86
					c-0.07,0.43-0.11,0.96-0.11,1.62v9.33h-0.79l-7.72-10.42v6.57c0,0.74,0.05,1.3,0.14,1.69c0.09,0.4,0.23,0.68,0.43,0.84
					c0.13,0.13,0.42,0.26,0.84,0.37c0.43,0.11,0.71,0.17,0.85,0.18v0.64h-5.21v-0.64c0.16-0.01,0.43-0.07,0.81-0.17
					c0.38-0.11,0.62-0.2,0.71-0.28c0.21-0.17,0.35-0.42,0.43-0.77c0.07-0.35,0.12-0.93,0.12-1.76v-6.27c0-0.28-0.05-0.55-0.14-0.83
					c-0.09-0.27-0.22-0.49-0.38-0.64c-0.21-0.2-0.5-0.37-0.87-0.51c-0.37-0.14-0.66-0.21-0.89-0.23v-0.64h3.63l7.16,9.71v-6.06
					c0-0.74-0.05-1.31-0.14-1.71c-0.1-0.4-0.23-0.66-0.41-0.79c-0.17-0.11-0.44-0.23-0.82-0.33c-0.38-0.11-0.66-0.17-0.86-0.18
					v-0.64h5.18V64.92z"/>
				<path d="M203.92,77.01h-5.74v-0.64c0.16-0.01,0.39-0.03,0.7-0.05c0.31-0.03,0.52-0.06,0.65-0.11c0.2-0.08,0.34-0.18,0.43-0.32
					c0.09-0.13,0.13-0.32,0.13-0.56v-9.22c0-0.21-0.03-0.38-0.1-0.52c-0.07-0.14-0.22-0.26-0.47-0.36c-0.18-0.07-0.41-0.14-0.68-0.2
					c-0.27-0.06-0.5-0.1-0.67-0.11v-0.64h5.74v0.64c-0.19,0-0.41,0.03-0.66,0.07c-0.26,0.04-0.48,0.09-0.67,0.15
					c-0.23,0.07-0.38,0.19-0.46,0.35c-0.08,0.16-0.12,0.34-0.12,0.54v9.21c0,0.2,0.04,0.37,0.13,0.53c0.09,0.15,0.24,0.27,0.45,0.36
					c0.13,0.05,0.33,0.1,0.61,0.16c0.29,0.06,0.53,0.09,0.72,0.09V77.01z"/>
				<path d="M217.36,64.92c-0.16,0-0.34,0.04-0.57,0.1c-0.22,0.06-0.4,0.14-0.55,0.23c-0.21,0.13-0.37,0.29-0.49,0.48
					c-0.12,0.2-0.24,0.43-0.36,0.7c-0.4,0.95-1,2.43-1.81,4.44c-0.8,2.01-1.63,4.11-2.48,6.29h-0.75c-0.86-2.31-1.69-4.54-2.49-6.69
					c-0.8-2.15-1.35-3.6-1.63-4.35c-0.07-0.19-0.17-0.35-0.29-0.49c-0.12-0.14-0.28-0.27-0.47-0.4c-0.16-0.1-0.34-0.18-0.54-0.23
					c-0.2-0.05-0.38-0.08-0.54-0.09v-0.64h5.26v0.64c-0.45,0.02-0.82,0.07-1.13,0.13c-0.31,0.07-0.46,0.18-0.46,0.35
					c0,0.07,0.01,0.15,0.04,0.23c0.02,0.09,0.04,0.16,0.06,0.22c0.22,0.59,0.58,1.54,1.08,2.87c0.5,1.33,1.2,3.22,2.12,5.66
					c0.46-1.11,0.98-2.42,1.57-3.92c0.59-1.51,0.99-2.54,1.2-3.11c0.19-0.55,0.31-0.92,0.34-1.13c0.03-0.21,0.05-0.38,0.05-0.51
					c0-0.14-0.06-0.25-0.18-0.35c-0.12-0.09-0.29-0.17-0.49-0.24c-0.2-0.06-0.4-0.11-0.6-0.14c-0.2-0.03-0.41-0.05-0.62-0.07v-0.64
					h4.74V64.92z"/>
				<path d="M228.54,73.27l-0.24,3.75h-10.55v-0.64c0.18-0.01,0.42-0.04,0.72-0.08c0.3-0.04,0.49-0.08,0.58-0.12
					c0.19-0.09,0.32-0.21,0.4-0.35c0.08-0.14,0.11-0.33,0.11-0.55v-9.15c0-0.2-0.03-0.37-0.1-0.52s-0.2-0.28-0.41-0.37
					c-0.16-0.08-0.38-0.15-0.65-0.21c-0.27-0.06-0.49-0.09-0.65-0.11v-0.64h9.83v3.06h-0.67c-0.12-0.44-0.38-0.92-0.77-1.42
					c-0.4-0.5-0.78-0.78-1.13-0.82c-0.18-0.02-0.41-0.04-0.66-0.05c-0.26-0.01-0.55-0.02-0.88-0.02h-2v5.02h1.43
					c0.46,0,0.79-0.04,1-0.13c0.21-0.08,0.4-0.23,0.56-0.43c0.13-0.17,0.24-0.4,0.33-0.69c0.09-0.29,0.16-0.56,0.19-0.82h0.66v5
					h-0.66c-0.02-0.29-0.09-0.59-0.19-0.91c-0.1-0.32-0.21-0.55-0.32-0.7c-0.19-0.23-0.4-0.38-0.63-0.46
					c-0.23-0.07-0.54-0.11-0.93-0.11h-1.43v3.8c0,0.38,0.03,0.68,0.08,0.9c0.05,0.22,0.16,0.39,0.31,0.5
					c0.15,0.11,0.37,0.19,0.63,0.22c0.27,0.03,0.65,0.05,1.14,0.05c0.19,0,0.45,0,0.78,0c0.32,0,0.59-0.01,0.81-0.04
					c0.23-0.02,0.46-0.07,0.7-0.13c0.24-0.06,0.41-0.14,0.51-0.25c0.27-0.29,0.56-0.72,0.86-1.3c0.3-0.58,0.49-1.01,0.58-1.28
					H228.54z"/>
				<path d="M242.27,77.01h-3.45c-0.76-1.18-1.44-2.21-2.05-3.07c-0.61-0.86-1.27-1.75-1.99-2.67h-1.31v4.01
					c0,0.21,0.03,0.39,0.1,0.55c0.07,0.16,0.2,0.28,0.42,0.36c0.11,0.04,0.29,0.08,0.56,0.11c0.27,0.04,0.5,0.06,0.68,0.06v0.64
					h-5.34v-0.64c0.14-0.01,0.35-0.03,0.61-0.06c0.27-0.03,0.45-0.07,0.56-0.11c0.17-0.08,0.3-0.19,0.38-0.34
					c0.08-0.15,0.12-0.34,0.12-0.57v-9.2c0-0.21-0.03-0.39-0.09-0.56c-0.06-0.16-0.2-0.28-0.41-0.37c-0.15-0.05-0.34-0.1-0.57-0.15
					c-0.23-0.05-0.44-0.07-0.6-0.09v-0.64h5.87c0.54,0,1.04,0.05,1.51,0.17c0.47,0.11,0.9,0.29,1.28,0.54
					c0.37,0.24,0.66,0.55,0.89,0.94c0.22,0.38,0.33,0.85,0.33,1.4c0,0.49-0.08,0.92-0.23,1.3c-0.15,0.38-0.37,0.71-0.67,0.98
					c-0.27,0.26-0.59,0.48-0.97,0.67c-0.38,0.19-0.8,0.35-1.25,0.48c0.63,0.83,1.15,1.53,1.57,2.1c0.41,0.57,0.92,1.26,1.53,2.07
					c0.26,0.36,0.5,0.62,0.71,0.79c0.21,0.17,0.42,0.31,0.63,0.41c0.16,0.08,0.35,0.14,0.58,0.18c0.24,0.04,0.43,0.07,0.59,0.07
					V77.01z M237.57,67.53c0-0.77-0.22-1.38-0.67-1.83c-0.45-0.45-1.08-0.68-1.89-0.68h-1.53v5.45h1.18c0.83,0,1.53-0.26,2.08-0.79
					C237.29,69.16,237.57,68.44,237.57,67.53z"/>
				<path d="M250.68,71.19c0.27,0.3,0.47,0.63,0.6,0.98c0.13,0.36,0.19,0.77,0.19,1.25c0,1.13-0.41,2.06-1.25,2.79
					c-0.83,0.73-1.86,1.1-3.09,1.1c-0.57,0-1.13-0.09-1.7-0.29c-0.57-0.19-1.06-0.41-1.47-0.66l-0.39,0.66h-0.72l-0.13-4.36h0.72
					c0.15,0.54,0.33,1.03,0.53,1.47c0.2,0.43,0.46,0.84,0.79,1.22c0.31,0.36,0.68,0.64,1.1,0.85c0.42,0.21,0.9,0.32,1.45,0.32
					c0.41,0,0.78-0.05,1.09-0.16c0.31-0.11,0.56-0.26,0.75-0.46c0.19-0.2,0.33-0.43,0.43-0.7c0.09-0.27,0.14-0.57,0.14-0.92
					c0-0.51-0.14-0.98-0.43-1.42c-0.29-0.44-0.71-0.77-1.28-1c-0.39-0.16-0.83-0.33-1.33-0.51c-0.5-0.19-0.94-0.37-1.3-0.53
					c-0.72-0.32-1.28-0.75-1.67-1.27c-0.4-0.53-0.6-1.21-0.6-2.06c0-0.49,0.1-0.94,0.3-1.36c0.19-0.42,0.48-0.79,0.84-1.12
					c0.35-0.31,0.75-0.56,1.23-0.73c0.47-0.18,0.96-0.27,1.48-0.27c0.59,0,1.11,0.09,1.57,0.27c0.46,0.18,0.88,0.39,1.26,0.63
					l0.37-0.61h0.72l0.08,4.23h-0.72c-0.13-0.48-0.28-0.95-0.44-1.39c-0.16-0.44-0.38-0.84-0.64-1.2c-0.26-0.34-0.57-0.62-0.94-0.83
					c-0.37-0.21-0.83-0.31-1.36-0.31c-0.57,0-1.05,0.18-1.45,0.55c-0.4,0.36-0.6,0.81-0.6,1.34c0,0.55,0.13,1.01,0.39,1.37
					c0.26,0.36,0.63,0.66,1.12,0.89c0.43,0.21,0.86,0.39,1.29,0.54c0.42,0.15,0.83,0.32,1.22,0.49c0.36,0.16,0.7,0.33,1.03,0.53
					C250.15,70.69,250.43,70.92,250.68,71.19z"/>
				<path d="M258.61,77.01h-5.74v-0.64c0.16-0.01,0.4-0.03,0.7-0.05c0.3-0.03,0.52-0.06,0.65-0.11c0.2-0.08,0.34-0.18,0.43-0.32
					c0.09-0.13,0.13-0.32,0.13-0.56v-9.22c0-0.21-0.03-0.38-0.1-0.52c-0.07-0.14-0.22-0.26-0.47-0.36c-0.18-0.07-0.41-0.14-0.68-0.2
					c-0.27-0.06-0.5-0.1-0.67-0.11v-0.64h5.74v0.64c-0.19,0-0.41,0.03-0.66,0.07c-0.26,0.04-0.48,0.09-0.67,0.15
					c-0.23,0.07-0.38,0.19-0.46,0.35c-0.08,0.16-0.12,0.34-0.12,0.54v9.21c0,0.2,0.04,0.37,0.13,0.53c0.09,0.15,0.24,0.27,0.45,0.36
					c0.13,0.05,0.33,0.1,0.62,0.16c0.28,0.06,0.52,0.09,0.72,0.09V77.01z"/>
				<path d="M270.58,67.74h-0.61c-0.05-0.22-0.15-0.48-0.29-0.77c-0.14-0.3-0.3-0.58-0.47-0.84c-0.18-0.27-0.38-0.52-0.59-0.73
					c-0.21-0.21-0.42-0.33-0.62-0.36c-0.18-0.02-0.42-0.04-0.7-0.05c-0.28-0.01-0.54-0.02-0.78-0.02h-0.52v10.19
					c0,0.2,0.04,0.38,0.12,0.54c0.09,0.16,0.23,0.29,0.44,0.38c0.11,0.04,0.33,0.1,0.68,0.17c0.34,0.07,0.61,0.11,0.8,0.12v0.64
					h-6.01v-0.64c0.17-0.01,0.42-0.04,0.76-0.07c0.34-0.04,0.58-0.08,0.71-0.13c0.2-0.08,0.34-0.19,0.43-0.34
					c0.09-0.15,0.14-0.34,0.14-0.59V64.98h-0.52c-0.19,0-0.42,0-0.69,0.01c-0.28,0.01-0.54,0.03-0.79,0.06
					c-0.2,0.03-0.4,0.14-0.61,0.36c-0.21,0.21-0.41,0.46-0.59,0.73c-0.18,0.27-0.34,0.56-0.47,0.86c-0.14,0.3-0.23,0.55-0.29,0.75
					h-0.64v-3.46h11.11V67.74z"/>
				<path d="M283.58,64.92c-0.1,0-0.26,0.05-0.48,0.12c-0.22,0.07-0.38,0.15-0.47,0.22c-0.23,0.14-0.39,0.26-0.47,0.33
					c-0.08,0.08-0.25,0.28-0.49,0.61c-0.46,0.66-0.89,1.33-1.29,2c-0.4,0.67-0.89,1.53-1.48,2.58c-0.22,0.38-0.37,0.69-0.44,0.92
					c-0.07,0.23-0.11,0.57-0.11,1.01v2.43c0,0.21,0.04,0.4,0.13,0.56c0.09,0.16,0.23,0.29,0.44,0.38c0.12,0.05,0.35,0.1,0.67,0.17
					c0.32,0.07,0.58,0.11,0.78,0.11v0.64h-5.95v-0.64c0.17-0.01,0.42-0.03,0.75-0.07c0.34-0.03,0.57-0.08,0.7-0.13
					c0.21-0.09,0.36-0.21,0.44-0.37c0.08-0.16,0.12-0.35,0.12-0.57v-3.09c0-0.09-0.06-0.27-0.17-0.52
					c-0.12-0.26-0.26-0.54-0.42-0.85c-0.36-0.7-0.76-1.44-1.19-2.25c-0.43-0.81-0.81-1.5-1.13-2.07c-0.2-0.34-0.37-0.6-0.53-0.77
					c-0.15-0.17-0.33-0.33-0.52-0.46c-0.14-0.09-0.31-0.16-0.51-0.21c-0.2-0.05-0.38-0.07-0.54-0.09v-0.64h5.43v0.64
					c-0.61,0.01-1.04,0.05-1.29,0.12c-0.25,0.07-0.38,0.17-0.38,0.31c0,0.04,0.02,0.1,0.05,0.19c0.04,0.09,0.09,0.2,0.15,0.34
					c0.08,0.15,0.17,0.33,0.27,0.53c0.11,0.2,0.21,0.39,0.3,0.58c0.28,0.53,0.56,1.06,0.85,1.59c0.29,0.53,0.67,1.22,1.14,2.06
					c0.94-1.51,1.66-2.7,2.16-3.54c0.5-0.85,0.74-1.35,0.74-1.52c0-0.14-0.05-0.25-0.15-0.33c-0.1-0.08-0.23-0.15-0.4-0.2
					c-0.18-0.05-0.36-0.08-0.57-0.09c-0.2-0.01-0.39-0.03-0.56-0.05v-0.64h4.42V64.92z"/>
			</g>
		</g>
		<g>
			<g>
				<path class="st0" d="M138.41,38.66c-0.36,0.04-0.73,0.07-1.09,0.11c-1.02,0.3-2.12,0.71-3.28,1.09
					c-1.18,0.39-2.89,1.04-4.15,0.11c-0.09-0.11-0.04-0.03-0.11-0.22c1.13-1.21,1.1-1.93,2.84-2.73c0.03-1.2,0.49-2.62-0.11-3.39
					c0.13-1.79,2.24-0.92,3.83-1.31c0.97-0.24,2.16-0.59,2.95-1.09c0.93-0.59,1.87-1.87,2.3-2.95c0.17-0.45-0.03-1.36,0.22-1.75
					c0-0.29,0-0.58,0-0.88c-0.08-0.16-2.79-1.05-3.17-1.31c-0.28-0.19-0.97-0.77-1.09-1.09c-0.1-0.29,0.02-0.58-0.11-0.77
					c-0.13-0.27-0.25-0.25-0.44-0.44c-0.55,0.05-0.71,0.24-0.95,0.45c-0.07,0.07-0.21,0.12-0.26,0.21c-0.05,0.08,0,0.18,0,0.28
					c0,0.89,0,1.78,0,2.67c-0.26,0.59-1.45,0.93-1.97,1.31c-0.44,0.47-0.88,0.95-1.31,1.42c-0.65-0.06-0.7-0.28-1.09-0.55
					c-0.95-4.42-1.36-8.11-4.37-10.38c-0.73-0.55-1.29-1.64-2.19-1.97c-0.32,0.88-0.73,1.78-0.98,2.67
					c-0.06,0.21,0.03,0.38-0.03,0.59c-0.54,2.03-0.96,4.1-1.51,6.25c-0.13,0.51-0.75,3.26-0.66,3.72c0.47,2.18,1.08,4.96,1.64,7
					c0.26,0.95,0.06,1.64,0.33,2.51c0.49,1.59,1.9,5.69,3.06,6.45c1.3,0.86,3.45,1.26,5.14,0.55c0.52-0.22,0.97-0.96,1.31-1.09
					c0.55,0,1.09,0,1.64,0c1.6-0.44,3.21-0.87,4.81-1.31c0.57-0.24,2-1,2.4-1.42c0.58-0.59,0.62-1.76,1.31-2.4
					c0.01-0.79-0.07-1.11-0.33-1.53C140.98,37.51,139.8,38.14,138.41,38.66z"/>
				<path class="st0" d="M114.25,24.34c-0.01-1.46,0.03-3.12-0.22-4.27c-0.21-0.95,0.22-2.16-0.11-2.95c-1-2.36-5.29-4.46-7.65-5.68
					c-0.91-0.47-0.92-1.38-2.19-1.64c-0.29-0.06-0.88,0.58-0.87,0.77c-0.06,1.51,1.08,2.1,1.86,3.06c0.47,0.59,0.75,1.26,1.2,1.86
					c0.7,0.93,1.88,1.74,2.3,2.95c0.67,1.95,0.69,6.88,0.22,9.07c0,0.73,0,1.46,0,2.19c-0.07,0.84-0.15,1.68-0.22,2.52
					c-0.61-0.23-1.01-0.84-1.64-1.1c-0.47-0.07-0.95-0.15-1.42-0.22c-0.44-0.27-0.73-0.78-1.31-0.99c-0.66-0.23-1.27,0.03-1.97-0.22
					c-0.76-0.27-1-0.87-2.19-0.87c-0.24,0.04-0.7,0.4-0.66,0.55c0.16,0.93,0.94,1.39,1.2,2.19c0,0.29,0,0.58,0,0.87
					c0.18,0.69,0.38,1.64,0.54,2.41c0.28,1.25-0.53,1.96-0.77,2.73c-0.96,3.13-1.52,6.29-3.97,7.91c-0.09,0.06-0.17,0.13-0.23,0.24
					c-0.06,0.1-0.07,0.37-0.07,0.43c-0.06,1.8-0.34,5.31,1.32,5.86c0.06,0.04,0.16,0.11,0.16,0.11c0.17,0.08,1.65,0.07,1.91,0
					c0.59-0.3,1.64-1.83,2.29-2.3c0.99-0.71,2.06-1.17,3.06-1.86c0.18-0.22,0.36-0.44,0.55-0.66c1-0.75,1.98-1.52,2.84-2.41
					c0.11-0.05,0.26-0.07,0.33,0c0.08,0.37,0.24,1.19,0,1.53c-0.02,1.88-0.22,3.22,0.55,4.37c0.43,0.01,1.06,0.06,1.31-0.11
					c0.86-0.32,1.28-1.77,1.64-2.62c0.94-2.21,1.16-4.81,1.75-7.43c0.04-0.91,0.07-1.82,0.11-2.73c0.54-2.46,0.44-5.48,0.44-8.31
					c0.04-1.13,0.07-2.26,0.11-3.39C114.36,25.66,114.26,25,114.25,24.34z M108.57,40.2c0,0.47,0,0.95,0,1.42
					c-0.21,0.45-1.22,0.81-1.64,1.09c-0.37,0.25-0.79,0.69-1.2,0.88c-0.77,0.34-1.42,0.36-2.08,0.77c-0.59,0.37-1.26,0.92-1.86,1.31
					c-0.45,0.29-2.01,0.92-2.73,0.44c-0.11-0.04-0.22-0.07-0.33-0.11c0.08-1.18,0.93-1.71,1.42-2.52c0.96-1.57,2.21-2.85,3.17-4.37
					c0.07-0.26,0.15-0.51,0.22-0.77c0.35-0.54,1.06-0.99,1.31-1.64c1.91,0.04,2.93-0.93,3.28-2.41c0.28,0.02,0.37,0.05,0.55,0.11
					c0.03,1.22,0.04,2.64,0,3.83C108.66,38.81,108.82,39.8,108.57,40.2z"/>
			</g>
			<g>
				<path class="st0" d="M254.08,19.64c0.35,0.47,0.97,0.84,1.31,1.31c1.15,1.6,1.45,4.9,2.08,7c1.96-0.02,2.8-1.72,3.72-2.84
					c0-2.71-2.78-6.88-4.37-7.98c-0.92-0.63-2.02-0.91-2.95-1.53c-0.99-0.65-1.53-1.6-2.73-2.08c-0.16-0.05-0.52,0.33-0.55,0.44
					c0,0.58,0,1.17,0,1.75c0.4,0.33,0.8,0.66,1.2,0.98C252.56,17.72,253.31,18.61,254.08,19.64z"/>
				<path class="st0" d="M277.47,22.7c1.7-2.2,3.97-4.23,5.03-7c0.3-0.79,1.62-2.72,0.77-3.83c-0.38-0.56-1.43-0.23-2.19-0.44
					c-0.34-0.09-0.59-0.46-0.87-0.55c-0.5-0.15-1.02,0.23-1.31,0.33c-1.38,0.44-2.57,0.58-3.83,1.09c-0.56,0.23-2.16,1.19-2.84,0.77
					c-0.11-0.03-0.22-0.07-0.33-0.11c0.12-2.1,1.6-3.34,2.3-5.03c0.2-0.49,0.83-1.8,0.44-2.41c-0.06-0.98-1.08-1.66-1.64-2.19
					c-0.18-0.15-1,0.12-0.98,0.44c0.04,2.78-1.13,5.8-2.73,6.89c-0.51,0.35-0.96,0.2-1.64,0.44c-1.08,0.38-2.23,1.47-3.5,0.54
					c-0.65,0-0.74,0.1-1.09,0.33c0.12,1.09,0.76,2,1.64,2.3c0.22,0.12,1.01,0.01,1.53,0c-0.02,0.85-0.69,1.59-1.2,1.97
					c0,0.37,0.03,0.65,0.11,0.88c1.18,0.22,1.4-0.4,2.51-0.44c-0.18,1.24-1.18,1.83-1.75,2.73c-0.74,0.15-1.83,0.25-2.51,0.33
					c-0.06,0.01-0.12,0.08-0.11,0.11c0.02,0.83,0.34,1.12,0.88,1.42c-0.3,1.14-1.22,1.94-1.86,2.84c-0.25,0.35-0.98,0.84-0.55,1.53
					c0.15,0.26,0.33,0.27,0.66,0.33c1.1-1.06,2.97-1.56,3.5-3.17c1.74,0.11,1.73,0.53,2.73,1.2c-0.05,0.62-0.34,1.25-0.66,1.64
					c0,0.42,0.02,0.83,0.11,1.09c1.3-0.06,3.26-1.78,4.15-1.2c0.07,0,0.15,0,0.22,0c-0.16,0.74-0.98,0.76-1.53,1.09
					c-1.16,0.72-2.55,1.19-3.83,1.86c-1.73,0.91-3.65,1.93-5.25,2.95c-0.47,0.15-0.95,0.29-1.42,0.44c-2.6,1.54-5.07,3.45-7.76,4.92
					c-0.07,0.19-0.02,0.11-0.11,0.22c0.01,0.34,0.04,0.56,0.11,0.77c3.33,0.7,5.99-0.84,8.31-1.75c3.12-1.22,6.08-3.26,8.64-5.14
					c0.83-0.61,1.43-1.63,2.29-2.19c0.67-0.44,1.27-0.61,1.86-1.09c0.18,0,0.37,0,0.55,0c-0.19,0.67-0.66,0.93-0.99,1.42
					c-0.11,0.29-0.22,0.58-0.33,0.87c-0.58,0.55-1.17,1.1-1.75,1.64c-0.28,0.37-0.52,0.93-0.88,1.2c-0.88,0.67-1.85,1.32-2.51,2.19
					c-0.09,0.15,0.06,0.74,0.11,1.09c1.74-0.14,2.76-1.27,4.04-1.86c0.79-0.36,1.65-0.43,2.41-0.87c0.51-0.29,0.76-0.88,1.2-1.2
					c2.13-1.58,4.05-2.81,3.61-6.67c-0.54-0.19-1.32-0.22-1.75-0.55c-0.76,0-1.53,0-2.3,0C275.54,23.62,276.79,23.59,277.47,22.7z
					 M273.97,21.28c-0.42,0.56-0.74,1.24-1.09,1.86c-0.29-0.02-0.37-0.05-0.55-0.11c-0.32-1.61-0.44-2.84-0.98-4.05
					c-0.38-0.07-0.58-0.13-0.88,0.11c-0.64,0.54-0.18,1.97-0.98,2.62c-0.32,0.33-1.15-0.9-1.42-1.09c0.2-2.33,2.45-4.08,3.61-5.58
					c2.1,0.04,3.61,1.08,5.58,1.2C277.2,18.84,275.12,19.76,273.97,21.28z"/>
				<path class="st0" d="M250.58,31.34c0.28,0.65,0.98,1.38,1.2,2.08c0.46,0.09,0.69,0.04,1.2,0c0.85-0.88,1.37-1.67,1.64-3.17
					c0.23-1.29-2.41-4.51-3.28-4.81c-0.22-0.15-0.71-0.12-1.09-0.11c-0.17,0.75,0.25,3.02,0.33,3.83
					C250.58,29.88,250.58,30.61,250.58,31.34z"/>
				<path class="st0" d="M269.71,37.68c-0.84,1.1-4.32,1.04-5.79,1.64c-2.02,0.83-4.18,1.51-6.23,2.4
					c-1.36,0.59-2.78,1.41-4.15,1.97c-0.36,0.07-0.73,0.15-1.09,0.22c-0.59,0.24-1.22,0.86-1.75,1.09
					c-0.51,0.04-1.02,0.07-1.53,0.11c-0.55,0.25-0.82,0.78-1.2,1.2c0.03,1.96,1.04,2.52,1.53,3.62c0.1,0.22-0.01,0.45,0.22,0.75
					c0.17,0.18,0.66,0.37,0.98,0.44c0.77,0.16,1.87-0.54,2.41-0.77c2.05-0.88,3.57-2.39,5.36-3.5c0.64-0.4,1.62-0.87,2.3-1.09
					c0.79-0.26,1.38-0.03,2.08-0.33c1.27-0.53,0.73-1.39,2.62-0.76c0.08,0.29,0.26,0.53,0.33,0.76c0.21,0.76-0.25,1.69-0.11,2.3
					c0.15,0.65,0.36,0.79,0.33,1.64c-0.26,0.28-0.35,0.76-0.66,0.98c-0.93,0.7-2.45,0.98-3.72,1.31c-0.87,0.23-1.95-0.37-2.62,0.11
					c-0.07,0-0.15,0-0.22,0c0.02,0.37,0.05,0.56,0.22,0.76c0.32,0.99,0.93,0.66,1.97,0.98c1.01,0.32,2.09,1.75,3.83,0.76
					c0.37-0.21,0.5-0.73,0.98-0.87c0.86-0.25,1.64,0.16,2.19-0.33c0.52-0.26,0.61-0.91,0.87-1.42c0.23-0.45,0.63-1.13,0.77-1.64
					c0.2-0.75-0.19-1.43-0.33-1.86c-0.07-0.44-0.15-0.88-0.22-1.31c-0.41-1.01-1.07-1.57-1.09-3.06c-0.01-0.17,0.18-0.38,0.33-0.44
					c1.22-0.29,2.42-0.58,4.05-0.54c0.52-0.53,1.24-0.88,1.64-1.53c0.26-0.42,0.27-1.02,0.55-1.42c0-1.05-0.37-1.16-0.76-1.75
					C272.18,38.09,271.22,37.67,269.71,37.68z"/>
			</g>
			<g>
				<path class="st0" d="M230.13,23.91c0.31-0.47,0.32-0.88,0.77-1.2c0.34-0.23-0.1-1.46-0.33-1.53c-4.09-0.92-4.44,2.1-6.56,3.72
					c-0.97,0.74-2.07,1.22-3.06,1.97c-0.07,0-0.15,0-0.22,0c-0.4-2.18-0.11-5.05-0.11-7.43c0-0.95,0-1.89,0-2.84
					c0.08-0.2,0.45-0.44,0.55-0.66c0.38-0.87,0.21-2.26-0.22-2.95c-0.59-0.96-1.82-1.21-2.73-1.86c-0.48-0.34-0.84-0.96-1.42-1.2
					c-0.89-0.37-1.87-0.02-2.62-0.55c-0.49,0.08-0.65,0.24-0.98,0.44c-0.96,2.51,1.4,6.05,2.08,7.87c0.59,1.58,0.61,6.49,0.22,8.31
					c-0.3,1.37,0.18,3.42-0.55,4.37c-0.42,0.57-4,1.78-4.92,2.19c-0.77,0.34-1.67,0.81-2.51,1.09c-0.94,0.31-1.83,0.4-2.62,0.88
					c-1.22,0.73-3.16,2.06-4.48,2.51c-0.4,0.04-0.8,0.07-1.2,0.11c-0.56,0.18-1.28,0.5-1.86,0.66c-0.33,0.09-0.78,0.13-0.88,0.11
					c-0.4-0.38-0.91-0.96-1.2-1.42c-0.16-0.2-0.34-0.33-0.47-0.24c-0.08,0-0.17,0.1-0.19,0.35c-0.09,3.4-0.34,4.11,1.2,6.45
					c3.19,0.67,5.48-0.89,7.54-2.29c0.91-0.62,1.8-1,2.73-1.64c0.69-0.48,1.22-1.33,1.97-1.75c0.33-0.07,0.65-0.14,0.98-0.22
					c1.43-0.57,2.91-1.43,4.81-1.53c-0.02,3.61-3.11,7.3-5.36,8.75c-0.34,0.22-0.7,0.48-1.1,0.65c-0.43,0.19-0.83,0.38-1.19,0.55
					c-0.29,0.04-0.58,0.07-0.88,0.11c-0.53,0.26-1.25,0.72-1.75,1.09c-0.73,0.55-0.64,1.07-1.09,1.75c0,0.07,0,0.15,0,0.22
					c5.84-0.04,9.45-2.59,12.68-5.25c1.21-1,2.72-1.87,3.39-3.39c0.81-1.82,1.1-4.06,1.64-6.01c0.11-0.76,0.22-1.53,0.33-2.3
					c0.32-0.57,1.92-1.43,2.51-1.86c0.58-0.42,1.06-1.1,1.64-1.53c1.17-0.86,2.34-1.64,3.5-2.52
					C228.79,25.41,229.71,24.56,230.13,23.91z"/>
				<path class="st0" d="M230.36,40.41c-1.08-0.84-1.53-2.09-3.5-2.08c-0.1,0.1-0.19,0.15-0.33,0.22c-0.06,2.58,0.28,2.94,0.98,4.81
					c0.07,0.33,0.14,0.66,0.22,0.99c0.26,0.5,1.28,1.66,0.65,2.62c0.12,1,1.8,1.36,2.95,0.98c1.23-0.4,2.51-1.26,3.28-2.19
					C234.6,42.94,232,41.7,230.36,40.41z"/>
			</g>
			<g>
				<path class="st0" d="M168.59,6.52c0.15,0.11,0.29,0.22,0.44,0.33c0.4,0.58,0.88,1.53,1.09,2.19c0.45,1.38,0.57,3.7-0.44,4.37
					c-0.15,0.08-0.03,1.1,0.33,1.09c1.74-0.21,3.49-1.43,4.16-2.73c3.02,0.09,4.69-0.79,4.48-3.83c-0.29-0.31-0.43-0.84-0.77-1.09
					c-0.9-0.68-1.92-1.37-2.84-1.97c-0.43-0.28-0.98-0.28-1.42-0.55c-1.55-0.94-2.8-1.91-5.36-1.86c-1.26,1.5-0.48,1.46,0.11,2.73
					C168.44,5.65,168.51,6.08,168.59,6.52z"/>
				<path class="st0" d="M166.18,26.53c0.82,0.21,2.73-0.21,3.39-0.44c1.83-0.62,3.77-3.87,5.36-5.03c1.06-0.77,2.26-1.91,3.5-2.4
					c0.47-0.07,0.95-0.15,1.42-0.22c0.47-0.51,0.95-1.02,1.42-1.53c-0.03-0.63-0.18-1.11-0.44-1.09c-0.44,0-0.87,0-1.31,0
					c-0.57,0.37-1.62,0.23-2.3,0.44c-1.24,0.38-2.54,0.95-3.72,1.32c-0.33,0.03-0.66,0.07-0.98,0.11
					c-3.62,1.36-7.38,2.92-10.82,4.37c-0.23,0.54-0.71,1.37-0.22,1.97C161.86,25.1,164.93,26.21,166.18,26.53z"/>
				<path class="st0" d="M177.11,36.26c-1.34,0-2.54-0.28-3.72,0.11c-0.56,0.18-0.82,0.64-1.42,0.76c0.12-0.71,1.5-1.56,1.97-2.08
					c0.38-0.42,0.75-0.97,1.2-1.31c0.38-0.29,0.92-0.5,1.2-0.87c0.19-0.25,0.31-0.68,0.55-0.88c0.18-0.04,0.37-0.07,0.55-0.11
					c0.28-0.25,0.35-0.75,0.66-0.98c0.92-0.69,1.8-0.84,2.41-1.86c0.12-0.21-0.1-0.67-0.33-0.88c-0.72-0.58-4.29-1.05-5.58-0.66
					c-0.65,0.2-1.55,0.59-2.08,0.98c-0.18,0.25-0.37,0.51-0.55,0.77c-0.55,0.07-1.09,0.14-1.64,0.22c-0.66,0.4-1.22,1.19-1.86,1.64
					c-1.32,0.93-2.73,1.71-4.15,2.51c-0.62,0.36-1.34-1.12-1.75-1.42c-0.27-0.2-0.62-0.23-0.87-0.44c-0.25,0.02-0.31,0.02-0.44,0.11
					c-0.25,0.08-0.25,0.11-0.44,0.22c-0.05,0.78,0.3,1.71,0.11,2.51c-0.43,1.8-1.22,5.11-0.55,7.21c0.11,0.34,0.51,0.76,0.66,1.09
					c0.18,0.41,0.11,0.81,0.33,1.2c0.31,0.56,1.07,0.74,1.31,1.42c0.95-0.19,2.61-3.2,3.35-4.37c0-0.01,0-0.01,0.01-0.01
					c0.16-0.28,0.14-0.46,0.14-0.65v-0.03h0c0-0.9,0-1.8,0-2.7c0.36-0.09,1.09-0.23,1.42-0.44c0.52,0,0.69,0.06,0.98,0.22
					c-0.03,0.34-1.25,3.31-1.42,3.5c0.08,0.76,0.58,1.02,1.2,1.2c-0.19,1.49-1.85,1.81-2.84,2.51c-1.18,0.83-2.47,1.75-3.72,2.52
					c-0.49,0.3-1.04,0.35-1.53,0.66c-0.3,0.19-0.57,0.58-0.87,0.76c-0.52,0.31-1.06,0.33-1.53,0.66c-0.23,0.17-0.33,0.56-0.65,0.66
					c-0.45,0.13-0.81-0.27-1.09-0.33c-0.68-0.15-1.15,0.32-1.64,0.44c-0.13,2.69,1.04,5.44,4.04,5.46c1.5-1.59,3.14-2.93,4.48-4.7
					c0.47-0.4,0.95-0.8,1.42-1.2c0.32-0.48,0.41-0.9,0.77-1.31c0.13-0.15,0.37-0.09,0.54-0.22c0.4-0.44,0.8-0.88,1.2-1.31
					c0.37-0.27,0.72-0.29,0.99-0.66c0.23,0.04,0.21,0.03,0.33,0.11c0.29,0.38,0.28,1.02,0.55,1.42c0.02,0.98,0.09,2.1-0.55,2.41
					c-0.33,0.07-0.65,0.15-0.98,0.22c-0.27,0.2-0.36,0.66-0.65,0.87c0,0.22,0,0.44,0,0.66c0.08,0.15,2,0.78,2.29,0.98
					c0.23,0.16,0.68,0.71,0.77,0.98c0,0.33,0,0.66,0,0.99c0.13,0.3,0.67,0.67,0.88,0.98c0.35,0.08,1.09,0.23,1.42,0
					c0.11-0.04,0.22-0.07,0.33-0.11c-0.05-3.35-0.25-6.42-1.2-8.97c-0.32-0.86-1.53-2.45-0.76-3.61c0-1.62,1.12-1.17,2.08-1.75
					c1.34-0.81,2.79-1.59,4.04-2.51c0.49-0.36,0.7-0.97,1.09-1.42C177.47,36.93,177.25,36.7,177.11,36.26z"/>
				<path class="st0" d="M183.46,43.58c-1.14-1.57-2.36-3.01-5.14-2.95c-0.2,0.13-0.63,0.12-0.99,0.11
					c-0.55,2.27-0.48,4.09,0.66,5.79c0.29,0.26,0.58,0.51,0.88,0.77c0.64,0.96,1.01,1.9,2.19,2.3c1.19,0.77,2.61-0.72,3.17-1.09
					c0.16-0.64,0.7-2.71,0.33-3.28C184.5,44.31,183.86,44.14,183.46,43.58z"/>
			</g>
		</g>
	</g>
</g>
</svg>
