<?xml version="1.0" encoding="utf-8"?>
<!-- Generator: Adobe Illustrator 27.1.1, SVG Export Plug-In . SVG Version: 6.00 Build 0)  -->
<svg version="1.1" id="图层_1" xmlns="http://www.w3.org/2000/svg" xmlns:xlink="http://www.w3.org/1999/xlink" x="0px" y="0px"
	 viewBox="0 0 423.5 114.4" style="enable-background:new 0 0 423.5 114.4;" xml:space="preserve">
<style type="text/css">
	.st0{fill-rule:evenodd;clip-rule:evenodd;fill:#00406C;}
	.st1{fill-rule:evenodd;clip-rule:evenodd;fill:#95A3AB;}
	.st2{fill-rule:evenodd;clip-rule:evenodd;fill:#CCE1F4;}
	.st3{fill-rule:evenodd;clip-rule:evenodd;fill:#FFFFFF;}
	.st4{fill-rule:evenodd;clip-rule:evenodd;fill:#BE1E2D;}
	.st5{fill-rule:evenodd;clip-rule:evenodd;fill:#D3DADE;}
	.st6{fill-rule:evenodd;clip-rule:evenodd;fill:#005589;}
</style>
<path class="st0" d="M131.5,97.5V94H131c0,0.4-0.2,0.6-0.5,0.6c-0.1,0-0.4-0.1-0.7-0.2c-0.7-0.3-1.3-0.4-1.8-0.4
	c-2.3,0-3.5,1.1-3.6,3.2c-0.1,1.3,0.8,2.5,2.8,3.4l1.1,0.6c1.3,0.5,1.9,1.1,1.8,2c-0.1,1.1-0.8,1.7-2,1.8c-1.7,0-2.8-1.1-3.4-3.4
	h-0.4v3.9h0.4c0.1-0.3,0.3-0.4,0.5-0.4c0.1,0,0.4,0,0.7,0.1c0.8,0.2,1.5,0.3,2.1,0.3c2.5-0.1,3.8-1.2,4-3.3c0-1.3-0.6-2.3-1.8-3
	l-2.3-1.1c-0.7-0.3-1.2-0.6-1.4-0.9c-0.2-0.3-0.3-0.6-0.3-1.1c0-0.9,0.6-1.4,1.8-1.5c1.5,0,2.5,1,3.2,3H131.5z M139,94.6
	c1.8,0.1,2.8,1.8,2.8,5.2c0,3.4-0.9,5.1-2.8,5.2c-1.9,0-2.9-1.8-2.9-5.2C136.1,96.4,137.1,94.7,139,94.6 M139,94
	c-3.6,0.3-5.5,2.2-5.8,5.8c0.2,3.6,2.1,5.5,5.8,5.6c3.6-0.2,5.5-2,5.7-5.6C144.4,96.2,142.5,94.3,139,94 M156.5,94.3H153v0.4
	c1.1,0,1.7,0.5,1.6,1.6v4.9c0.1,2.3-0.9,3.5-2.8,3.5c-1.6,0-2.4-1.1-2.3-3.2v-5.4c0-0.6,0.1-1,0.3-1.2c0.1-0.2,0.5-0.3,1.3-0.3v-0.4
	h-5.5v0.4c0.6,0,0.9,0.2,1.1,0.4c0.2,0.2,0.3,0.5,0.3,1.1v5.4c0,1.4,0.3,2.4,1.1,3c0.8,0.6,1.9,0.9,3.3,0.9c1.4,0,2.4-0.4,3.2-1.1
	c0.6-0.6,0.8-1.6,0.9-3.1v-5.2c-0.1-0.9,0.3-1.3,1.3-1.4V94.3z M165.1,104.9c-0.8,0-1.2-0.1-1.3-0.3c-0.2-0.2-0.3-0.6-0.3-1.2v-8.5
	c1.9,0,2.9,0.9,3.1,2.7h0.5l-0.1-3.2h-9.7l-0.1,3.2h0.4c0.2-1.9,1.3-2.8,3.2-2.7v8.5c0,0.6-0.1,1-0.3,1.2c-0.1,0.2-0.5,0.3-1.3,0.3
	v0.4h5.8V104.9z M179.9,104.9c-0.6-0.1-0.9-0.2-1.1-0.3c-0.2-0.2-0.3-0.5-0.3-0.9v-7.8c0-0.8,0.4-1.2,1.4-1.2v-0.4h-5.5v0.4
	c1,0,1.5,0.4,1.5,1.2v3.4H172v-3.4c0-0.8,0.4-1.2,1.5-1.2v-0.4h-5.5v0.4c1,0,1.4,0.4,1.4,1.2v7.8c0,0.4-0.1,0.7-0.3,0.9
	c-0.1,0.1-0.5,0.2-1.1,0.3v0.4h5.5v-0.4c-0.6-0.1-1-0.2-1.1-0.3c-0.2-0.2-0.3-0.5-0.3-0.9V100h3.9v3.7c0,0.4-0.1,0.7-0.3,0.9
	c-0.2,0.1-0.5,0.2-1.1,0.3v0.4h5.5V104.9z M194.9,102.8c-1.2,1.4-2.4,2.1-3.8,2c-1.1-0.1-1.9-0.6-2.5-1.5c-0.5-0.8-0.7-1.9-0.7-3.5
	c0-3.5,1-5.2,3-5.2c1.6,0.1,2.8,1.2,3.8,3.3h0.4v-3.8h-0.4c-0.2,0.5-0.4,0.8-0.7,0.8c-0.1,0-0.3-0.1-0.8-0.3c-1-0.4-1.8-0.6-2.4-0.6
	c-3.5,0.3-5.4,2.2-5.7,5.8c0.3,3.6,2.2,5.4,5.8,5.6c1.7,0,3.2-0.7,4.6-2.3L194.9,102.8z M208.2,104.9c-0.6-0.1-1-0.2-1.1-0.3
	c-0.2-0.2-0.3-0.5-0.3-0.9v-7.8c0-0.8,0.4-1.2,1.4-1.2v-0.4h-5.5v0.4c1,0,1.5,0.4,1.5,1.2v3.4h-3.9v-3.4c0-0.8,0.4-1.2,1.5-1.2v-0.4
	h-5.5v0.4c1,0,1.4,0.4,1.4,1.2v7.8c0,0.4-0.1,0.7-0.3,0.9c-0.1,0.1-0.5,0.2-1.1,0.3v0.4h5.5v-0.4c-0.6-0.1-1-0.2-1.1-0.3
	c-0.2-0.2-0.3-0.5-0.3-0.9V100h3.9v3.7c0,0.4-0.1,0.7-0.3,0.9c-0.2,0.1-0.5,0.2-1.1,0.3v0.4h5.5V104.9z M214.5,104.9
	c-1.1,0-1.6-0.4-1.6-1.2v-7.8c0-0.8,0.4-1.2,1.5-1.2h0.1v-0.4h-5.7v0.4c1.1,0,1.6,0.4,1.5,1.2v7.8c0,0.4-0.1,0.7-0.3,0.9
	c-0.2,0.1-0.6,0.2-1.2,0.3v0.4h5.7V104.9z M215,105.2h3.7v-0.4c-1.1,0-1.6-0.5-1.5-1.6v-6.5l7.2,8.7h0.4V96
	c-0.1-0.8,0.3-1.2,1.3-1.3v-0.4h-3.5v0.4c1.1,0,1.6,0.6,1.5,1.6v4.9l-5.6-6.9h-3.4v0.4c0.2,0,0.7,0.4,1.4,1.2v7.7
	c0,0.5-0.1,0.8-0.3,1c-0.2,0.2-0.5,0.3-1.1,0.4V105.2z M229.4,101.4l1.5-4l1.6,4H229.4z M237.5,104.9c-0.3,0-0.6-0.1-0.8-0.4
	c-0.2-0.2-0.5-0.8-0.9-1.8l-3.6-8.5h-0.4l-3.6,8.9c-0.4,1.3-0.9,1.9-1.6,1.9v0.4h3.3v-0.4h-0.1c-0.8-0.1-1.3-0.4-1.3-0.7
	c0-0.2,0.2-0.9,0.8-2.1h3.6c0.5,1,0.7,1.7,0.8,2.2c0.1,0.4-0.3,0.6-1.1,0.6h-0.2v0.4h5.3V104.9z M242.3,105.2h3.7v-0.4
	c-1.1,0-1.6-0.5-1.5-1.6v-6.5l7.2,8.7h0.4V96c-0.1-0.8,0.3-1.2,1.3-1.3v-0.4h-3.5v0.4c1.1,0,1.6,0.6,1.5,1.6v4.9l-5.6-6.9h-3.4v0.4
	c0.2,0,0.7,0.4,1.4,1.2v7.7c0,0.5-0.1,0.8-0.3,1c-0.2,0.2-0.5,0.3-1.1,0.4V105.2z M260.1,94.6c1.8,0.1,2.8,1.8,2.8,5.2
	c0,3.4-0.9,5.1-2.8,5.2c-1.9,0-2.9-1.8-2.9-5.2C257.2,96.4,258.2,94.7,260.1,94.6 M260.1,94c-3.6,0.3-5.5,2.2-5.8,5.8
	c0.2,3.6,2.1,5.5,5.8,5.6c3.6-0.2,5.5-2,5.7-5.6C265.5,96.2,263.6,94.3,260.1,94 M270.8,95.5c-0.1-0.5,0.3-0.7,1-0.6
	c1.3,0,2,0.8,2,2.3c0,1-0.2,1.6-0.6,2c-0.4,0.3-1.2,0.5-2.3,0.5V95.5z M277.9,104.9c-0.2,0-0.4-0.1-0.6-0.3l-3.3-4.6
	c1.7-0.5,2.6-1.4,2.5-2.8c0-1.9-1.6-2.8-4.6-2.8h-5.2v0.4c0.6,0,0.9,0.1,1.1,0.3c0.2,0.2,0.3,0.6,0.3,1.2v7.2c0,0.6-0.1,1-0.3,1.2
	c-0.1,0.2-0.5,0.3-1.1,0.3v0.4h5.4v-0.4c-0.7-0.1-1.1-0.2-1.1-0.4c-0.2-0.2-0.3-0.5-0.3-1.1v-3.2h0.4l3.4,5.1h3.3V104.9z
	 M292.9,104.9c-0.7-0.1-1.1-0.2-1.2-0.4c-0.2-0.2-0.3-0.5-0.3-1.1v-7.2c0-0.6,0.1-1,0.3-1.2c0.1-0.2,0.5-0.3,1.1-0.3v-0.4h-4.1
	l-3.2,7.7l-3.2-7.7h-4.1v0.4c1.1,0,1.5,0.4,1.5,1.2v7.7c0,0.5-0.1,0.8-0.3,1c-0.2,0.2-0.6,0.3-1.2,0.3v0.4h3.7v-0.4
	c-0.6,0-1.1-0.2-1.3-0.4c-0.2-0.2-0.3-0.6-0.3-1.2v-7.5l4,9.6h0.4l4-9.8h0.1v8.2c0,0.5-0.1,0.8-0.3,0.9c-0.1,0.1-0.5,0.2-1.1,0.3
	v0.4h5.4V104.9z M296.3,101.4l1.5-4l1.6,4H296.3z M304.4,104.9c-0.3,0-0.6-0.1-0.8-0.4c-0.2-0.2-0.5-0.8-0.9-1.8L299,94h-0.4
	l-3.6,8.9c-0.4,1.3-0.9,1.9-1.6,1.9v0.4h3.3v-0.4h-0.1c-0.8-0.1-1.3-0.4-1.3-0.7c0-0.2,0.2-0.9,0.8-2.1h3.6c0.5,1,0.7,1.7,0.8,2.2
	c0.1,0.4-0.3,0.6-1.1,0.6h-0.2v0.4h5.3V104.9z M315.2,101.6h-0.4c-0.8,2.2-2.1,3.2-4.1,3.2c-1.1,0.1-1.5-0.2-1.5-0.9v-7.7
	c0-0.6,0.1-1,0.3-1.2c0.2-0.2,0.6-0.3,1.3-0.3v-0.4h-5.6v0.4c1,0,1.4,0.4,1.4,1.2v7.8c0,0.4-0.1,0.7-0.3,0.9
	c-0.1,0.1-0.5,0.2-1.1,0.3v0.4h9.4L315.2,101.6z M331,94.3h-3.5v0.4c1.1,0,1.7,0.5,1.6,1.6v4.9c0.1,2.3-0.9,3.5-2.8,3.5
	c-1.6,0-2.4-1.1-2.3-3.2v-5.4c0-0.6,0.1-1,0.3-1.2c0.1-0.2,0.5-0.3,1.3-0.3v-0.4h-5.5v0.4c0.6,0,0.9,0.2,1.1,0.4
	c0.2,0.2,0.3,0.5,0.3,1.1v5.4c0,1.4,0.3,2.4,1.1,3c0.8,0.6,1.9,0.9,3.3,0.9c1.4,0,2.4-0.4,3.2-1.1c0.6-0.6,0.8-1.6,0.9-3.1v-5.2
	c-0.1-0.9,0.3-1.3,1.3-1.4V94.3z M331.6,105.2h3.7v-0.4c-1.1,0-1.6-0.5-1.5-1.6v-6.5l7.2,8.7h0.4V96c-0.1-0.8,0.3-1.2,1.3-1.3v-0.4
	h-3.5v0.4c1.1,0,1.6,0.6,1.5,1.6v4.9l-5.6-6.9h-3.4v0.4c0.2,0,0.7,0.4,1.4,1.2v7.7c0,0.5-0.1,0.8-0.3,1c-0.2,0.2-0.5,0.3-1.1,0.4
	V105.2z M349,104.9c-1.1,0-1.6-0.4-1.6-1.2v-7.8c0-0.8,0.4-1.2,1.5-1.2h0.1v-0.4h-5.7v0.4c1.1,0,1.6,0.4,1.5,1.2v7.8
	c0,0.4-0.1,0.7-0.3,0.9c-0.2,0.1-0.6,0.2-1.2,0.3v0.4h5.7V104.9z M360.5,94.3h-3.4v0.4c0.6,0,0.9,0.1,1.1,0.2
	c0.2,0.1,0.3,0.3,0.3,0.6c0,0.2-0.1,0.5-0.3,0.9c0,0.1-0.1,0.2-0.1,0.3l-2.1,5.3l-2.1-5.1c-0.3-0.7-0.5-1.1-0.5-1.4
	c0-0.3,0.1-0.5,0.3-0.5c0.1-0.1,0.5-0.1,1.1-0.2v-0.4h-5.4v0.4c0.6,0,1.1,0.4,1.4,1.1l4.1,9.6h0.4l3.7-9.4c0.3-0.9,0.8-1.3,1.5-1.3
	V94.3z M361.1,94.7c1,0,1.5,0.4,1.5,1.2v7.8c0,0.4-0.1,0.7-0.3,0.9c-0.1,0.1-0.5,0.2-1.1,0.3v0.4h9.5l0.6-3.4h-0.4
	c-0.8,1.9-2.2,2.9-4.2,2.8c-1,0-1.5-0.2-1.4-0.9v-3.9c0.9,0,1.5,0.2,1.9,0.5c0.4,0.4,0.6,1,0.8,2h0.4v-5.4h-0.4
	c-0.1,0.9-0.4,1.6-0.8,1.9c-0.4,0.3-1,0.5-1.9,0.5v-3.7c-0.1-0.6,0.3-0.8,1.2-0.8c1.3,0,2.2,0.2,2.7,0.6c0.5,0.4,0.9,1.1,1,2.1h0.4
	v-3.2h-9.4V94.7z M376.1,95.5c-0.1-0.5,0.3-0.7,1-0.6c1.3,0,2,0.8,2,2.3c0,1-0.2,1.6-0.6,2c-0.4,0.3-1.2,0.5-2.3,0.5V95.5z
	 M383.2,104.9c-0.2,0-0.4-0.1-0.6-0.3l-3.3-4.6c1.7-0.5,2.6-1.4,2.5-2.8c0-1.9-1.6-2.8-4.6-2.8h-5.2v0.4c0.6,0,1,0.1,1.1,0.3
	c0.2,0.2,0.3,0.6,0.3,1.2v7.2c0,0.6-0.1,1-0.3,1.2c-0.1,0.2-0.5,0.3-1.1,0.3v0.4h5.4v-0.4c-0.7-0.1-1.1-0.2-1.1-0.4
	c-0.2-0.2-0.3-0.5-0.3-1.1v-3.2h0.4l3.4,5.1h3.3V104.9z M391.1,97.5V94h-0.5c0,0.4-0.2,0.6-0.5,0.6c-0.1,0-0.4-0.1-0.7-0.2
	c-0.7-0.3-1.3-0.4-1.8-0.4c-2.3,0-3.5,1.1-3.6,3.2c-0.1,1.3,0.8,2.5,2.8,3.4l1.1,0.6c1.3,0.5,1.9,1.1,1.8,2c-0.1,1.1-0.8,1.7-2,1.8
	c-1.7,0-2.8-1.1-3.4-3.4h-0.4v3.9h0.4c0.1-0.3,0.3-0.4,0.5-0.4c0.1,0,0.4,0,0.7,0.1c0.8,0.2,1.5,0.3,2.1,0.3c2.5-0.1,3.8-1.2,4-3.3
	c0-1.3-0.6-2.3-1.8-3l-2.3-1.1c-0.7-0.3-1.2-0.6-1.4-0.9c-0.2-0.3-0.3-0.6-0.3-1.1c0-0.9,0.6-1.4,1.8-1.5c1.5,0,2.5,1,3.2,3H391.1z
	 M398.3,104.9c-1.1,0-1.6-0.4-1.6-1.2v-7.8c0-0.8,0.4-1.2,1.5-1.2h0.1v-0.4h-5.7v0.4c1.1,0,1.6,0.4,1.5,1.2v7.8
	c0,0.4-0.1,0.7-0.3,0.9c-0.2,0.1-0.6,0.2-1.2,0.3v0.4h5.7V104.9z M406.8,104.9c-0.8,0-1.2-0.1-1.3-0.3c-0.2-0.2-0.3-0.6-0.3-1.2
	v-8.5c1.9,0,2.9,0.9,3.1,2.7h0.5l-0.1-3.2h-9.7l-0.1,3.2h0.4c0.2-1.9,1.3-2.8,3.2-2.7v8.5c0,0.6-0.1,1-0.3,1.2
	c-0.1,0.2-0.5,0.3-1.3,0.3v0.4h5.8V104.9z M420.6,94.3H417v0.4c0.9,0,1.4,0.3,1.3,0.8c0,0.4-0.3,0.9-0.6,1.5l-1.8,3l-2-3.8
	c0,0,0-0.1-0.1-0.2c-0.2-0.3-0.3-0.6-0.3-0.7c-0.1-0.4,0.3-0.6,1.3-0.6v-0.4h-5.4v0.4c0.5,0,1,0.3,1.3,0.9l3,5.4v2.4
	c0,0.6-0.1,1-0.3,1.1c-0.1,0.2-0.5,0.3-1.2,0.4v0.4h5.6v-0.4c-0.7,0-1.1-0.1-1.2-0.3c-0.2-0.2-0.3-0.6-0.3-1.2v-3l3.1-5.1
	c0.2-0.3,0.5-0.5,1-0.6h0.1V94.3z"/>
<path class="st0" d="M137.5,35.8c2.6,0,1.9,6.7,1.9,6.7l-6,3.2c0,0-3,2.8,1.5,2.8c4.5,0,9.7-4.4,9.7-4.4l-0.7,8.7
	c0,0-17.2,9.9-19.4,9.9c-2.2,0-4.5,2.8-0.7,4.7c3.7,2,2.2,1.6,6.3-1.6c4.1-3.2,13.4-9.1,13.4-9.1l0.4,6.7l-6.7,4.8
	c0,0-4.1,2.1,0,4.8c4.1,2.6,7.1-0.4,7.1-0.4s-0.4,4.8-0.7,7.1c-0.4,2.4-2.6,3.6,1.1,7.5c3.7,4,5.7,2.2,5.7-1.3s-0.9-18.5-0.9-18.5
	s4.5-1.2,5.2-3.2c0.7-2,0-2.4-3.7-2.4c-3.7,0-3.7-1.2-3.7-1.2l1.1-7.1c0,0,10.2-3,14.9-5.3c3.9-1.9,4-3.2,3.1-3.9
	c-1.2-0.9-4.5-0.7-6.7,0c-5.1,1.7-10.9,5.2-10.9,5.2l0.7-5.6c0,0,0.7-4.8,3.7-4.8c3,0,8.6-3.2,8.2-5.1c-0.4-2-1.4-1.5-4-1.1
	c-1,0.2-2.1-3-2.6-2.7c-1.9,1.2-0.4,6.6-4.5,5.9c-1-0.2,0.1-1.3-0.4-1.5c-1.2-0.4-2.5-0.2-3.3,1.2l-2.4,4.3c0,0-2.1-4.9-0.2-6.8
	c1.9-2,16.8-11.1,16.8-11.1s1.9-5.1-2.2-3.6c-4.1,1.6-11.2,8.7-11.2,8.7s-1.5,3.2-2.6,0.8c-1.1-2.4,0.7-4.8-1.1-5.1
	c-1.9-0.4-5.2-2.4-5.2,0.8c0,1.2-0.9,1.4-1.5,2c-0.8,0.8-0.7,1.2-0.6,1.4c0,0.3,0.1,0.4,0.8,0.7c1.2,0.5,1.3,2.7,1.3,2.7
	c-1.1,0.4-2.4,0.6-3,1.4C134.4,33.6,134.9,35.8,137.5,35.8"/>
<path class="st0" d="M239.1,29.4c0,0,2.2,1.8,2.2,3.9c0,2.1-3.2,8.3-6.1,11.5c-2.2,2.5-5.5,6.2-6.9,8c-0.6,0.8-1,1.4,0.2,1.9
	c1,0.4,2.4,0.5,3-0.4c0.9-1.4,13-15,14.7-17.2c1.8-2.3,1.6-4.4-0.4-6C241.5,27.6,239.1,29.4,239.1,29.4 M232.2,66.2
	c-0.5,7,0.6,8,1.7,8.1c1.1,0.1,4.3-0.2,4.1-7c-0.2-6.8-5.7-7.3-5.7-7.3L232.2,66.2z M242.5,58.2c-0.3,0.2-3.2,1.8-3.1,3.6
	c0.1,1.8,0.1,5.6,2.1,5.8c2,0.2,3.9-1.3,3.4-4.7C244.3,59.6,242.8,58,242.5,58.2 M243.3,45.9c0,0-4.5,6.4-6.3,7.7
	c-1.7,1.4,0.5,2.3,2.1,2.8c1.6,0.5,4.2,1.2,5-1.5c0.8-2.7,0.7-4.3,1.4-4.7c0.7-0.4,1.3-2.9,0.4-3.7C245,45.7,243.3,45.9,243.3,45.9
	 M247.2,60c0,0-0.7,3.3,1.6,2.8c2.3-0.5,5.4-3.3,5.4-1.8c0.1,1.5-0.1,17.2-0.1,18.5c0,1.3,1.7,2.7,2.5,2.7c0.9,0,2.8-0.9,2.8-4.7
	V61.3c0,0,2.4,1.8,6.2-4.9c2.7-4.6,0.8-5.9-0.6-6.3c-1.2-0.3-1.2-0.2-2.1,0.5c-1.2,0.8-3.3,2.2-4.2,2.2c-1.4,0-0.1-1.2-0.8-1.2
	c-0.7,0-2.6-0.5-2.6,0.4c0,0.9-0.1,5-0.1,5L247.2,60z M261,53.6c-0.5,0.6-1.9,2.4-1.2,2.8c0.7,0.4,1.7,0.8,2.5-0.4
	c0.7-1.3,2.6-2.4,1.4-2.8C262.5,52.7,261,53.6,261,53.6 M250.6,48.5c0.6,1.1,1.8,2.3,3.7,2.1c3.2-0.4,8.2-4.6,9.9-6.1
	c1.7-1.5,3.5-3.4,2.1-4.8c-1.4-1.4-2.9-1.1-5.6,1.1c-1.9,1.6-6.4,4.1-8.9,5.4C250.2,47,249.4,46.6,250.6,48.5"/>
<path class="st0" d="M314.4,29.7c-1.1-1.2-3.8-0.6-5.5,1.7c-1.7,2.3-1.6,5.1-0.8,5.5c0.9,0.5,5.1,0.4,7.6-2.6
	C317.6,31.9,314.4,29.7,314.4,29.7 M298,36.6c-1.4-0.8-3.3-1.1-4.1,0.1c-0.8,1.1-2.1,2.7,0.2,4.4c2.3,1.7,4.5,2.8,5.9,0.9
	C302.9,37.5,298,36.6,298,36.6 M309.8,47c1.8-0.2,1.2,1.9,0,2.9c-1.2,1-2.7,3.2-2.7,5.7s3.5,3.5,4.8,3.5c1.4,0,0.2-2.9,0.2-4.8
	c0-1.9,2.3-4.6,4.4-6.5c2.1-1.9,0.3-4.5-2.4-5.1c-2.7-0.6-6,3.8-6,3.8L309.8,47z M305.2,57.1l-1.7-1.8c0,0-0.6,8.1-1.5,11
	c-0.9,2.9,0.5,8.3,3.8,8.8c3.3,0.5,12.6,0.3,14.7-0.3c2.1-0.6,4.2-3.5,2.4-8.1c-1.8-4.6-2.7-5.9-3.5-5.7c-0.8,0.2-1.1,1.6-0.6,3.7
	c0.5,2.1,1.8,4.9-0.6,5.7c-2.4,0.8-11.7,2.7-12.2-2.2C305.7,63.1,306.4,60.2,305.2,57.1 M286,36.8c-1.8,1.3-4.9,4.6-4.6,7
	c0.4,3.3,1.6,4.7,4.1,4.2c2.2-0.4,3.6-7.4,3.3-10.6C288.7,35.4,287.3,35.9,286,36.8 M292.4,46.8l0,2.1l-2.5,1.6c0,0,0.4,1.5,2.2,1.1
	c1.9-0.4-0.2,3.2-1.5,3c-1.2-0.1-2.5-0.1-2.7,0.8c-0.2,0.9-4.4,0.7-4.4,0.7s-3.2,3.6-1.7,5.2c1.5,1.6,3.9-0.8,4.6-1.2
	c0.7-0.4,1.9-1.9,3.4-0.3c1.5,1.6,1.2,1.9-0.5,3c-1.7,1.2-1.1,2.1-0.2,2.8c0.9,0.7,1.1,1.7-1.7,1.7c-2.9,0-1.7-0.8-2-1.5
	c-0.2-0.7-5.4,1.7-6.4,4.6c-1,2.9,1.2,4.8,3.4,4.1c2.1-0.7,5.7-5.3,7.6-4.4c1.9,0.9,0.4,2-0.6,4.1c-1,2.1-0.5,6.1,1.2,7.7
	c1.7,1.6,3.4-1.8,3.4-4.1s-0.6-8.8,0.3-9.6c1-0.8,2.1-3.4,3.2-4.1c1.1-0.7,1.9-1.8,1.9-3.5c0-1.7-0.4-2.1-1.9-2.4
	c-1.5-0.3-0.6-3.2,0.2-3.4c0.9-0.2,2.5-1.4,2.4-2.6c-0.1-1.3-0.6-2.9-1.9-2.7c-1.3,0.1-0.5-2.2-2.5-3
	C293.7,45.7,292.3,45.7,292.4,46.8"/>
<path class="st0" d="M373.7,75.4c0,0-4.8,0.8-8.1-1c-3.3-1.8-8.4-5.4-8.4-5.4s-1.1-0.9-1.1,0.5c0,1.4,1.5,3.7,2.3,4.5
	c0.8,0.9,4,8.3,7.3,8.1C368.8,81.9,373.7,75.4,373.7,75.4 M357.2,41.5c0-1.8-1.7-5.9-3.6-7.7c-2-1.8-3.3-1.8-2.4,2.4
	c0.9,4.2,0,19.2-1.4,22.3c-1.4,3-4.8,4-9.1,4.5c-4.2,0.5-7.4-1.3-6,1.8c1.4,3,2.3,6.6,5.1,4.8c2.9-1.8,9.2-6.6,9.1-2.9
	c-0.2,3.7-5.1,12-12.4,10.7c0,0-1.2,3,3,3.8c4.2,0.8,13-6.4,12.4-17.6c0,0,9.8-4.2,13.7-6.1c3.9-1.9,1.1-3.7,0.2-4
	c-0.9-0.3-2.7-1.9-4.7-0.2c-2,1.8-6.5,5.8-7.5,4c-1.1-1.8,0.8-6.1,2.1-8.6C357.1,46.1,357.2,41.5,357.2,41.5"/>
<path class="st0" d="M210.5,45.8l-15.6,10l-0.2-3c0,0,11.3-10.5,12.6-11.7c1.3-1.3-1.7-4.3-2.7-2.9c-1,1.4-2.8,2.5-4,1.8
	c-1.2-0.7,1.6-3.1,1.1-4.9c-0.5-1.8-8.2-7.5-8.2-7.5l0.4,14.4c-0.1,3.3-7.5,6.3-10.3,6c-2.9-0.2-4.5-0.9-4.3,2.1
	c0.1,3,7.2,3.7,9,3.8c1.8,0.1,1.9,3.2,0.2,4c-1.7,0.7-9.1,4.5-11.5,5.6c-2.4,1.1-2.7,5.4-2.7,11.2c0,5.8,3.5,7.2,5.2,7.2
	c1.6,0,1.9-3.2,2-6.1c0.1-2.9-2.3-5.3-3-7.4c-0.7-2,6-5.6,7.4-5.7c1.5-0.1,1.4,2.2,2.5,3.5c1.1,1.3,3.1-0.2,3.9-1.1
	c0.8-0.9,2.4-0.9,2.8-0.1c0.3,0.8-0.8,1.2-2.6,1.9c-1.8,0.7-1.5,1.3-0.8,2.7c0.7,1.4-0.1,3.2-1.8,3.2c-1.7,0-2.2,2.2-2.2,2.2
	s0,0,0.1,0.6c0.2,0.6,4.2,5.3,6.1,5.7c1.9,0.4,2.8-1.2,4.7-5.7c1.9-4.5,5.6,1.7,6.9,3.9c1.3,2.1,5.5,5.5,5.8-0.5
	c0.3-6,2.2-19.5,4.2-27.9C217.5,42.9,210.5,45.8,210.5,45.8 M195.3,60.6c-1.3,1.2-3.5,1.3-4.4,0.5c-0.9-0.8,1.2-2.1,2.6-2.9
	c1.4-0.8,3.7-1.3,4.2-0.8C197.7,57.4,196.7,59.3,195.3,60.6 M209.1,65.9c0-0.1-0.5,10.4-2.6,9.7c-2.1-0.7-4.3-1.1-6-7.9
	c-1.6-6.8,4.6-9.7,4.9-9.9c0.3-0.2,0.8-1.5-0.8-1.9c-1.5-0.3-2-1.6-0.1-2.5c1.9-0.9,7-5.5,6.8-1.3C211.1,56.4,209.1,66,209.1,65.9"
	/>
<path class="st0" d="M416.6,44.3c0,0,3-5.9,5.3-7.8c2.3-1.8,1.9-4.9,0.4-6.4c-1.4-1.5-3.6-0.8-5.2,0.6c-1.6,1.4-9.9,7.3-10.7,7.3
	c-0.9,0-3-0.9-0.9-2.6c2.1-1.7,7.5-2,5.2-6.7c-2.3-4.7-5.1-2.4-5.1-2.4s1.3,2.7,1,4c-0.3,1.2-3.4,4.9-3.4,4.9l-10.7-6.5
	c0,0-1.9,0-1.9,1.2c0,1.2,0.7,2,2.3,3c1.6,1.1,3.6,2.6,3.6,5.3c0,2.7,0.3,7.4-0.6,7.1c-0.9-0.3-2.4-0.8-2.4-2.9c0-2.1-4-2.9-4.6-2.1
	c-0.6,0.8,0,2,0.4,4.9c0.4,2.9-0.9,5,0.7,5.6c1.6,0.6,2.7,0.6,2.7,2c0,1.4-10.6,10.2-9.7,11.5c0.9,1.4,1.3,4.6,4,3.6
	c2.7-0.9,15-11.4,18.6-13.7c3.6-2.3,11.2-8.1,12.6-6.7c1.4,1.4-5.9,7.6-8,8.1c-2.1,0.5-2.6-0.2-5.4,2c-2.9,2.1-6.4,3-5,3.8
	c1.4,0.8,5.9-0.9,5.6,0.6c-0.3,1.5,1,3.8-1,4.1c-2,0.3-6.6,0.9-9.9,2.6c-3.3,1.7-9.9,5.2-8.9,6.8c1,1.7,6,4.6,9.2,6.8
	c3.2,2.3,6,4.6,7.2,5.3c1.1,0.8,6.6,2,6.6-3.2c0-5.2-0.1-14.6-0.1-14.6h8.7c0,0,2-0.5,1.7-2.9c-0.3-2.4-2.4-4.1-3.6-4.1
	c-1.1,0-1.7,0.3-1.7,1.5h-3.9v-3c0,0,3.2-1.8,3.2-3.2c0-1.4-0.6-1.5,2-3.3c2.6-1.8,7.3-4.9,7.3-7.8C422.1,44.3,419,44.3,416.6,44.3
	 M398.5,39.2c-0.1-1.3,1.2-0.6,1.2-0.6s1.7,0.5,1.7,1.7c0,1.3-0.5,1.4-2,1.4C397.8,41.7,398.6,40.4,398.5,39.2 M398.5,46
	c2.4-0.7,2.6-1.6,2.7-0.5c0.1,1.1,0.2,1.3,1.2,1c1-0.2,1.4-0.7,1.3,0.8c-0.1,1.5-0.1,1.1-2.1,1.7c-2,0.6-1.7-0.5-3.3,1.3
	c-1.6,1.7-2.9,0.1-2.9,0.1S396.1,46.7,398.5,46 M397.8,56.5c-1,0.6-5.4,5.3-6.9,4.1c-1.5-1.3,3.8-5.5,5.1-6.6c0,0,8.4-4.9,9.4-3.8
	C406.6,51.4,398.8,55.9,397.8,56.5 M407.3,45.3c-1.1,0.3-1.7-0.3-2-1.4c-0.3-1,2.3-1,2.3-1s0.9,0.6,0.9,1.6
	C408.3,45.6,408.3,45,407.3,45.3 M415.5,42.6c-0.3,0.6-0.8,0.5-1.3,1.3c-0.5,0.8-0.6,1.1-0.8,2.4c-0.1,1.3-0.1,1.4-1.6,1.5
	c-1.5,0.1-1.2-0.8-1.2-1.6c0-0.8,0.1-0.9,0.1-2.3c0-1.4,0.3-0.2,1.3-0.8c1-0.6,1.1-1.1,1.6-2.4c0.5-1.3-0.1-1.4-1.1-1.9
	c-1-0.6-0.5-0.7-0.5-1.8c0-1.1,1.2-1,2.8-2.5c1.6-1.5,2.8-1.7,4.2-0.7c1.4,1-2.1,5.3-3,7.4C416.1,41.1,415.8,42,415.5,42.6
	 M402.9,83.7c-0.5,1.5-1.5-0.8-7.5-4.9c-6-4.1-2.9-3.3,0-4.7c2.9-1.5,7.6-2.4,7.6-2.4S403.4,82.2,402.9,83.7"/>
<path class="st1" d="M96.9,51.9c4.7,2.5,8.1,6,9.7,11c-2.9,1.4-5.9,2.8-8.8,4.2C100.7,62.1,100,57.1,96.9,51.9"/>
<path class="st1" d="M9.7,51.9c-4.7,2.5-8.1,6-9.7,11c2.9,1.4,5.9,2.8,8.8,4.2C6,62.1,6.7,57.1,9.7,51.9"/>
<path class="st2" d="M0,62.9v10.7c4.8,1.7,9.5,3.6,13,7c2.7-1.5,4.5-4.2,5.3-8.3C16.3,68.8,11.3,65.6,0,62.9"/>
<path class="st2" d="M106.7,62.9v10.7c-4.8,1.7-9.5,3.6-13,7c-2.7-1.5-4.5-4.2-5.3-8.3C90.4,68.8,95.3,65.6,106.7,62.9"/>
<path class="st1" d="M100.6,87.8c-5.8-4.1-10-8.5-12.2-13.4c-3.2,5-2.4,12,2.3,17.1C95.4,91.1,96,88.3,100.6,87.8"/>
<path class="st1" d="M5.6,88.5c6-4.7,10.7-9.4,12.7-14.3c3.2,5.3,1.9,12.8-2.8,18.1C10.9,91.8,10.3,88.9,5.6,88.5"/>
<path class="st0" d="M16.5,24.4h73v44.1c0,6.8-4.4,13.2-10.5,18.5c-7.6,6.6-17.9,11.6-25.8,13.4h-0.4c-10-2.3-19.5-7.2-26.3-14.2
	c-6.1-6.2-10-14.1-10-23.2V24.4z"/>
<path class="st2" d="M18.2,26v37c0,8.6,3.7,16.1,9.5,22.1c6.5,6.7,15.7,11.5,25.3,13.7c7.6-1.8,17.6-6.6,24.9-13
	c5.8-5.1,9.9-11.1,9.9-17.3V26H18.2z"/>
<polygon class="st0" points="28.4,28.5 34.6,28.5 34.6,44.3 40.7,52.4 40.9,52.7 40.7,52.9 37.2,57.7 36.8,58.2 36.5,57.7 31.5,51 
	20.3,66.4 19.5,66.2 19.5,56.9 19.6,56.7 28.4,44.3 "/>
<polygon class="st0" points="77.2,28.5 77.2,44.3 86,56.7 86.1,56.9 86.1,66.2 85.4,66.4 74.2,51 69.1,57.7 68.8,58.2 68.5,57.7 
	64.9,52.9 64.7,52.7 64.9,52.4 71.1,44.3 71.1,28.5 "/>
<polygon class="st3" points="76.4,29.3 71.9,29.3 71.9,44.5 71.8,44.7 65.8,52.7 68.8,56.8 73.9,50 74.2,49.6 74.5,50 85.3,64.9 
	85.3,57 76.5,44.7 76.4,44.5 "/>
<polygon class="st0" points="68.5,92.8 56.6,75.8 62.9,66.7 63,66.5 62.8,66.2 59.5,62 59.2,61.5 58.9,62 52.9,70.6 46.9,62 
	46.6,61.5 46.2,62 42.9,66.2 42.8,66.5 42.9,66.7 49.2,75.8 37.3,92.8 37.1,93.1 37.4,93.4 41.8,96.4 42.2,96.6 42.4,96.3 
	52.9,81.1 63.4,96.3 63.6,96.6 64,96.4 68.4,93.4 68.7,93.1 "/>
<polygon class="st3" points="67.6,92.9 55.6,75.8 62,66.5 59.2,62.9 52.9,72 46.6,62.9 43.8,66.5 50.2,75.8 38.2,92.9 41.9,95.5 
	52.9,79.7 63.8,95.5 "/>
<path class="st0" d="M5.6,90.1v9.6c5.6,1.5,10.4,2.8,16,4.9c10.3,3.7,21.3,8.1,31.9,8.2c10.8,0,20.9-5.3,31-9
	c5.3-1.9,10.5-3.9,16-3.7V89.3c-7.5,1.1-14.7,3.5-22.5,6.8c-7.6,3.2-15.7,6.8-23.9,6.6c-8.1-0.2-21.1-3.9-28.9-7
	C17.3,92.4,13.1,90.7,5.6,90.1"/>
<path class="st0" d="M0,64.9v10.7c4.8,1.7,9.5,3.6,13,7c2.7-1.5,4.5-4.2,5.3-8.3C16.3,70.8,11.3,67.6,0,64.9"/>
<path class="st0" d="M106.7,64.9v10.7c-4.8,1.7-9.5,3.6-13,7c-2.7-1.5-4.5-4.2-5.3-8.3C90.4,70.8,95.3,67.6,106.7,64.9"/>
<polygon class="st0" points="38.4,0 67.6,0 67.6,4.1 93.7,4.1 89.1,8.7 16.6,8.7 12,4.1 38.4,4.1 "/>
<path class="st0" d="M16.4,8.3h73.1v17.8H16.4V8.3z M26.3,13.6c0.5,0,0.4,1.4,0.4,1.4l-1.2,0.6c0,0-0.6,0.6,0.3,0.6
	c0.9,0,2-0.9,2-0.9L27.6,17c0,0-3.5,2-3.9,2c-0.5,0-0.9,0.6-0.1,1c0.8,0.4,0.5,0.3,1.3-0.3c0.8-0.6,2.7-1.8,2.7-1.8l0.1,1.4l-1.4,1
	c0,0-0.8,0.4,0,1c0.8,0.5,1.4-0.1,1.4-0.1s-0.1,1-0.2,1.4c-0.1,0.5-0.5,0.7,0.2,1.5c0.8,0.8,1.2,0.5,1.2-0.3c0-0.7-0.2-3.7-0.2-3.7
	s0.9-0.2,1.1-0.6c0.1-0.4,0-0.5-0.8-0.5c-0.8,0-0.8-0.2-0.8-0.2l0.2-1.4c0,0,2.1-0.6,3-1.1c0.8-0.4,0.8-0.6,0.6-0.8
	c-0.2-0.2-0.9-0.1-1.3,0c-1,0.3-2.2,1-2.2,1l0.1-1.1c0,0,0.2-1,0.8-1c0.6,0,1.7-0.6,1.7-1c-0.1-0.4-0.3-0.3-0.8-0.2
	c-0.2,0-0.4-0.6-0.5-0.5c-0.4,0.2-0.1,1.3-0.9,1.2c-0.2,0,0-0.3-0.1-0.3c-0.2-0.1-0.5,0-0.7,0.3l-0.5,0.9c0,0-0.4-1,0-1.4
	c0.4-0.4,3.4-2.2,3.4-2.2s0.4-1-0.5-0.7c-0.8,0.3-2.3,1.8-2.3,1.8s-0.3,0.6-0.5,0.2c-0.2-0.5,0.2-1-0.2-1c-0.4-0.1-1.1-0.5-1.1,0.2
	c0,0.2-0.2,0.3-0.3,0.4C26,11.7,26,11.8,26,11.8c0,0.1,0,0.1,0.2,0.1c0.3,0.1,0.3,0.5,0.3,0.5c-0.2,0.1-0.5,0.1-0.6,0.3
	C25.6,13.1,25.8,13.6,26.3,13.6 M46.8,12.3c0,0,0.4,0.4,0.4,0.8c0,0.4-0.6,1.7-1.2,2.3c-0.4,0.5-1.1,1.2-1.4,1.6
	c-0.1,0.2-0.2,0.3,0,0.4c0.2,0.1,0.5,0.1,0.6-0.1c0.2-0.3,2.6-3,3-3.5c0.4-0.5,0.3-0.9-0.1-1.2C47.2,11.9,46.8,12.3,46.8,12.3
	 M45.4,19.7c-0.1,1.4,0.1,1.6,0.3,1.6c0.2,0,0.9,0,0.8-1.4c0-1.4-1.2-1.5-1.2-1.5L45.4,19.7z M47.5,18.1c-0.1,0-0.6,0.4-0.6,0.7
	c0,0.4,0,1.1,0.4,1.2c0.4,0,0.8-0.3,0.7-0.9C47.8,18.3,47.5,18,47.5,18.1 M47.6,15.6c0,0-0.9,1.3-1.3,1.6c-0.3,0.3,0.1,0.5,0.4,0.6
	c0.3,0.1,0.8,0.2,1-0.3c0.2-0.5,0.1-0.9,0.3-1c0.1-0.1,0.3-0.6,0.1-0.7C48,15.6,47.6,15.6,47.6,15.6 M48.4,18.4c0,0-0.1,0.7,0.3,0.6
	c0.5-0.1,1.1-0.7,1.1-0.4c0,0.3,0,3.5,0,3.7c0,0.3,0.3,0.5,0.5,0.5c0.2,0,0.6-0.2,0.6-0.9v-3.3c0,0,0.5,0.4,1.3-1
	c0.5-0.9,0.2-1.2-0.1-1.3c-0.2-0.1-0.2,0-0.4,0.1c-0.2,0.2-0.7,0.4-0.9,0.4c-0.3,0,0-0.2-0.2-0.2c-0.1,0-0.5-0.1-0.5,0.1
	c0,0.2,0,1,0,1L48.4,18.4z M51.2,17.1c-0.1,0.1-0.4,0.5-0.2,0.6c0.1,0.1,0.4,0.2,0.5-0.1c0.1-0.3,0.5-0.5,0.3-0.6
	C51.5,17,51.2,17.1,51.2,17.1 M49.1,16.1c0.1,0.2,0.4,0.5,0.7,0.4c0.7-0.1,1.7-0.9,2-1.2c0.3-0.3,0.7-0.7,0.4-1
	c-0.3-0.3-0.6-0.2-1.1,0.2c-0.4,0.3-1.3,0.8-1.8,1.1C49,15.8,48.9,15.7,49.1,16.1 M62,12.3c-0.2-0.2-0.8-0.1-1.1,0.3
	c-0.3,0.5-0.3,1-0.2,1.1c0.2,0.1,1,0.1,1.5-0.5C62.6,12.8,62,12.3,62,12.3 M58.7,13.7c-0.3-0.2-0.7-0.2-0.8,0
	c-0.2,0.2-0.4,0.6,0,0.9c0.5,0.3,0.9,0.6,1.2,0.2C59.6,13.9,58.7,13.7,58.7,13.7 M61,15.8c0.4,0,0.2,0.4,0,0.6
	c-0.2,0.2-0.5,0.6-0.5,1.2c0,0.5,0.7,0.7,1,0.7c0.3,0,0-0.6,0-1c0-0.4,0.5-0.9,0.9-1.3c0.4-0.4,0.1-0.9-0.5-1
	c-0.5-0.1-1.2,0.8-1.2,0.8L61,15.8z M60.1,17.8l-0.3-0.4c0,0-0.1,1.6-0.3,2.2c-0.2,0.6,0.1,1.7,0.8,1.8c0.7,0.1,2.5,0.1,3-0.1
	c0.4-0.1,0.8-0.7,0.5-1.6c-0.4-0.9-0.5-1.2-0.7-1.2c-0.2,0-0.2,0.3-0.1,0.7c0.1,0.4,0.4,1-0.1,1.2c-0.5,0.2-2.4,0.5-2.5-0.4
	C60.2,19.1,60.4,18.5,60.1,17.8 M56.2,13.8c-0.4,0.3-1,0.9-0.9,1.4c0.1,0.7,0.3,0.9,0.8,0.9c0.4-0.1,0.7-1.5,0.7-2.1
	C56.8,13.5,56.5,13.6,56.2,13.8 M57.5,15.8l0,0.4L57,16.5c0,0,0.1,0.3,0.5,0.2c0.4-0.1,0,0.6-0.3,0.6c-0.3,0-0.5,0-0.6,0.2
	c0,0.2-0.9,0.1-0.9,0.1s-0.7,0.7-0.4,1c0.3,0.3,0.8-0.2,0.9-0.2c0.1-0.1,0.4-0.4,0.7-0.1c0.3,0.3,0.3,0.4-0.1,0.6
	c-0.4,0.2-0.2,0.4-0.1,0.6c0.2,0.1,0.2,0.3-0.4,0.3c-0.6,0-0.4-0.2-0.4-0.3c0-0.1-1.1,0.3-1.3,0.9c-0.2,0.6,0.3,1,0.7,0.8
	c0.4-0.1,1.2-1.1,1.5-0.9c0.4,0.2,0.1,0.4-0.1,0.8c-0.2,0.4-0.1,1.2,0.2,1.6c0.3,0.3,0.7-0.4,0.7-0.8c0-0.5-0.1-1.8,0.1-1.9
	c0.2-0.2,0.4-0.7,0.6-0.8c0.2-0.1,0.4-0.4,0.4-0.7c0-0.3-0.1-0.4-0.4-0.5c-0.3-0.1-0.1-0.6,0-0.7c0.2,0,0.5-0.3,0.5-0.5
	c0-0.3-0.1-0.6-0.4-0.6c-0.3,0-0.1-0.4-0.5-0.6C57.8,15.5,57.5,15.5,57.5,15.8 M73.9,21.5c0,0-1,0.2-1.6-0.2
	c-0.7-0.4-1.7-1.1-1.7-1.1s-0.2-0.2-0.2,0.1c0,0.3,0.3,0.7,0.5,0.9c0.2,0.2,0.8,1.7,1.5,1.6C72.9,22.8,73.9,21.5,73.9,21.5
	 M70.6,14.7c0-0.4-0.3-1.2-0.7-1.5c-0.4-0.4-0.7-0.4-0.5,0.5c0.2,0.8,0,3.9-0.3,4.5c-0.3,0.6-1,0.8-1.8,0.9
	c-0.9,0.1-1.5-0.3-1.2,0.4c0.3,0.6,0.5,1.3,1,1c0.6-0.4,1.9-1.3,1.8-0.6c0,0.7-1,2.4-2.5,2.2c0,0-0.2,0.6,0.6,0.8
	c0.9,0.2,2.6-1.3,2.5-3.6c0,0,2-0.8,2.8-1.2c0.8-0.4,0.2-0.7,0-0.8c-0.2-0.1-0.5-0.4-0.9,0c-0.4,0.4-1.3,1.2-1.5,0.8
	c-0.2-0.4,0.2-1.2,0.4-1.7C70.6,15.6,70.6,14.7,70.6,14.7 M37.7,14.8c0,0.7-1.5,1.3-2.1,1.2c-0.6,0-0.9-0.2-0.9,0.4
	c0,0.6,1.5,0.8,1.8,0.8c0.4,0,0.4,0.7,0,0.8c-0.3,0.1-1.8,0.9-2.3,1.1c-0.5,0.2-0.5,1.1-0.5,2.3s0.7,1.4,1,1.4
	c0.3,0,0.4-0.6,0.4-1.2c0-0.6-0.5-1.1-0.6-1.5C34.4,19.7,35.7,19,36,19c0.3,0,0.3,0.4,0.5,0.7c0.2,0.3,0.6,0,0.8-0.2
	c0.2-0.2,0.5-0.2,0.6,0c0.1,0.2-0.2,0.2-0.5,0.4c-0.4,0.1-0.3,0.3-0.2,0.5c0.1,0.3,0,0.6-0.4,0.6c-0.3,0-0.4,0.4-0.4,0.4s0,0,0,0.1
	c0,0.1,0.8,1.1,1.2,1.1c0.4,0.1,0.6-0.2,0.9-1.1c0.4-0.9,1.1,0.4,1.4,0.8c0.3,0.4,1.1,1.1,1.2-0.1c0.1-1.2,0.4-3.9,0.8-5.6
	c0.4-1.7-1-1.1-1-1.1l-3.1,2l0-0.6c0,0,2.3-2.1,2.6-2.4c0.3-0.3-0.3-0.9-0.5-0.6c-0.2,0.3-0.6,0.5-0.8,0.4c-0.2-0.1,0.3-0.6,0.2-1
	c-0.1-0.4-1.7-1.5-1.7-1.5L37.7,14.8z M40.7,19.6c0,0,0.4-1.9,0.5-2.8c0-0.9-1,0.1-1.4,0.3c-0.4,0.2-0.3,0.4,0,0.5
	c0.3,0.1,0.2,0.3,0.2,0.4c-0.1,0-1.3,0.6-1,2c0.3,1.4,0.8,1.5,1.2,1.6C40.6,21.7,40.7,19.6,40.7,19.6 M38.4,17.9
	c-0.1-0.1-0.6,0-0.8,0.2c-0.3,0.2-0.7,0.4-0.5,0.6c0.2,0.2,0.6,0.1,0.9-0.1C38.2,18.3,38.4,17.9,38.4,17.9 M80.4,11.6
	c0,0,0.3,0.6,0.2,0.8c-0.1,0.2-0.7,1-0.7,1l-2.2-1.3c0,0-0.4,0-0.4,0.2c0,0.2,0.1,0.4,0.5,0.6c0.3,0.2,0.7,0.5,0.7,1.1
	c0,0.6,0.1,1.5-0.1,1.4c-0.2-0.1-0.5-0.2-0.5-0.6c0-0.4-0.8-0.6-0.9-0.4c-0.1,0.2,0,0.4,0.1,1c0.1,0.6-0.2,1,0.1,1.1
	c0.3,0.1,0.5,0.1,0.5,0.4c0,0.3-2.1,2.1-2,2.3c0.2,0.3,0.3,0.9,0.8,0.7c0.5-0.2,3-2.3,3.8-2.8c0.7-0.5,2.3-1.6,2.5-1.3
	c0.3,0.3-1.2,1.5-1.6,1.6c-0.4,0.1-0.5,0-1.1,0.4c-0.6,0.4-1.3,0.6-1,0.8c0.3,0.2,1.2-0.2,1.1,0.1c-0.1,0.3,0.2,0.8-0.2,0.8
	c-0.4,0.1-1.3,0.2-2,0.5c-0.7,0.3-2,1-1.8,1.4c0.2,0.3,1.2,0.9,1.8,1.4c0.6,0.5,1.2,0.9,1.4,1.1c0.2,0.2,1.3,0.4,1.3-0.6
	c0-1,0-2.9,0-2.9h1.8c0,0,0.4-0.1,0.3-0.6C83,19.4,82.5,19,82.3,19c-0.2,0-0.3,0.1-0.3,0.3h-0.8v-0.6c0,0,0.6-0.4,0.6-0.6
	c0-0.3-0.1-0.3,0.4-0.7c0.5-0.4,1.5-1,1.5-1.6c0-0.6-0.6-0.6-1.1-0.6c0,0,0.6-1.2,1.1-1.6c0.5-0.4,0.4-1,0.1-1.3
	c-0.3-0.3-0.7-0.2-1,0.1c-0.3,0.3-2,1.5-2.2,1.5c-0.2,0-0.6-0.2-0.2-0.5c0.4-0.3,1.5-0.4,1-1.3C80.9,11.2,80.4,11.6,80.4,11.6
	 M79.8,20.8c0,0-1,0.2-1.5,0.5c-0.6,0.3-1.2,0.1,0,1c1.2,0.8,1.4,1.3,1.5,1C79.9,22.9,79.8,20.8,79.8,20.8 M78.3,16.5
	c0,0,0.3,0.3,0.6,0c0.3-0.3,0.3-0.1,0.7-0.3c0.4-0.1,0.4,0,0.4-0.3c0-0.3-0.1-0.2-0.3-0.2c-0.2,0-0.2,0-0.2-0.2c0-0.2-0.1,0-0.5,0.1
	C78.4,15.7,78.3,16.5,78.3,16.5 M78.4,17.2c-0.3,0.2-1.3,1.1-1,1.3c0.3,0.3,1.2-0.7,1.4-0.8c0.2-0.1,1.8-1,1.6-1.3
	C80.1,16.2,78.4,17.2,78.4,17.2 M79.2,14.1c0,0-0.3-0.1-0.2,0.1c0,0.3-0.1,0.5,0.2,0.5c0.3,0,0.4,0,0.4-0.3
	C79.5,14.2,79.2,14.1,79.2,14.1 M80.7,15c0,0-0.5,0-0.5,0.2c0.1,0.2,0.2,0.3,0.4,0.3c0.2-0.1,0.2,0,0.2-0.2
	C80.9,15.1,80.7,15,80.7,15 M82.5,14.6c0.2-0.4,0.9-1.3,0.6-1.5c-0.3-0.2-0.5-0.2-0.8,0.1c-0.3,0.3-0.6,0.3-0.6,0.5
	c0,0.2-0.1,0.3,0.1,0.4c0.2,0.1,0.3,0.1,0.2,0.4c-0.1,0.3-0.1,0.4-0.3,0.5c-0.2,0.1-0.3-0.1-0.3,0.2c0,0.3,0,0.3,0,0.5
	c0,0.2-0.1,0.3,0.2,0.3c0.3,0,0.3,0,0.3-0.3c0-0.3,0-0.3,0.2-0.5c0.1-0.2,0.2-0.1,0.3-0.3C82.4,14.8,82.5,14.6,82.5,14.6"/>
<path class="st3" d="M26.3,13.6c0.5,0,0.4,1.4,0.4,1.4l-1.2,0.6c0,0-0.6,0.6,0.3,0.6c0.9,0,2-0.9,2-0.9L27.6,17c0,0-3.5,2-3.9,2
	c-0.5,0-0.9,0.6-0.2,1c0.8,0.4,0.5,0.3,1.3-0.3c0.8-0.6,2.7-1.8,2.7-1.8l0.1,1.4l-1.4,1c0,0-0.8,0.4,0,1c0.8,0.5,1.4-0.1,1.4-0.1
	s-0.1,1-0.1,1.4c-0.1,0.5-0.5,0.7,0.2,1.5c0.8,0.8,1.2,0.5,1.2-0.3c0-0.7-0.2-3.7-0.2-3.7s0.9-0.2,1.1-0.6c0.1-0.4,0-0.5-0.8-0.5
	c-0.8,0-0.8-0.2-0.8-0.2l0.2-1.4c0,0,2.1-0.6,3-1.1c0.8-0.4,0.8-0.6,0.6-0.8c-0.2-0.2-0.9-0.1-1.3,0c-1,0.3-2.2,1-2.2,1l0.1-1.1
	c0,0,0.1-1,0.8-1c0.6,0,1.7-0.6,1.7-1c-0.1-0.4-0.3-0.3-0.8-0.2c-0.2,0-0.4-0.6-0.5-0.5c-0.4,0.2-0.1,1.3-0.9,1.2
	c-0.2,0,0-0.3-0.1-0.3c-0.2-0.1-0.5,0-0.7,0.3l-0.5,0.9c0,0-0.4-1,0-1.4c0.4-0.4,3.4-2.2,3.4-2.2s0.4-1-0.5-0.7
	c-0.8,0.3-2.3,1.8-2.3,1.8s-0.3,0.6-0.5,0.2c-0.2-0.5,0.2-1-0.2-1s-1.1-0.5-1.1,0.2c0,0.2-0.2,0.3-0.3,0.4C26,11.7,26,11.8,26,11.8
	c0,0.1,0,0.1,0.2,0.1c0.3,0.1,0.3,0.5,0.3,0.5c-0.2,0.1-0.5,0.1-0.6,0.3C25.6,13.1,25.8,13.6,26.3,13.6"/>
<path class="st3" d="M46.8,12.3c0,0,0.4,0.4,0.4,0.8c0,0.4-0.6,1.7-1.2,2.3c-0.4,0.5-1.1,1.2-1.4,1.6c-0.1,0.2-0.2,0.3,0,0.4
	c0.2,0.1,0.5,0.1,0.6-0.1c0.2-0.3,2.6-3,3-3.5c0.4-0.5,0.3-0.9-0.1-1.2C47.2,11.9,46.8,12.3,46.8,12.3 M45.4,19.7
	c-0.1,1.4,0.1,1.6,0.3,1.6c0.2,0,0.9,0,0.8-1.4c0-1.4-1.2-1.5-1.2-1.5L45.4,19.7z M47.5,18.1c-0.1,0-0.6,0.4-0.6,0.7
	c0,0.4,0,1.1,0.4,1.2c0.4,0,0.8-0.3,0.7-0.9C47.8,18.3,47.5,18,47.5,18.1 M47.6,15.6c0,0-0.9,1.3-1.3,1.6c-0.3,0.3,0.1,0.5,0.4,0.6
	c0.3,0.1,0.8,0.2,1-0.3c0.2-0.5,0.1-0.9,0.3-1c0.1-0.1,0.3-0.6,0.1-0.7C48,15.6,47.6,15.6,47.6,15.6 M48.4,18.4c0,0-0.1,0.7,0.3,0.6
	c0.5-0.1,1.1-0.7,1.1-0.4c0,0.3,0,3.5,0,3.7c0,0.3,0.3,0.5,0.5,0.5c0.2,0,0.6-0.2,0.6-0.9v-3.3c0,0,0.5,0.4,1.3-1
	c0.5-0.9,0.2-1.2-0.1-1.3c-0.2-0.1-0.2,0-0.4,0.1c-0.2,0.2-0.7,0.4-0.9,0.4c-0.3,0,0-0.2-0.2-0.2c-0.1,0-0.5-0.1-0.5,0.1
	c0,0.2,0,1,0,1L48.4,18.4z M51.2,17.1c-0.1,0.1-0.4,0.5-0.2,0.6c0.1,0.1,0.3,0.2,0.5-0.1c0.1-0.3,0.5-0.5,0.3-0.6
	C51.5,17,51.2,17.1,51.2,17.1 M49.1,16.1c0.1,0.2,0.4,0.5,0.7,0.4c0.7-0.1,1.7-0.9,2-1.2c0.3-0.3,0.7-0.7,0.4-1
	c-0.3-0.3-0.6-0.2-1.1,0.2c-0.4,0.3-1.3,0.8-1.8,1.1C49,15.8,48.9,15.7,49.1,16.1"/>
<path class="st3" d="M62,12.3c-0.2-0.2-0.8-0.1-1.1,0.3c-0.3,0.5-0.3,1-0.2,1.1c0.2,0.1,1,0.1,1.5-0.5C62.6,12.8,62,12.3,62,12.3
	 M58.7,13.7c-0.3-0.2-0.7-0.2-0.8,0c-0.2,0.2-0.4,0.5,0,0.9c0.5,0.3,0.9,0.6,1.2,0.2C59.6,13.9,58.7,13.7,58.7,13.7 M61,15.8
	c0.4,0,0.2,0.4,0,0.6c-0.2,0.2-0.5,0.6-0.5,1.2c0,0.5,0.7,0.7,1,0.7c0.3,0,0-0.6,0-1c0-0.4,0.5-0.9,0.9-1.3c0.4-0.4,0.1-0.9-0.5-1
	c-0.5-0.1-1.2,0.8-1.2,0.8L61,15.8z M60.1,17.8l-0.3-0.4c0,0-0.1,1.6-0.3,2.2c-0.2,0.6,0.1,1.7,0.8,1.8c0.7,0.1,2.5,0.1,3-0.1
	c0.4-0.1,0.8-0.7,0.5-1.6c-0.4-0.9-0.5-1.2-0.7-1.2c-0.2,0-0.2,0.3-0.1,0.7c0.1,0.4,0.4,1-0.1,1.2c-0.5,0.2-2.4,0.5-2.5-0.5
	C60.2,19.1,60.4,18.5,60.1,17.8 M56.2,13.8c-0.4,0.3-1,0.9-0.9,1.4c0.1,0.7,0.3,0.9,0.8,0.9c0.4-0.1,0.7-1.5,0.7-2.1
	C56.8,13.5,56.5,13.6,56.2,13.8 M57.5,15.8l0,0.4L57,16.5c0,0,0.1,0.3,0.5,0.2c0.4-0.1,0,0.6-0.3,0.6c-0.3,0-0.5,0-0.6,0.2
	c0,0.2-0.9,0.1-0.9,0.1s-0.7,0.7-0.4,1c0.3,0.3,0.8-0.2,0.9-0.2c0.1-0.1,0.4-0.4,0.7-0.1c0.3,0.3,0.3,0.4-0.1,0.6
	c-0.4,0.2-0.2,0.4-0.1,0.6c0.2,0.1,0.2,0.3-0.4,0.3c-0.6,0-0.4-0.2-0.4-0.3C56,19.5,55,20,54.8,20.6c-0.2,0.6,0.3,1,0.7,0.8
	c0.4-0.1,1.2-1.1,1.5-0.9c0.4,0.2,0.1,0.4-0.1,0.8c-0.2,0.4-0.1,1.2,0.2,1.6c0.3,0.3,0.7-0.4,0.7-0.8c0-0.5-0.1-1.8,0.1-1.9
	c0.2-0.2,0.4-0.7,0.6-0.8c0.2-0.1,0.4-0.4,0.4-0.7c0-0.3-0.1-0.4-0.4-0.5c-0.3-0.1-0.1-0.6,0-0.7c0.2,0,0.5-0.3,0.5-0.5
	c0-0.3-0.1-0.6-0.4-0.6c-0.3,0-0.1-0.4-0.5-0.6C57.8,15.5,57.5,15.5,57.5,15.8"/>
<path class="st3" d="M73.9,21.5c0,0-1,0.2-1.6-0.2c-0.7-0.4-1.7-1.1-1.7-1.1s-0.2-0.2-0.2,0.1c0,0.3,0.3,0.7,0.5,0.9
	c0.2,0.2,0.8,1.7,1.5,1.6C72.9,22.8,73.9,21.5,73.9,21.5 M70.6,14.7c0-0.4-0.3-1.2-0.7-1.6c-0.4-0.4-0.7-0.4-0.5,0.5
	c0.2,0.8,0,3.9-0.3,4.5c-0.3,0.6-1,0.8-1.8,0.9c-0.9,0.1-1.5-0.3-1.2,0.4c0.3,0.6,0.5,1.3,1,1c0.6-0.4,1.9-1.3,1.8-0.6
	c0,0.7-1,2.4-2.5,2.2c0,0-0.2,0.6,0.6,0.8c0.9,0.2,2.6-1.3,2.5-3.6c0,0,2-0.8,2.8-1.2c0.8-0.4,0.2-0.7,0-0.8c-0.2-0.1-0.5-0.4-0.9,0
	c-0.4,0.4-1.3,1.2-1.5,0.8c-0.2-0.4,0.2-1.2,0.4-1.7C70.6,15.6,70.6,14.7,70.6,14.7"/>
<path class="st3" d="M41,15.6l-3.1,2l0-0.6c0,0,2.3-2.1,2.6-2.4c0.3-0.3-0.3-0.9-0.5-0.6c-0.2,0.3-0.6,0.5-0.8,0.4
	c-0.2-0.1,0.3-0.6,0.2-1c-0.1-0.4-1.7-1.5-1.7-1.5l0.1,2.9c0,0.7-1.5,1.3-2.1,1.2c-0.6,0-0.9-0.2-0.9,0.4c0,0.6,1.5,0.8,1.8,0.8
	c0.4,0,0.4,0.7,0,0.8c-0.3,0.1-1.8,0.9-2.3,1.1c-0.5,0.2-0.5,1.1-0.5,2.3s0.7,1.4,1,1.4c0.3,0,0.4-0.6,0.4-1.2
	c0-0.6-0.5-1.1-0.6-1.5C34.4,19.7,35.7,19,36,19c0.3,0,0.3,0.4,0.5,0.7c0.2,0.3,0.6,0,0.8-0.2c0.2-0.2,0.5-0.2,0.6,0
	c0.1,0.2-0.2,0.2-0.5,0.4c-0.4,0.1-0.3,0.3-0.2,0.5c0.1,0.3,0,0.6-0.4,0.6c-0.3,0-0.4,0.4-0.4,0.4s0,0,0,0.1c0,0.1,0.8,1.1,1.2,1.1
	c0.4,0.1,0.6-0.2,0.9-1.1c0.4-0.9,1.1,0.4,1.4,0.8c0.3,0.4,1.1,1.1,1.2-0.1c0.1-1.2,0.4-3.9,0.8-5.6C42.4,15,41,15.6,41,15.6
	 M37.9,18.5c-0.3,0.2-0.7,0.3-0.9,0.1c-0.2-0.2,0.2-0.4,0.5-0.6c0.3-0.2,0.8-0.3,0.8-0.2C38.4,17.9,38.2,18.3,37.9,18.5 M40.7,19.6
	c0,0-0.1,2.1-0.5,2c-0.4-0.1-0.9-0.2-1.2-1.6c-0.3-1.4,0.9-2,1-2c0.1,0,0.2-0.3-0.2-0.4c-0.3-0.1-0.4-0.3,0-0.5
	c0.4-0.2,1.4-1.1,1.4-0.3C41.1,17.7,40.7,19.6,40.7,19.6"/>
<path class="st3" d="M82.6,15.3c0,0,0.6-1.2,1.1-1.6c0.5-0.4,0.4-1,0.1-1.3c-0.3-0.3-0.7-0.2-1,0.1c-0.3,0.3-2,1.5-2.2,1.5
	c-0.2,0-0.6-0.2-0.2-0.5c0.4-0.3,1.5-0.4,1.1-1.3c-0.5-0.9-1-0.5-1-0.5s0.3,0.6,0.2,0.8c-0.1,0.2-0.7,1-0.7,1l-2.2-1.3
	c0,0-0.4,0-0.4,0.2s0.1,0.4,0.5,0.6c0.3,0.2,0.7,0.5,0.7,1.1c0,0.6,0.1,1.5-0.1,1.4c-0.2-0.1-0.5-0.2-0.5-0.6c0-0.4-0.8-0.6-0.9-0.4
	c-0.1,0.2,0,0.4,0.1,1c0.1,0.6-0.2,1,0.1,1.1c0.3,0.1,0.5,0.1,0.5,0.4c0,0.3-2.1,2.1-2,2.3c0.2,0.3,0.3,0.9,0.8,0.7
	c0.5-0.2,3-2.3,3.8-2.8c0.7-0.5,2.3-1.6,2.5-1.3c0.3,0.3-1.2,1.5-1.6,1.6c-0.4,0.1-0.5,0-1.1,0.4c-0.6,0.4-1.3,0.6-1,0.8
	c0.3,0.2,1.2-0.2,1.1,0.1c-0.1,0.3,0.2,0.8-0.2,0.8c-0.4,0.1-1.3,0.2-2,0.5c-0.7,0.3-2,1-1.8,1.4c0.2,0.3,1.2,0.9,1.8,1.4
	c0.6,0.5,1.2,0.9,1.4,1.1c0.2,0.2,1.3,0.4,1.3-0.6s0-2.9,0-2.9h1.8c0,0,0.4-0.1,0.3-0.6C83,19.4,82.5,19,82.3,19
	c-0.2,0-0.3,0.1-0.3,0.3h-0.8v-0.6c0,0,0.6-0.4,0.6-0.6c0-0.3-0.1-0.3,0.4-0.7c0.5-0.4,1.5-1,1.5-1.6C83.7,15.3,83.1,15.3,82.6,15.3
	 M78.9,14.2c0-0.3,0.2-0.1,0.2-0.1s0.3,0.1,0.3,0.3c0,0.3-0.1,0.3-0.4,0.3C78.8,14.7,78.9,14.5,78.9,14.2 M78.9,15.6
	c0.5-0.1,0.5-0.3,0.5-0.1c0,0.2,0,0.3,0.2,0.2c0.2,0,0.3-0.1,0.3,0.2c0,0.3,0,0.2-0.4,0.3c-0.4,0.1-0.3-0.1-0.7,0.3
	c-0.3,0.3-0.6,0-0.6,0S78.4,15.7,78.9,15.6 M78.8,17.7c-0.2,0.1-1.1,1.1-1.4,0.8c-0.3-0.3,0.8-1.1,1-1.3c0,0,1.7-1,1.9-0.8
	C80.6,16.7,79,17.6,78.8,17.7 M80.7,15.5c-0.2,0.1-0.3-0.1-0.4-0.3C80.2,15,80.7,15,80.7,15s0.2,0.1,0.2,0.3
	C80.9,15.5,80.9,15.4,80.7,15.5 M82.4,14.9c-0.1,0.1-0.2,0.1-0.3,0.3c-0.1,0.2-0.1,0.2-0.2,0.5c0,0.3,0,0.3-0.3,0.3
	c-0.3,0-0.2-0.2-0.2-0.3c0-0.2,0-0.2,0-0.5c0-0.3,0.1,0,0.3-0.2c0.2-0.1,0.2-0.2,0.3-0.5c0.1-0.3,0-0.3-0.2-0.4
	c-0.2-0.1-0.1-0.1-0.1-0.4c0-0.2,0.2-0.2,0.6-0.5c0.3-0.3,0.6-0.3,0.8-0.1c0.3,0.2-0.4,1.1-0.6,1.5C82.5,14.6,82.4,14.8,82.4,14.9
	 M79.8,23.2c-0.1,0.3-0.3-0.2-1.5-1c-1.2-0.8-0.6-0.7,0-1c0.6-0.3,1.5-0.5,1.5-0.5S79.9,22.9,79.8,23.2"/>
<polygon class="st0" points="22.4,79.7 47.8,43.4 47.8,28.7 48.3,28.7 57.4,28.7 57.8,28.7 57.8,43.4 84,80.7 83.3,81.2 57,43.8 
	56.9,43.6 56.9,29.6 56.3,29.6 52.9,31.3 49.6,29.6 48.8,29.6 48.8,43.6 48.7,43.8 23.1,80.2 "/>
<polygon class="st4" points="38.4,7.8 38.4,5.4 16.3,5.4 18.6,7.8 "/>
<polygon class="st4" points="67.6,5.4 67.6,7.8 87.3,7.8 89.4,5.4 "/>
<path class="st3" d="M45,1.3v6.3h-2.3V4l-1.8,0.6V2.8c1.4,0,2.2-0.5,2.4-1.4H45z M46.9,6.1L48.7,6c0.1,0.3,0.4,0.5,0.8,0.5
	c0.7,0,1-0.5,1-1.4c-0.5,0.3-1,0.5-1.6,0.4c-1.4-0.1-2.1-0.7-2.3-2c0-1.4,1-2.2,2.7-2.2c2.1,0,3.1,1.1,3.1,3.2
	c-0.1,2.1-1.1,3.1-2.9,3.1C48,7.7,47.1,7.2,46.9,6.1 M49.5,4.3c0.6,0,0.9-0.3,0.9-0.9c-0.1-0.5-0.3-0.7-0.9-0.8
	c-0.5,0-0.8,0.3-0.9,0.9C48.8,4,49,4.3,49.5,4.3 M52.9,5.5h1.9c0,0.3,0.1,0.5,0.3,0.7c0.2,0.1,0.4,0.2,0.7,0.2
	c0.6,0,0.9-0.3,0.9-0.7c0-0.5-0.4-0.7-1.3-0.7V3.9c0.8,0,1.2-0.2,1.2-0.6c0-0.4-0.3-0.6-0.8-0.6c-0.5,0-0.8,0.2-0.9,0.7h-1.8
	c0.1-1.3,1-2,2.8-2c1.7,0,2.6,0.6,2.6,1.7c0,0.6-0.3,1-0.8,1.2c0.6,0.2,1,0.7,1,1.3c0,1.4-1,2.1-3.1,2.1C53.9,7.7,52.9,6.9,52.9,5.5
	 M59.1,5.5h1.9c0,0.3,0.1,0.5,0.3,0.7c0.2,0.1,0.4,0.2,0.7,0.2c0.6,0,0.9-0.3,0.9-0.7C63,5.2,62.6,5,61.7,5V3.9
	c0.8,0,1.2-0.2,1.2-0.6c0-0.4-0.3-0.6-0.8-0.6c-0.5,0-0.8,0.2-0.9,0.7h-1.8c0.1-1.3,1-2,2.8-2c1.7,0,2.6,0.6,2.6,1.7
	c0,0.6-0.3,1-0.8,1.2c0.6,0.2,1,0.7,1,1.3c0,1.4-1,2.1-3.1,2.1C60.1,7.7,59.2,6.9,59.1,5.5"/>
<path class="st5" d="M25.6,82.8l27-38.4l27.8,38.7l-2.3,2.5c1.8-1.6,3.4-3.2,4.8-5L57,43.8l-0.1-0.3v-14h-0.6l-3.4,1.7l-3.3-1.7
	h-0.9v14l-0.1,0.3l-25.3,36C24.1,80.9,24.8,81.9,25.6,82.8"/>
<polygon class="st3" points="29.3,29.3 29.3,44.5 29.2,44.7 20.4,57 20.4,64.9 31.1,50 31.5,49.6 31.8,50 36.8,56.8 39.9,52.7 
	33.8,44.7 33.7,44.5 33.7,29.3 "/>
<polygon class="st0" points="31.6,30.8 31.6,46.6 38.5,54.5 38.3,54.9 31.4,47 22.2,59.2 21.8,59 31.1,46.6 31.1,30.8 "/>
<path class="st0" d="M22,59.5c0.3,0,0.5-0.2,0.5-0.5c0-0.3-0.2-0.5-0.5-0.5c-0.3,0-0.5,0.2-0.5,0.5C21.5,59.3,21.7,59.5,22,59.5"/>
<path class="st0" d="M31.4,31.3c0.3,0,0.5-0.2,0.5-0.5c0-0.3-0.2-0.5-0.5-0.5s-0.5,0.2-0.5,0.5C30.9,31.1,31.2,31.3,31.4,31.3"/>
<polygon class="st0" points="74.1,30.8 74.1,45.7 67.1,54.5 67.4,54.9 74.3,46.1 83.5,59.2 83.8,59 74.5,45.7 74.5,30.8 "/>
<path class="st0" d="M83.7,59.5c0.3,0,0.5-0.2,0.5-0.5c0-0.3-0.2-0.5-0.5-0.5c-0.3,0-0.5,0.2-0.5,0.5C83.2,59.3,83.4,59.5,83.7,59.5
	"/>
<path class="st0" d="M74.2,31.3c0.3,0,0.5-0.2,0.5-0.5c0-0.3-0.2-0.5-0.5-0.5c-0.3,0-0.5,0.2-0.5,0.5C73.8,31.1,74,31.3,74.2,31.3"
	/>
<polygon class="st0" points="53.1,45.2 53.1,34 52.2,34 52.2,45 52.6,44.5 "/>
<polygon class="st0" points="25.6,82.8 52.6,44.5 80.7,83.5 77.7,86.1 52.8,50.5 27.8,86.1 "/>
<polygon class="st6" points="45.4,64.3 52.9,75.2 60.3,64.5 60.7,64.7 53.1,75.5 65.8,93.9 65.4,94.1 52.9,75.9 40.1,94.2 39.8,94 
	52.6,75.5 45.1,64.5 "/>
<path class="st0" d="M52.9,76c0.3,0,0.5-0.2,0.5-0.5s-0.2-0.5-0.5-0.5c-0.3,0-0.5,0.2-0.5,0.5S52.6,76,52.9,76"/>
<path class="st4" d="M0,75.5v1.6c4.4,1.5,8.4,3.2,11.6,6.3c0.5-0.3,1-0.6,1.5-0.9l0,0C9.5,79.1,4.8,77.2,0,75.5"/>
<path class="st4" d="M106.7,75.5v1.6c-4.4,1.5-8.4,3.2-11.6,6.3c-0.5-0.3-1-0.6-1.5-0.9c0,0,0,0,0,0
	C97.2,79.1,101.8,77.2,106.7,75.5"/>
<path class="st2" d="M5.6,88.5v1.6c7.4,0.7,11.6,2.4,19.6,5.6c7.8,3.1,20.8,6.8,28.9,7c8.3,0.2,16.3-3.4,23.9-6.6
	c7.8-3.3,15-5.6,22.5-6.8v-1.6c-7.5,1.1-14.7,3.5-22.5,6.8c-7.6,3.2-15.7,6.8-23.9,6.6c-8.1-0.2-21.1-3.9-28.9-7
	C17.3,90.8,13.1,89.1,5.6,88.5"/>
<path class="st4" d="M5.6,99.7v1.7c5.6,1.5,10.4,2.8,16,4.9c10.3,3.7,21.3,8.1,31.9,8.2c10.8,0,20.9-5.3,31-9
	c5.3-1.9,10.5-3.9,16-3.7v-1.7c-5.5-0.2-10.7,1.8-16,3.7c-10.1,3.7-20.3,9-31,9c-10.6,0-21.7-4.4-31.9-8.2
	C16.1,102.5,11.3,101.2,5.6,99.7"/>
<path class="st3" d="M11.1,97.1l0.1-1l0.2,0.1c0,0.6,0.2,0.9,0.6,1c0.3,0.1,0.5,0,0.6-0.4c0.1-0.2-0.1-0.5-0.5-0.9
	c-0.4-0.5-0.6-0.9-0.5-1.3c0.1-0.5,0.5-0.7,1.1-0.6c0.1,0,0.3,0.1,0.5,0.3c0.1,0,0.1,0.1,0.1,0.1c0,0,0,0,0.1,0c0,0,0,0,0,0l0.1,0
	l-0.1,0.9l-0.2-0.1c0-0.5-0.2-0.8-0.6-0.9c-0.3-0.1-0.4,0-0.5,0.2c0,0.2,0.1,0.4,0.4,0.8c0.3,0.3,0.5,0.5,0.6,0.7
	c0.1,0.3,0.2,0.5,0.1,0.8c-0.2,0.6-0.6,0.8-1.2,0.6c-0.2-0.1-0.4-0.2-0.6-0.3c-0.1-0.1-0.1-0.1-0.1-0.1c-0.1,0-0.1,0-0.1,0.1
	L11.1,97.1z"/>
<path class="st3" d="M35.3,102.8l0-0.2l1.4,0.4l0,0.2l-0.1,0c-0.2-0.1-0.4,0-0.4,0.3l-0.5,2.1c-0.1,0.3,0,0.4,0.3,0.5l0.1,0l0,0.2
	l-1.4-0.4l0-0.2l0.1,0c0.2,0.1,0.4,0,0.4-0.3l0.5-2.1C35.6,103,35.6,102.9,35.3,102.8L35.3,102.8z"/>
<path class="st3" d="M13.9,96.4c0.3-1.1,1.1-1.4,2.1-1.2c1,0.4,1.3,1.2,1.1,2.2c-0.4,1.1-1.1,1.4-2.1,1.1
	C14.1,98.1,13.7,97.4,13.9,96.4 M14.6,96.4c-0.2,1.1,0,1.7,0.6,2c0.6,0.2,1-0.2,1.3-1c0.2-1,0-1.7-0.6-2
	C15.2,95.2,14.8,95.6,14.6,96.4"/>
<path class="st3" d="M20,97l0.1-0.2l1.1,0.4l-0.1,0.2l0,0c-0.3-0.1-0.5,0-0.5,0.3L20.3,99c-0.2,0.9-0.8,1.2-1.6,0.9
	c-0.8-0.3-1.2-0.9-1-1.6l0.4-1.5c0.1-0.2,0-0.4-0.2-0.5l-0.1,0l0.1-0.2l1.4,0.5l-0.1,0.2l-0.1,0c-0.2-0.1-0.3,0-0.4,0.2l-0.4,1.5
	c-0.1,0.6,0,0.9,0.6,1.1c0.5,0.2,0.9,0,1.1-0.6l0.3-1.3C20.4,97.4,20.4,97.1,20,97L20,97z"/>
<path class="st3" d="M30.6,103.3l0.2,0.1c-0.1,0.3-0.3,0.6-0.5,0.8c-0.1,0-0.2-0.1-0.3-0.1c-0.1,0-0.2,0-0.3-0.1
	c-0.1,0-0.3-0.1-0.5-0.1c-1-0.4-1.4-1.2-1.2-2.2c0.3-1,1.1-1.4,2.1-1.1c0.2,0.1,0.4,0.2,0.7,0.4c0.1,0.1,0.1,0.1,0.1,0.1
	c0,0,0.1,0,0.1,0l0.1,0L31,102l-0.2-0.1c0-0.6-0.2-0.9-0.7-1.1c-0.7-0.2-1.2,0.2-1.4,1c-0.2,0.9,0.1,1.6,0.7,1.9
	C29.9,103.9,30.2,103.7,30.6,103.3"/>
<path class="st3" d="M23.2,98.3l-0.6,2.3c-0.1,0.3,0,0.4,0.3,0.5l0.1,0l-0.1,0.2l-1.6-0.6l0.1-0.2l0.2,0.1c0.2,0.1,0.4,0,0.4-0.2
	l0.6-2.3L22,97.9c-0.3-0.2-0.5,0-0.6,0.4l-0.2-0.1l0.4-0.9l0.1,0.1c0,0,0,0.1,0.1,0.1c0,0,0.1,0.1,0.1,0.1l2.1,0.8
	c0.1,0,0.1,0,0.2,0l0.2,0.1l-0.2,1L24,99.3c0.1-0.5,0-0.7-0.3-0.8L23.2,98.3z"/>
<path class="st3" d="M25.9,102.4L25.9,102.4c0.3,0.1,0.4,0,0.5-0.2l0.2-0.9l-1.4-0.6l-0.3,0.9c-0.1,0.3,0,0.4,0.2,0.5l0.1,0
	l-0.1,0.2l-1.4-0.5l0.1-0.2l0.1,0c0.2,0.1,0.4,0,0.4-0.3l0.6-2c0.1-0.2,0-0.4-0.2-0.5l-0.1,0l0.1-0.2l1.4,0.5L26,99.4l-0.1,0
	c-0.2-0.1-0.4,0-0.4,0.2l-0.2,0.8l1.4,0.6l0.2-0.8c0.1-0.3,0-0.4-0.3-0.5l0,0l0.1-0.2l1.4,0.5l-0.1,0.2l-0.1,0
	c-0.2-0.1-0.4,0-0.4,0.2l-0.6,2.1c-0.1,0.3,0,0.4,0.2,0.5l0.1,0l-0.1,0.2l-1.4-0.5L25.9,102.4z"/>
<path class="st3" d="M32.9,105L32.9,105c0.3,0.1,0.4,0,0.5-0.3l0.2-0.9l-1.5-0.5l-0.2,0.9c-0.1,0.3,0,0.4,0.2,0.5l0.1,0l0,0.2
	l-1.4-0.5l0-0.2l0.1,0c0.2,0.1,0.4,0,0.4-0.3l0.5-2.1c0.1-0.2,0-0.4-0.2-0.5l-0.1,0l0-0.2l1.4,0.5l0,0.2l-0.1,0
	c-0.2-0.1-0.4,0-0.4,0.2l-0.2,0.8l1.5,0.5l0.2-0.8c0.1-0.3,0-0.4-0.3-0.5l0,0l0-0.2l1.4,0.5l0,0.2l-0.1,0c-0.2-0.1-0.4,0-0.4,0.3
	L34,105c-0.1,0.3,0,0.4,0.2,0.5l0.1,0l0,0.2l-1.4-0.5L32.9,105z"/>
<path class="st3" d="M37.4,103.9l-0.4,2c-0.1,0.3,0,0.5,0.3,0.6l0,0.2l-1.1-0.3l0-0.2l0,0c0.2,0.1,0.3,0,0.4-0.2l0.5-2.4
	c-0.1-0.1-0.2-0.1-0.3-0.2l0-0.2l0.9,0.3l1.4,2.8l0.3-1.6c0.1-0.3,0-0.5-0.3-0.6l-0.1,0l0-0.2l1.1,0.3l0,0.2l-0.1,0
	c-0.3-0.1-0.4,0-0.4,0.2l-0.6,2.8l-0.2-0.1L37.4,103.9z"/>
<path class="st3" d="M42.1,106.7l-1-0.2l-0.3,0.6c-0.1,0.1-0.1,0.3-0.1,0.3c0,0.1,0.2,0.1,0.4,0.2l0.1,0l0,0.2l-1.2-0.3l0-0.2l0.1,0
	c0.2,0.1,0.4-0.1,0.5-0.4l1.2-2.3l0-0.2l0.7,0.2l0.4,2.9c0,0.4,0.2,0.6,0.4,0.6l0,0.2l-1.4-0.4l0-0.2l0.2,0c0.1,0,0.2,0,0.2,0
	c0-0.1,0.1-0.2,0-0.3L42.1,106.7z M42,106.4l-0.2-1.3l-0.6,1.1L42,106.4z"/>
<path class="st3" d="M45.5,106.1l-0.2,2c-0.1,0.3,0.1,0.5,0.4,0.5l0,0.2l-1.1-0.2l0-0.2l0,0c0.2,0.1,0.3,0,0.4-0.3l0.3-2.5
	c-0.1-0.1-0.2-0.1-0.3-0.2l0-0.2l0.9,0.2l1.6,2.6l0.2-1.6c0.1-0.3,0-0.5-0.4-0.5l-0.1,0l0-0.2l1.2,0.2l0,0.2l-0.1,0
	c-0.3,0-0.4,0-0.4,0.2l-0.3,2.8l-0.2,0L45.5,106.1z"/>
<path class="st3" d="M48.6,107.7c0.2-1.1,0.8-1.7,1.9-1.7c1,0.2,1.5,0.8,1.5,1.9c-0.2,1.1-0.8,1.7-1.9,1.6
	C49.1,109.4,48.6,108.8,48.6,107.7 M49.3,107.5c0,1.1,0.3,1.7,1,1.8c0.6,0,0.9-0.4,1-1.3c0-1.1-0.3-1.7-0.9-1.8
	C49.7,106.3,49.4,106.7,49.3,107.5"/>
<path class="st3" d="M53.3,108.3v0.8c0,0.3,0.1,0.4,0.4,0.4h0.1v0.2h-1.6v-0.2h0.1c0.3,0,0.4-0.1,0.4-0.4V107c0-0.3-0.1-0.4-0.4-0.4
	h-0.1v-0.2h0.1c0.2,0,0.4,0,0.5,0c0.3,0,0.6,0,0.8,0c0.6,0,1.1,0.1,1.3,0.4c0.1,0.2,0.2,0.4,0.2,0.6c0,0.4-0.3,0.7-0.7,0.9
	c0.1,0.1,0.2,0.3,0.4,0.6c0.1,0.2,0.3,0.4,0.4,0.5c0.1,0.2,0.3,0.3,0.6,0.3v0.2h-0.3c-0.5,0-0.8-0.1-1-0.3c-0.1-0.1-0.2-0.3-0.3-0.4
	c-0.2-0.3-0.3-0.5-0.5-0.7H53.3z M53.3,106.5v1.6h0.2c0.6,0,0.9-0.2,0.9-0.8c0-0.5-0.3-0.8-0.8-0.8H53.3z"/>
<path class="st3" d="M57.6,109.5l-1.2-2.6l0,1.9c-0.1,0.4,0.1,0.6,0.4,0.5l0,0.2l-1,0.1l0-0.2c0.3,0,0.4-0.2,0.4-0.6l0-2
	c0-0.3-0.1-0.4-0.3-0.4l0-0.2l1-0.1l1,2.2l0.8-2.3l1-0.1l0,0.2c-0.3,0-0.4,0.1-0.3,0.4l0.2,2c0,0.4,0.1,0.5,0.4,0.5l0,0.2l-1.4,0.1
	l0-0.2l0.1,0c0.3,0,0.4-0.1,0.3-0.4c0-0.1,0-0.2,0-0.3l-0.2-1.9l-0.9,2.8L57.6,109.5z"/>
<path class="st3" d="M61.9,107.7l-1,0.2l-0.1,0.7c0,0.2,0,0.3,0,0.3c0.1,0.1,0.2,0,0.4,0l0,0l0,0.2l-1.2,0.2l0-0.2l0.1,0
	c0.2,0,0.3-0.2,0.4-0.6l0.4-2.7l-0.1-0.1l0.7-0.1l1.3,2.5c0.1,0.3,0.3,0.5,0.5,0.4l0,0.2l-1.5,0.3l0-0.2l0.2,0
	c0.1,0,0.2-0.1,0.2-0.1c0-0.1,0-0.2-0.1-0.3L61.9,107.7z M61.8,107.4l-0.6-1.2l-0.2,1.3L61.8,107.4z"/>
<path class="st3" d="M66.1,107l-0.1,1l-2.4,0.6l0-0.2l0.1,0c0.2,0,0.3-0.2,0.3-0.5l-0.4-2.1c0-0.2-0.2-0.3-0.4-0.3l-0.1,0l0-0.2
	l1.5-0.4l0,0.2l-0.1,0c-0.2,0.1-0.3,0.2-0.3,0.5l0.4,2.2c0,0.2,0.1,0.3,0.3,0.2l0.6-0.1c0.2,0,0.3-0.3,0.5-0.6c0-0.1,0-0.1,0.1-0.2
	L66.1,107z"/>
<path class="st3" d="M68.9,103.8l-0.1-0.2l1.1-0.4l0.1,0.2l0,0c-0.3,0.1-0.4,0.3-0.3,0.6l0.3,1.3c0.2,0.9-0.1,1.5-0.9,1.8
	c-0.8,0.3-1.4,0.1-1.6-0.7l-0.4-1.5c0-0.2-0.2-0.3-0.4-0.2l-0.1,0l-0.1-0.2l1.4-0.5l0.1,0.2l-0.1,0c-0.2,0.1-0.3,0.2-0.2,0.5
	l0.4,1.5c0.1,0.6,0.5,0.7,1,0.6c0.5-0.2,0.8-0.6,0.6-1.3l-0.3-1.2C69.4,103.8,69.2,103.6,68.9,103.8L68.9,103.8z"/>
<path class="st3" d="M70.9,103.4l0.6,1.9c0.1,0.3,0.2,0.4,0.5,0.2l0.1,0.2l-1.1,0.4L71,106l0,0c0.2-0.1,0.3-0.2,0.2-0.5l-0.7-2.4
	c-0.1,0-0.2,0-0.4,0l-0.1-0.2l0.9-0.4l2.4,1.5l-0.4-1.5c-0.1-0.3-0.2-0.4-0.5-0.3l-0.1,0l-0.1-0.2l1.1-0.5l0.1,0.2l-0.1,0
	c-0.3,0.1-0.4,0.2-0.3,0.4l0.8,2.7l-0.2,0.1L70.9,103.4z"/>
<path class="st3" d="M86,99.5l-0.4-0.9l0.2-0.1c0.3,0.5,0.6,0.6,1,0.5c0.3-0.1,0.4-0.4,0.3-0.7c-0.1-0.2-0.3-0.4-0.8-0.5
	c-0.6-0.1-0.9-0.4-1.1-0.7c-0.1-0.5,0.1-0.9,0.6-1.2c0.1-0.1,0.3-0.1,0.6-0.1c0.1,0,0.1,0,0.1,0c0,0,0,0,0.1-0.1c0,0,0,0,0,0l0.1,0
	l0.3,0.8l-0.2,0.1c-0.3-0.4-0.6-0.5-0.9-0.4c-0.2,0.1-0.4,0.3-0.3,0.5c0.1,0.2,0.3,0.3,0.7,0.4c0.4,0.1,0.6,0.2,0.8,0.2
	c0.2,0.2,0.4,0.4,0.5,0.6c0.1,0.6-0.1,1-0.7,1.3c-0.2,0.1-0.4,0.1-0.6,0.2c-0.1,0-0.2,0-0.2,0c0,0-0.1,0.1-0.1,0.1L86,99.5z"/>
<path class="st3" d="M73.7,101.8l-0.1-0.2L75,101l0.1,0.2l-0.1,0c-0.2,0.1-0.3,0.3-0.2,0.5l0.6,2c0.1,0.3,0.2,0.3,0.5,0.2l0.1,0
	l0.1,0.2l-1.4,0.6l-0.1-0.2l0.1,0c0.2-0.1,0.3-0.2,0.2-0.5l-0.6-2C74.2,101.7,74,101.6,73.7,101.8L73.7,101.8z"/>
<path class="st3" d="M82.9,99.3l0.2,0.8c0.1,0.3,0.2,0.3,0.5,0.2l0.1-0.1l0.1,0.2l-1.5,0.6l-0.1-0.2l0.1,0c0.3-0.1,0.4-0.3,0.3-0.5
	l-0.6-2c-0.1-0.3-0.2-0.3-0.5-0.2l-0.1,0L81.4,98c0,0,0.1,0,0.1,0c0.2-0.1,0.3-0.2,0.4-0.2c0.3-0.1,0.5-0.3,0.7-0.3
	c0.6-0.3,1-0.3,1.3-0.2c0.2,0.1,0.3,0.3,0.4,0.5c0.1,0.4,0,0.8-0.4,1.1c0.1,0.1,0.3,0.2,0.6,0.4c0.2,0.2,0.4,0.3,0.5,0.3
	c0.2,0.1,0.4,0.2,0.7,0.1l0,0.2c-0.1,0-0.2,0.1-0.3,0.1c-0.5,0.2-0.8,0.2-1,0.1c-0.1-0.1-0.3-0.2-0.4-0.3c-0.2-0.2-0.4-0.3-0.7-0.5
	L82.9,99.3z M82.4,97.7l0.5,1.5l0.2-0.1c0.6-0.2,0.8-0.6,0.6-1.1c-0.2-0.5-0.5-0.6-1-0.4L82.4,97.7z"/>
<path class="st3" d="M77.7,103.4l-1.8-2.1c-0.2-0.3-0.4-0.3-0.6-0.2l0,0l-0.1-0.2l1.5-0.7l0.1,0.2l-0.1,0c-0.2,0.1-0.3,0.2-0.3,0.3
	c0,0.1,0,0.2,0.1,0.3l1.2,1.4l0-2.1c0-0.2-0.1-0.2-0.4-0.2l-0.1,0l-0.1-0.2l1.1-0.5l0.1,0.2l0,0c-0.2,0.1-0.3,0.3-0.3,0.8l-0.1,2.8
	L77.7,103.4z"/>
<path class="st3" d="M80.5,98.7l-0.9,0.4l0.4,1.1l0.7-0.3c0.2-0.1,0.3-0.2,0.2-0.5l0.2-0.1l0.3,1l-0.2,0.1c-0.1-0.3-0.2-0.3-0.5-0.2
	l-0.6,0.3l0.3,0.9c0,0.2,0.1,0.3,0.2,0.2l0.7-0.3c0.3-0.1,0.4-0.3,0.3-0.7l0.2-0.1l0.2,0.8l-2.6,1.2l-0.1-0.2l0.2-0.1
	c0.2-0.1,0.3-0.3,0.2-0.5l-0.7-2c-0.1-0.3-0.2-0.3-0.5-0.2l0,0l-0.1-0.2l2.3-1.1l0.3,0.7L81,99C80.8,98.7,80.7,98.6,80.5,98.7"/>
<path class="st3" d="M87.5,95.5l0-0.2l1.4-0.5l0,0.2l-0.1,0c-0.2,0.1-0.3,0.2-0.2,0.5l0.5,2.1c0.1,0.3,0.2,0.4,0.4,0.3l0.1,0l0,0.2
	l-1.4,0.5l0-0.2l0.1,0c0.2-0.1,0.3-0.2,0.2-0.5L88,95.7C87.9,95.5,87.8,95.4,87.5,95.5L87.5,95.5z"/>
<path class="st3" d="M91.1,94.4l0.5,2.4c0,0.3,0.2,0.4,0.5,0.3l0.1,0l0,0.2l-1.6,0.5l0-0.2l0.2,0c0.2-0.1,0.3-0.2,0.3-0.5l-0.5-2.4
	l-0.5,0.2c-0.3,0-0.4,0.3-0.3,0.8l-0.2,0.1l-0.1-1l0.1,0c0,0,0.1,0.1,0.1,0.1c0,0,0.1,0,0.1,0l2.1-0.7c0.1,0,0.1-0.1,0.2-0.2
	l0.2-0.1l0.3,1l-0.2,0.1c-0.1-0.5-0.3-0.6-0.6-0.5L91.1,94.4z"/>
<path class="st3" d="M95,95.1l0.1,0.7c0,0.3,0.2,0.4,0.4,0.3l0.1,0l0,0.2l-1.6,0.3l0-0.2l0.1,0c0.2,0,0.3-0.2,0.3-0.4l-0.1-0.8
	l-1.2-1.3c-0.1-0.2-0.3-0.2-0.4-0.2l0,0l0-0.2l1.5-0.3l0,0.2l-0.1,0c-0.1,0-0.2,0.1-0.2,0.1c0,0.1,0,0.1,0.1,0.2l0.9,1l0.4-1.1
	c0-0.2,0-0.3,0-0.3c0,0-0.1-0.1-0.2-0.1l-0.1,0l0-0.2l1.1-0.2l0,0.2c-0.2,0-0.4,0.2-0.5,0.5L95,95.1z"/>
</svg>
